<svg width="60" height="60" viewBox="0 0 60 60" fill="none" xmlns="http://www.w3.org/2000/svg">
<path d="M18 32L20.9685 49.0344C21.0315 49.396 21.1523 49.7493 21.3909 50.0282C22.4179 51.2284 25.0625 53 29.7447 53H30.2553C34.9375 53 37.5821 51.2284 38.6091 50.0282C38.8477 49.7493 38.9685 49.396 39.0315 49.0344L42 32" stroke="#D4D9B9"/>
<path d="M28 26.0529C21.7698 26.3859 17 28.2501 17 30.5C17 32.9853 22.8203 35 30 35C37.1797 35 43 32.9853 43 30.5C43 28.2501 38.2302 26.3859 32 26.0529" stroke="#D4D9B9" stroke-linecap="round"/>
<path d="M28 28.0412C22.8798 28.255 19 29.2745 19 30.5C19 31.8807 23.9249 33 30 33C36.0751 33 41 31.8807 41 30.5C41 29.2745 37.1202 28.255 32 28.0412" stroke="#D4D9B9" stroke-linecap="round"/>
<path d="M29.1563 19.75C27.9375 17.8611 26.4 12.6667 30 7C33.9375 13.8 31.5938 17.3889 30.8438 19.75M32.5312 19.75C34.125 19.3722 37.65 17.71 39 14.0833C36.75 14.0833 34.2188 15.5 33.375 16.35M31.6875 20.8833C33 21.45 36.0188 22.2433 37.5938 20.8833C37.0312 20.3167 36.0938 20.1278 35.9062 20.0333M27.4688 22.8667C28.2188 22.6778 29.775 22.0167 30 20.8833M30 20.8833C30.225 21.79 31.7812 22.5833 32.5312 22.8667M30 20.8833V30M27.4688 19.75C25.875 19.3722 22.35 17.71 21 14.0833C23.25 14.0833 25.7812 15.5 26.625 16.35M28.3125 20.8833C27 21.45 23.9812 22.2433 22.4062 20.8833C22.9688 20.3167 23.9062 20.1278 24.0938 20.0333" stroke="#D4D9B9" stroke-linecap="round"/>
</svg>
