<svg width="60" height="60" viewBox="0 0 60 60" fill="none" xmlns="http://www.w3.org/2000/svg">
<path fill-rule="evenodd" clip-rule="evenodd" d="M29.7668 7.08086C29.4171 7.25538 29.0236 7.7243 28.6972 8.35561C28.482 8.77167 28.3732 8.89825 28.2306 8.89851C28.0019 8.89893 27.9834 8.92854 27.651 9.82744C27.4259 10.4361 27.3496 10.558 27.1783 10.5826C26.8831 10.625 26.7869 10.7313 26.7225 11.0866C26.5086 12.2664 26.421 12.5104 26.1782 12.602C25.9106 12.703 25.8293 12.9534 25.8273 13.6818C25.8258 14.2756 25.7548 14.4984 25.5671 14.4984C25.3008 14.4984 25.2345 14.7852 25.2345 15.9372V17.0479L24.9854 17.0977C24.8484 17.1251 24.7144 17.2045 24.6876 17.2741C24.6609 17.3438 24.7162 17.9944 24.8104 18.7201C24.9047 19.4457 24.9719 20.0446 24.9597 20.0509C24.9475 20.0572 24.827 20.0989 24.6918 20.1437C24.2469 20.2911 24.2453 20.3736 24.6536 22.0676L25.0321 23.6377L24.6878 23.798C24.4772 23.896 24.3341 24.0245 24.3191 24.1289C24.3056 24.2228 24.5252 24.8646 24.807 25.5552C25.0888 26.2459 25.3194 26.8383 25.3194 26.8719C25.3194 26.9054 25.2065 26.9754 25.0686 27.0275C24.596 27.2058 24.6316 27.4285 25.3851 29.0075C25.7602 29.7933 26.0452 30.4581 26.0185 30.4849C25.8737 30.6296 25.749 30.4643 25.5317 29.8401C25.2381 28.997 25.0688 28.801 24.6946 28.8712L24.4251 28.9218L23.9644 27.8516C23.4664 26.6947 23.3034 26.5168 22.9065 26.6976C22.7101 26.7871 22.6789 26.759 22.2849 26.1385C22.0568 25.7793 21.727 25.2468 21.5521 24.9551C21.2259 24.4112 21.0755 24.3287 20.7384 24.5091C20.6024 24.5818 20.4903 24.4722 19.9166 23.707C19.2278 22.7879 19.0707 22.6604 18.8032 22.8034C18.6697 22.8749 18.5454 22.7877 18.0152 22.2507C17.2857 21.512 17.1468 21.4186 16.9401 21.5278C16.8227 21.5898 16.6848 21.5096 16.2824 21.1457C15.8293 20.7358 15.7429 20.6906 15.4968 20.7349C15.2605 20.7774 15.1279 20.7201 14.5856 20.3416C13.9887 19.9247 13.9381 19.9054 13.734 20.0145C13.5371 20.12 13.4666 20.1057 12.9678 19.8598C12.4111 19.5853 12.1309 19.5263 12.0447 19.6656C12.0186 19.7079 11.8117 19.6718 11.5835 19.585C11.0364 19.3772 10.3965 19.2994 10.1176 19.4068C9.79968 19.5293 9.73095 20.002 9.92849 20.707C10.0111 21.002 10.0715 21.4262 10.0627 21.6497C10.0506 21.9575 10.1107 22.1828 10.3105 22.5787C10.5216 22.9969 10.5555 23.1317 10.4797 23.2529C10.3313 23.4905 10.3598 23.583 10.7703 24.1948C11.097 24.6817 11.1476 24.8116 11.1029 25.0498C11.0558 25.3008 11.0993 25.3877 11.514 25.8708C11.9255 26.35 11.9676 26.4334 11.8873 26.6096C11.8049 26.7905 11.8582 26.8703 12.487 27.5042C13.1542 28.1771 13.1759 28.2115 13.1394 28.5396L13.1018 28.879L13.9443 29.5381C14.7868 30.1972 14.7869 30.1973 14.7709 30.5562L14.7551 30.9152L15.8582 31.6442L16.9613 32.3733L16.9322 32.7711L16.9031 33.1689L18.0141 33.6912C19.1195 34.2109 19.3837 34.4074 18.8399 34.3054C18.6007 34.2606 18.5274 34.2868 18.3852 34.4674L18.2157 34.6829L17.2067 34.306C16.6516 34.0987 16.1565 33.9287 16.1063 33.9281C16.0561 33.9275 15.929 34.0186 15.8238 34.1306L15.6326 34.334L14.7271 34.0875L13.8217 33.8409L13.6501 34.052C13.469 34.2748 13.3937 34.2751 12.1469 34.0572C11.9832 34.0285 11.8654 34.0695 11.7475 34.196C11.6011 34.3531 11.5154 34.3696 11.0602 34.3284C10.6119 34.2877 10.5161 34.3051 10.3667 34.4545C10.2351 34.5861 10.0374 34.6406 9.54673 34.6805C8.99569 34.7252 8.88844 34.7598 8.82064 34.914C8.76311 35.045 8.61105 35.1227 8.26909 35.1958C7.55631 35.348 7.50006 35.3706 7.50006 35.505C7.50006 35.5733 7.43319 35.6515 7.35156 35.6788C6.73994 35.8829 6.13179 36.233 6.0404 36.4336C5.89589 36.7507 6.14324 37.1807 6.71516 37.6067C6.96013 37.7891 7.16107 37.9999 7.16166 38.075C7.16225 38.1535 7.37609 38.3287 7.66484 38.4874C8.01436 38.6793 8.17532 38.8212 8.19425 38.954C8.21605 39.1076 8.34181 39.1861 8.84024 39.3569C9.31423 39.5194 9.47011 39.613 9.50626 39.7568C9.55717 39.9595 9.59535 39.9768 10.3022 40.1167C10.6538 40.1862 10.7915 40.2565 10.8537 40.3983C10.9251 40.5607 11.043 40.6011 11.6984 40.6872C12.1173 40.7424 12.4719 40.8228 12.4863 40.8661C12.5903 41.1779 12.728 41.2259 13.6716 41.2797C14.4965 41.3267 14.6312 41.3551 14.6743 41.4909C14.7751 41.8083 14.9843 41.8199 16.7608 41.6067C17.1266 41.5628 17.1579 41.5742 17.2073 41.7708C17.3037 42.1551 17.5017 42.1787 18.5219 41.9279L19.4556 41.6984L19.6359 41.9275C19.8617 42.2145 19.9441 42.2133 20.8452 41.9087L21.5789 41.6607L21.5287 41.9299C21.5011 42.0779 21.455 42.2219 21.4261 42.2497C21.3973 42.2776 21.0586 42.425 20.6736 42.5774C20.0263 42.8336 19.9736 42.8726 19.9736 43.0954C19.9736 43.3081 19.9019 43.3737 19.3584 43.6584C18.8561 43.9216 18.7446 44.0168 18.7506 44.1773C18.7559 44.3212 18.625 44.4762 18.2627 44.755C17.9665 44.9828 17.7674 45.2008 17.7674 45.2972C17.7674 45.3857 17.6337 45.5648 17.4704 45.6952C17.283 45.8446 17.1734 46.0054 17.1734 46.1307C17.1734 46.24 17.0373 46.4882 16.8709 46.6822C16.6644 46.923 16.5798 47.0955 16.6045 47.2255C16.6259 47.3388 16.5594 47.5259 16.4403 47.6874C16.3301 47.8367 16.24 48.0565 16.2399 48.1757C16.2399 48.2949 16.1617 48.5983 16.0661 48.8497C15.8207 49.4952 15.8935 49.7611 16.3489 49.8837C16.5417 49.9356 16.8487 49.9543 17.0308 49.9252C17.2224 49.8945 17.4082 49.9104 17.4714 49.9629C17.5493 50.0276 17.6964 50.0245 17.9828 49.9524C18.2929 49.8744 18.4218 49.8742 18.5459 49.9516C18.676 50.0328 18.783 50.0185 19.1031 49.8769C19.3479 49.7686 19.5853 49.7206 19.7245 49.7512C19.8762 49.7845 20.0565 49.7378 20.2758 49.6084C20.4552 49.5026 20.6992 49.4255 20.818 49.4371C20.9542 49.4504 21.187 49.3487 21.4466 49.1626C21.7652 48.9343 21.9137 48.8781 22.0992 48.9151C22.3035 48.956 22.4108 48.8956 22.8177 48.5109C23.2219 48.1287 23.3391 48.0622 23.5741 48.0825C23.8254 48.1041 23.9001 48.0492 24.3524 47.5089C24.8184 46.9522 24.8712 46.9146 25.1223 46.9602C25.3792 47.0069 25.4107 46.9809 25.7924 46.4071C26.1288 45.9011 26.2305 45.8049 26.4288 45.8049C26.7103 45.8049 26.8783 45.6104 27.223 44.8858C27.4189 44.474 27.5125 44.3625 27.6624 44.3625C27.9256 44.3625 28.0271 44.238 28.4123 43.4426C28.6507 42.9505 28.7924 42.7506 28.9029 42.7506C28.9884 42.7506 29.0857 42.6838 29.1192 42.6021C29.1528 42.5205 29.1993 44.7381 29.2227 47.5303L29.2651 52.6069L29.5133 52.8204C29.7122 52.9914 29.8207 53.0242 30.0597 52.9853C30.2238 52.9588 30.4367 52.8583 30.5328 52.7622C30.7054 52.5897 30.7076 52.5231 30.7076 47.5417C30.7076 44.7666 30.7321 42.496 30.7622 42.496C30.7922 42.496 30.8387 42.5533 30.8656 42.6233C30.8924 42.6933 30.9906 42.7506 31.0837 42.7506C31.214 42.7506 31.3347 42.9264 31.6082 43.515C31.9173 44.1801 31.9975 44.2882 32.2265 44.347C32.4442 44.4029 32.5549 44.5343 32.8691 45.1097C33.2193 45.7511 33.2692 45.8049 33.5142 45.8049C33.7494 45.8049 33.826 45.8743 34.1814 46.4087C34.5659 46.9868 34.5948 47.0105 34.8616 46.9673C35.1221 46.925 35.1724 46.9606 35.6334 47.514C36.0747 48.0437 36.1551 48.1035 36.3976 48.0826C36.6223 48.0632 36.7528 48.1362 37.1611 48.5092C37.5656 48.8788 37.6939 48.951 37.8798 48.9139C38.0468 48.8805 38.2223 48.9468 38.5483 49.1663C38.8012 49.3365 39.0711 49.4534 39.1792 49.4392C39.2831 49.4255 39.5154 49.5013 39.6955 49.6075C39.9176 49.7386 40.0959 49.7846 40.2504 49.7507C40.3909 49.7199 40.6326 49.7669 40.8812 49.8734C41.1955 50.0082 41.3224 50.0259 41.4569 49.9539C41.5817 49.8871 41.7345 49.8881 42.0107 49.9577C42.2756 50.0244 42.4245 50.0266 42.4983 49.9654C42.56 49.9141 42.7659 49.8992 42.9884 49.9297C43.5054 50.0005 43.9715 49.8422 44.0392 49.5727C44.0677 49.4591 44.0241 49.1663 43.9423 48.9218C43.8605 48.6773 43.7864 48.3778 43.7776 48.2561C43.7687 48.1344 43.6712 47.9082 43.561 47.7534C43.4363 47.5783 43.3673 47.3723 43.3783 47.208C43.3921 47.0043 43.3279 46.8778 43.0977 46.6546C42.9098 46.4726 42.7993 46.2852 42.7993 46.1488C42.7993 46.0029 42.7023 45.8547 42.5023 45.6952C42.339 45.5648 42.2053 45.3857 42.2053 45.2972C42.2053 45.2008 42.0062 44.9828 41.71 44.755C41.3477 44.4762 41.2168 44.3212 41.2221 44.1773C41.2281 44.0168 41.1166 43.9216 40.6143 43.6584C40.0708 43.3737 39.9991 43.3081 39.9991 43.0954C39.9991 42.8726 39.9464 42.8336 39.2991 42.5774C38.914 42.425 38.5754 42.2776 38.5466 42.2497C38.5177 42.2219 38.4722 42.0809 38.4453 41.9365L38.3964 41.6738L39.2488 41.935L40.1012 42.1961L40.3007 41.9643C40.4103 41.8368 40.5558 41.7325 40.6239 41.7325C40.6919 41.7325 41.113 41.8297 41.5596 41.9486C42.4517 42.1859 42.6533 42.1571 42.7484 41.7785C42.807 41.5451 42.8036 41.5451 44.4115 41.7318C45.0017 41.8003 45.2189 41.7412 45.2984 41.4907C45.3418 41.3542 45.4735 41.3269 46.2987 41.2834C47.2432 41.2335 47.3798 41.1857 47.4858 40.8678C47.4999 40.8254 47.7973 40.7537 48.1465 40.7083C49.0423 40.5919 49.1633 40.5575 49.1633 40.4188C49.1633 40.2648 49.3643 40.1593 49.7997 40.0847C50.3429 39.9917 50.4165 39.9555 50.4664 39.7568C50.5025 39.6132 50.6586 39.5191 51.1298 39.3569C51.621 39.1878 51.7554 39.1043 51.792 38.9452C51.823 38.8106 51.9979 38.6593 52.3279 38.4816C52.6368 38.3152 52.8353 38.1483 52.8651 38.03C52.891 37.9267 53.0584 37.7454 53.2371 37.6272C53.6604 37.3471 54 36.8958 54 36.6133C54 36.335 53.5072 35.9526 52.9464 35.7956C52.7347 35.7363 52.5097 35.606 52.4428 35.5039C52.3566 35.3724 52.1657 35.2884 51.7785 35.2115C51.3611 35.1285 51.2163 35.0605 51.1538 34.9183C51.0847 34.7606 50.9798 34.7247 50.4502 34.6775C49.9963 34.637 49.7782 34.5754 49.6441 34.4499C49.4858 34.3018 49.3863 34.2847 48.9263 34.3267C48.4643 34.3689 48.3711 34.3527 48.2344 34.2059C48.083 34.0434 48.0433 34.041 47.2834 34.1482C46.5244 34.2551 46.4854 34.2528 46.374 34.0935C46.2225 33.8767 45.9741 33.8842 45.0775 34.1322L44.3434 34.3353L44.1659 34.1312C44.0683 34.0189 43.9404 33.9293 43.8818 33.9319C43.823 33.9346 43.336 34.1007 42.7993 34.3012L41.8235 34.6656L41.5786 34.4618C41.3933 34.3076 41.2745 34.271 41.0907 34.3114C40.5668 34.4264 40.8974 34.1902 41.9586 33.6912L43.0696 33.1689L43.0405 32.7734L43.0114 32.3779L44.1145 31.6465L45.2176 30.9152L45.2018 30.5578C45.1863 30.2048 45.1952 30.1931 45.9231 29.6125C46.9414 28.8003 46.9881 28.7429 46.8601 28.4618C46.7607 28.2438 46.7842 28.2071 47.456 27.5318C48.0728 26.9119 48.1488 26.8022 48.0991 26.6042C48.0521 26.4171 48.1153 26.2927 48.4777 25.859C48.8544 25.4083 48.906 25.3028 48.8629 25.0722C48.8217 24.8529 48.881 24.7024 49.2002 24.2165C49.6108 23.5914 49.6417 23.4912 49.4958 23.2571C49.4234 23.1411 49.4678 22.9766 49.7045 22.4829C49.9453 21.9806 49.9873 21.8225 49.9152 21.6879C49.8477 21.5617 49.8641 21.4011 49.9813 21.0422C50.1643 20.4819 50.1895 19.6476 50.0284 19.4871C49.8638 19.3231 48.9436 19.3672 48.4377 19.5632C48.1159 19.688 47.9617 19.7083 47.8188 19.6445C47.6663 19.5765 47.5119 19.6161 47.0403 19.8442C46.5054 20.1029 46.4324 20.1182 46.2354 20.0128C46.0319 19.9039 45.9807 19.9234 45.3881 20.3353C44.86 20.7024 44.7155 20.7654 44.4998 20.7222C44.2751 20.6773 44.1739 20.7307 43.7079 21.1398C43.2878 21.5086 43.1428 21.5917 43.0299 21.5285C42.8217 21.412 42.6493 21.531 41.9654 22.2632C41.4414 22.8243 41.3421 22.8958 41.1961 22.8177C40.8694 22.6429 40.9014 22.617 40.0089 23.7751C39.4551 24.4935 39.3629 24.5779 39.2161 24.4993C38.8915 24.3256 38.6984 24.4817 38.1815 25.3348C37.2234 26.9164 37.3107 26.809 37.0717 26.7001C36.6687 26.5165 36.508 26.6905 36.0083 27.8516L35.5476 28.9218L35.2781 28.8712C34.9039 28.801 34.7346 28.997 34.441 29.8401C34.2892 30.2762 34.1542 30.5334 34.0771 30.5334C33.889 30.5334 33.9761 30.2823 34.6546 28.8671C35.3286 27.4611 35.364 27.2226 34.9267 27.0349C34.7997 26.9803 34.6817 26.9263 34.6646 26.9147C34.6475 26.9031 34.8747 26.2963 35.1695 25.5661C35.6754 24.313 35.6985 24.226 35.5807 24.0161C35.512 23.8939 35.3388 23.7603 35.1955 23.7192L34.9352 23.6445L35.2581 22.359C35.7186 20.5265 35.7321 20.4044 35.4911 20.2356C35.3829 20.1598 35.2265 20.0979 35.1435 20.0979C34.9595 20.0979 34.9576 20.2148 35.166 18.7382C35.2613 18.0628 35.3186 17.4274 35.2934 17.3261C35.2638 17.2076 35.1567 17.122 34.9928 17.086L34.7382 17.0301V15.8661C34.7382 14.672 34.6941 14.4984 34.3909 14.4984C34.1892 14.4984 34.1442 14.3271 34.1442 13.5582C34.1442 12.9995 34.1156 12.8578 33.9745 12.7167C33.8811 12.6234 33.7501 12.547 33.6833 12.547C33.6004 12.547 33.5169 12.3379 33.4208 11.8895C33.1433 10.5952 33.1492 10.6089 32.8606 10.5797C32.616 10.5549 32.5813 10.5061 32.3269 9.82862C31.9879 8.92574 31.9707 8.89885 31.7354 8.89885C31.586 8.89885 31.4965 8.7995 31.3373 8.45699C31.0741 7.89093 30.5623 7.24096 30.2543 7.08171C30.044 6.97295 29.9834 6.97286 29.7668 7.08086ZM30.2799 7.89212C30.532 8.19161 30.7723 8.63694 31.0525 9.32305C31.2059 9.69856 31.2881 9.798 31.4737 9.8321C31.6762 9.86935 31.7418 9.97234 32.0138 10.6805C32.2854 11.3874 32.3504 11.4896 32.5425 11.5121C32.7488 11.5363 32.7703 11.5853 32.9135 12.3605C33.0754 13.2384 33.1461 13.3954 33.3788 13.3954C33.4967 13.3954 33.5369 13.4995 33.5806 13.917C33.6105 14.2037 33.6351 14.597 33.6351 14.7908C33.6351 15.169 33.7483 15.3468 33.9892 15.3468C34.1253 15.3468 34.1419 15.4655 34.1631 16.5982L34.1866 17.8496L34.42 17.8463C34.703 17.8422 34.7013 17.804 34.4867 19.3713C34.2856 20.8395 34.3305 20.9822 34.9172 20.7393C35.0283 20.6933 34.9774 20.9963 34.6442 22.3629C34.4189 23.287 34.2334 24.1302 34.2318 24.2366C34.228 24.4991 34.4508 24.5656 34.7476 24.3903C34.8824 24.3107 34.9926 24.2763 34.9926 24.3139C34.9924 24.3872 34.3977 25.9065 34.0286 26.7766C33.9055 27.0669 33.8048 27.3983 33.8048 27.5132C33.8048 27.7909 34.0962 27.8881 34.3205 27.6853C34.4108 27.6036 34.5085 27.5606 34.5377 27.5897C34.5669 27.6189 34.2421 28.3749 33.816 29.2696C33.3897 30.1643 33.0411 30.9825 33.0411 31.0877C33.0411 31.3307 33.2769 31.4251 33.4631 31.2566C33.7038 31.0388 33.7317 31.111 33.5469 31.4731C33.4292 31.7037 33.3977 31.8521 33.4522 31.9185C33.4972 31.9733 33.5472 32.1097 33.5633 32.2216C33.6023 32.4921 33.8329 32.6374 34.0015 32.4976C34.0708 32.44 34.3487 31.7932 34.6189 31.0602C34.8891 30.3272 35.1228 29.7106 35.1382 29.6901C35.1537 29.6696 35.2224 29.7329 35.2911 29.8308C35.4508 30.0588 35.701 29.9989 35.8422 29.699C35.9997 29.3645 36.6905 27.8092 36.7905 27.564L36.877 27.3518L36.9504 27.5427C36.9968 27.6636 37.0949 27.7336 37.2174 27.7336C37.3754 27.7336 37.5571 27.4982 38.2038 26.4555C38.8891 25.3504 39.0106 25.1966 39.1003 25.3194C39.2852 25.5721 39.5122 25.415 40.1483 24.5942C40.9326 23.582 40.8997 23.6132 41.0508 23.7386C41.2336 23.8903 41.416 23.7651 42.0797 23.0323C42.5737 22.4869 42.6854 22.404 42.8753 22.4419C43.0551 22.4778 43.1941 22.3975 43.6219 22.0103C44.0582 21.6154 44.1839 21.5438 44.3625 21.5886C44.5315 21.631 44.6947 21.559 45.1239 21.2528C45.5549 20.9452 45.7211 20.8722 45.9106 20.9068C46.0787 20.9375 46.3297 20.8622 46.745 20.6568C47.1164 20.473 47.3692 20.3926 47.4196 20.4425C47.5239 20.5456 47.8337 20.545 47.9373 20.4414C48.0687 20.31 49.1486 19.9282 49.389 19.9282C49.6042 19.9282 49.6091 19.9399 49.5562 20.3255C49.5262 20.5441 49.3802 20.9864 49.2318 21.3084C49.0068 21.7965 48.9788 21.9212 49.0637 22.0572C49.1491 22.1938 49.1154 22.3305 48.8562 22.8973C48.6096 23.4367 48.5673 23.599 48.6479 23.696C48.7294 23.7943 48.6719 23.9339 48.3521 24.4148C48.048 24.8721 47.9675 25.0607 48.0079 25.2217C48.0509 25.3929 47.9737 25.5306 47.5899 25.9676C47.222 26.3864 47.1277 26.5498 47.1584 26.7155C47.1906 26.8898 47.0779 27.0507 46.5259 27.6172C45.8637 28.2969 45.7687 28.4628 45.9419 28.636C46.0027 28.6968 45.7529 28.9522 45.1358 29.4604C44.6441 29.8654 44.2418 30.241 44.2418 30.2948C44.2418 30.3487 44.3009 30.458 44.373 30.5377C44.4944 30.6719 44.4123 30.7421 43.2723 31.4777C42.3069 32.1007 42.0399 32.313 42.038 32.4593C42.0367 32.562 42.1021 32.6832 42.1834 32.7287C42.2647 32.7741 42.3098 32.8328 42.2836 32.859C42.2574 32.8851 41.7041 33.1519 41.0539 33.4519C40.0157 33.9309 39.8685 34.024 39.8449 34.2173C39.8247 34.3821 39.8662 34.4552 40.0096 34.5082C40.177 34.5701 40.1234 34.6105 39.5889 34.8258C38.9452 35.0851 38.8931 35.15 38.8665 35.7265C38.847 36.1481 39.0709 36.121 40.0415 35.5842C40.5082 35.326 40.9333 35.1148 40.9862 35.1148C41.0392 35.1148 41.1037 35.1964 41.1298 35.2961C41.1908 35.5291 41.3971 35.4913 42.5726 35.0317C43.0526 34.8441 43.4863 34.6906 43.5366 34.6906C43.5869 34.6906 43.648 34.767 43.6724 34.8603C43.7297 35.0795 43.8433 35.0745 44.8114 34.8109L45.6161 34.5916L45.7814 34.769C45.8858 34.881 46.0156 34.9322 46.1337 34.9077C46.2365 34.8865 46.5867 34.8264 46.9117 34.7742C47.4231 34.6921 47.5158 34.6972 47.5999 34.8122C47.6732 34.9125 47.8539 34.9452 48.335 34.9452C48.7721 34.9452 49.0033 34.9818 49.0695 35.0616C49.124 35.1272 49.4269 35.2038 49.7635 35.2369C50.1504 35.275 50.3768 35.3371 50.406 35.4133C50.431 35.4782 50.729 35.5927 51.0719 35.6689C51.5156 35.7676 51.7037 35.8491 51.7313 35.9549C51.7581 36.0571 51.9485 36.1468 52.3491 36.2456C52.9304 36.389 53.3212 36.5804 53.3212 36.7216C53.3212 36.8292 52.7364 37.2786 52.3677 37.4544C52.1797 37.544 52.0466 37.6729 52.0312 37.7799C52.0144 37.8978 51.8373 38.0465 51.5016 38.2248C51.2243 38.3721 50.9693 38.5685 50.9349 38.6613C50.8932 38.774 50.684 38.8927 50.3042 39.0191C49.9247 39.1454 49.7223 39.2601 49.695 39.3645C49.6495 39.5389 49.5577 39.5761 48.9676 39.6594C48.6786 39.7002 48.5231 39.7728 48.4343 39.9082C48.3291 40.0688 48.1794 40.1166 47.4993 40.2066C46.7782 40.302 46.6812 40.3354 46.6143 40.5113C46.5426 40.6998 46.4958 40.7099 45.5814 40.7328C44.6448 40.7563 44.623 40.7613 44.595 40.959C44.5675 41.1542 44.5483 41.1593 44.0435 41.1058C43.7558 41.0753 43.1865 41.0263 42.7781 40.997L42.0356 40.9435V41.1683C42.0356 41.292 41.9926 41.3931 41.9401 41.3931C41.8875 41.3931 41.4146 41.2919 40.8892 41.1682C39.8813 40.9308 39.6597 40.9403 39.6597 41.2208C39.6597 41.3156 39.6237 41.3931 39.5798 41.3931C39.5358 41.3931 39.0589 41.2595 38.52 41.0962C37.3694 40.7475 37.1141 40.7246 37.1141 40.9705C37.1141 41.1141 37.0764 41.133 36.8807 41.0869C36.7524 41.0567 36.6283 41.029 36.6049 41.0254C36.4587 41.0028 36.011 41.3378 36.011 41.4697C36.011 41.7008 36.1479 41.772 36.9243 41.9444C37.4853 42.0689 37.6173 42.1271 37.5839 42.2345C37.5126 42.464 37.6458 42.5632 38.4319 42.8664C39.0921 43.1211 39.1966 43.1889 39.2196 43.3775C39.2406 43.5487 39.3714 43.6631 39.8342 43.9151C40.2703 44.1526 40.4224 44.2809 40.4228 44.4121C40.4232 44.5305 40.5774 44.695 40.8901 44.9103C41.1688 45.1022 41.3568 45.2942 41.3568 45.387C41.3568 45.4724 41.5095 45.665 41.6962 45.815C41.8829 45.965 42.0356 46.1564 42.0356 46.2403C42.0356 46.3242 42.1502 46.5233 42.2902 46.6827C42.4302 46.8421 42.5447 47.0446 42.5447 47.1326C42.5447 47.2206 42.6402 47.433 42.7569 47.6048C42.8735 47.7764 42.969 48.018 42.969 48.1416C42.969 48.2652 43.0376 48.4677 43.1216 48.5916C43.2056 48.7154 43.3199 48.923 43.3757 49.0529C43.5117 49.3698 43.3709 49.4193 42.7051 49.2883C42.3542 49.2193 42.1604 49.215 42.0886 49.2746C42.0163 49.3346 41.8653 49.3259 41.6015 49.2464C41.3525 49.1716 41.1699 49.159 41.0781 49.2103C40.9793 49.2655 40.8317 49.2354 40.5849 49.1094C40.391 49.0106 40.1563 48.9497 40.0633 48.9739C39.9644 48.9998 39.7531 48.9292 39.5548 48.8041C39.3552 48.6781 39.1456 48.6084 39.0453 48.6346C38.9312 48.6643 38.7244 48.5654 38.419 48.3349C38.0854 48.083 37.912 48.0042 37.7722 48.0408C37.6221 48.08 37.4873 47.9979 37.1426 47.6576C36.7841 47.3037 36.6633 47.2324 36.4808 47.2673C36.2868 47.3044 36.1887 47.2278 35.7312 46.6825C35.2705 46.1331 35.1747 46.0589 34.9624 46.0862C34.7431 46.1145 34.6832 46.0601 34.3355 45.5158C33.9043 44.8406 33.8352 44.7772 33.5933 44.8335C33.453 44.8663 33.3555 44.7495 33.0411 44.1725C32.7318 43.6049 32.6177 43.4669 32.4408 43.4463C32.2606 43.4253 32.1652 43.3035 31.8949 42.7492C31.6555 42.2583 31.5088 42.0572 31.3496 42.0017C31.1975 41.9486 31.0562 41.7673 30.881 41.4009C30.6613 40.9411 30.6035 40.8793 30.4143 40.9013L30.1985 40.9265L30.156 46.6108C30.1189 51.5882 30.0978 52.2952 29.9863 52.2952C29.8747 52.2952 29.8567 51.6081 29.8396 46.6979C29.8289 43.6194 29.8005 41.0492 29.7764 40.9864C29.7522 40.9236 29.6464 40.8844 29.5412 40.8993C29.4062 40.9185 29.2708 41.0755 29.0808 41.4333C28.9104 41.7542 28.7373 41.9649 28.609 42.0077C28.4665 42.0552 28.3092 42.2747 28.0783 42.748C27.8081 43.3024 27.7119 43.4254 27.5325 43.4463C27.3564 43.4669 27.242 43.6059 26.9325 44.1756C26.6151 44.7598 26.5211 44.8722 26.3795 44.8366C26.1484 44.7786 26.1003 44.8232 25.6459 45.5156C25.2928 46.0537 25.2255 46.1144 25.0095 46.0903C24.8004 46.0669 24.6968 46.1474 24.2414 46.6866C23.7846 47.2275 23.6854 47.3043 23.4918 47.2673C23.3094 47.2324 23.1885 47.3037 22.8301 47.6576C22.4854 47.9979 22.3506 48.08 22.2005 48.0408C22.0607 48.0042 21.8873 48.083 21.5536 48.3349C21.2443 48.5685 21.0421 48.6645 20.9248 48.6339C20.8191 48.6062 20.6272 48.6733 20.4315 48.8063C20.2255 48.9462 20.0445 49.0073 19.9249 48.9772C19.8203 48.951 19.594 49.0043 19.4086 49.0988C19.2177 49.1963 18.9866 49.2496 18.86 49.2254C18.7396 49.2024 18.4948 49.224 18.316 49.2733C18.0935 49.3348 17.9577 49.3356 17.8859 49.2761C17.8138 49.2162 17.6237 49.2215 17.2785 49.2929C16.6443 49.4238 16.4661 49.369 16.577 49.0774C16.6214 48.9609 16.7558 48.7174 16.8756 48.5363C16.9989 48.35 17.071 48.1485 17.0417 48.0722C17.0122 47.9953 17.0842 47.7985 17.209 47.6149C17.3294 47.4376 17.428 47.2131 17.428 47.1161C17.428 47.019 17.5425 46.8298 17.6825 46.6957C17.8225 46.5616 17.9371 46.3699 17.9371 46.2698C17.9371 46.1595 18.0707 45.9804 18.2765 45.815C18.4632 45.665 18.6159 45.4724 18.6159 45.387C18.6159 45.2942 18.8039 45.1022 19.0826 44.9103C19.3968 44.6939 19.5493 44.531 19.5493 44.4116C19.5493 44.2796 19.7061 44.1473 20.1645 43.8928C20.6501 43.6232 20.7797 43.5103 20.7797 43.3567C20.7797 43.1901 20.8894 43.1196 21.5408 42.8675C22.327 42.5631 22.46 42.4639 22.3888 42.2345C22.3554 42.1271 22.4874 42.0689 23.0483 41.9444C23.434 41.8588 23.7974 41.7523 23.8556 41.7078C24.0282 41.5761 23.9773 41.338 23.7439 41.1851C23.5 41.0253 23.314 41 23.0869 41.0958C22.9715 41.1445 22.9216 41.1158 22.8861 40.9799C22.8215 40.7331 22.6512 40.747 21.4646 41.0962C20.9094 41.2595 20.4232 41.3931 20.3841 41.3931C20.345 41.3931 20.313 41.3156 20.313 41.2208C20.313 40.9403 20.0914 40.9308 19.0835 41.1682C18.0415 41.4135 17.9031 41.432 17.9748 41.3159C18.001 41.2735 17.9972 41.1728 17.9662 41.0921C17.9166 40.963 17.8229 40.9517 17.181 40.9979C16.7801 41.0268 16.2168 41.0753 15.9292 41.1058C15.4244 41.1593 15.4052 41.1542 15.3776 40.959C15.3496 40.7613 15.3279 40.7563 14.3913 40.7328C13.4751 40.7098 13.4302 40.7001 13.3579 40.51C13.2796 40.3042 13.252 40.2964 12.0922 40.1524C11.7513 40.11 11.6252 40.0565 11.5951 39.9412C11.551 39.7725 11.5038 39.753 10.797 39.6131C10.4542 39.5453 10.3063 39.4741 10.2773 39.3632C10.2505 39.2608 10.0473 39.1451 9.67843 39.0224C9.30074 38.8967 9.10312 38.783 9.06748 38.6706C9.03846 38.5793 8.79306 38.3927 8.52212 38.2559C8.19399 38.0903 8.01291 37.9423 7.97974 37.8125C7.94758 37.6865 7.76752 37.5333 7.47027 37.3791C6.86425 37.0646 6.58898 36.7771 6.73043 36.6067C6.83523 36.4804 7.38635 36.2781 7.91338 36.1723C8.08572 36.1378 8.21546 36.054 8.23956 35.9616C8.26866 35.8504 8.44372 35.7713 8.87783 35.6733C9.20681 35.599 9.51822 35.4819 9.5699 35.4129C9.62921 35.3337 9.88912 35.267 10.2744 35.2318C10.6694 35.1959 10.9007 35.1354 10.9294 35.0606C10.9617 34.9765 11.1579 34.9452 11.651 34.9452C12.1499 34.9452 12.3461 34.9133 12.3961 34.8239C12.4543 34.7201 12.5779 34.7184 13.257 34.8117C14.009 34.9151 14.0579 34.9122 14.2033 34.7562C14.3548 34.5936 14.366 34.5942 15.1613 34.8109C16.1294 35.0745 16.243 35.0795 16.3003 34.8603C16.3247 34.767 16.3838 34.6906 16.4314 34.6906C16.4792 34.6906 16.9699 34.8624 17.5219 35.0724C18.0739 35.2824 18.5849 35.4542 18.6577 35.4542C18.7303 35.4542 18.8255 35.3605 18.869 35.2458L18.9483 35.0375L19.6518 35.4233C20.0388 35.6355 20.4436 35.8653 20.5514 35.9338C20.7955 36.0892 21.1085 36.0522 21.1445 35.8636C21.1593 35.7854 21.1312 35.572 21.082 35.3893C20.9983 35.0782 20.954 35.042 20.3827 34.8179C19.8528 34.6099 19.7978 34.5693 19.9637 34.508C20.1054 34.4555 20.1478 34.3817 20.1278 34.2215C20.1043 34.0339 19.9433 33.9324 18.8917 33.443C17.7812 32.926 17.4914 32.7393 17.7999 32.7393C17.9625 32.7393 18.0307 32.4208 17.8967 32.2868C17.8362 32.2262 17.2651 31.8405 16.6277 31.4296C15.5561 30.7386 15.4786 30.6714 15.5999 30.5376C15.6719 30.458 15.7309 30.3487 15.7309 30.2948C15.7309 30.241 15.3286 29.8654 14.8369 29.4604C14.2198 28.9522 13.97 28.6968 14.0308 28.636C14.2111 28.4557 14.1015 28.2642 13.4448 27.6113C12.874 27.044 12.7776 26.908 12.8145 26.7225C12.8493 26.5468 12.7652 26.3965 12.3893 25.9631C12.0076 25.5229 11.9291 25.3811 11.9657 25.1979C12.0001 25.026 11.9186 24.8387 11.6194 24.4017C11.3146 23.9567 11.2459 23.7968 11.3089 23.6791C11.3687 23.5673 11.3144 23.3572 11.1002 22.8714C10.8618 22.331 10.8282 22.1865 10.9101 22.0554C10.9912 21.9256 10.9679 21.8031 10.7842 21.3937C10.5304 20.8284 10.3271 20.0428 10.4125 19.9574C10.5016 19.8683 11.3545 20.0877 11.8021 20.3148C12.2374 20.5356 12.4648 20.5733 12.5482 20.4384C12.5785 20.3893 12.8497 20.4804 13.2032 20.6584C13.6491 20.8829 13.8711 20.9492 14.0543 20.9126C14.2565 20.8721 14.4035 20.9351 14.8487 21.2528C15.2799 21.5604 15.4408 21.6311 15.6118 21.5882C15.7931 21.5427 15.913 21.6119 16.3446 22.0115C16.7765 22.4113 16.8986 22.4818 17.0919 22.4431C17.2939 22.4027 17.4016 22.4796 17.9482 23.0545C18.6872 23.8316 18.7535 23.8784 18.9202 23.74C19.0732 23.6131 19.0394 23.5812 19.8244 24.5942C20.4621 25.4171 20.6874 25.5722 20.8741 25.3169C20.9927 25.1549 20.8885 25.0162 21.9727 26.7792C22.445 27.5473 22.5976 27.7336 22.7542 27.7336C22.878 27.7336 22.9744 27.6648 23.0187 27.545C23.0819 27.3744 23.1063 27.3966 23.2751 27.7783C24.223 29.9215 24.2327 29.9395 24.4351 29.9395C24.5435 29.9395 24.6693 29.873 24.7148 29.7917C24.7603 29.7104 24.8131 29.6628 24.8322 29.6857C24.8513 29.7087 25.0865 30.3268 25.355 31.0593C25.6235 31.7919 25.9004 32.4388 25.9702 32.4967C26.1397 32.6374 26.3703 32.4929 26.4094 32.2216C26.4255 32.1097 26.4757 31.9732 26.5208 31.9182C26.5751 31.852 26.5581 31.7316 26.4703 31.5618C26.2877 31.2089 26.2988 31.0659 26.495 31.2434C26.6633 31.3957 26.8898 31.3587 26.9634 31.1668C26.9881 31.1024 26.6445 30.281 26.2 29.3414C25.7554 28.4018 25.4103 27.6144 25.4331 27.5917C25.4557 27.569 25.5677 27.6115 25.6819 27.6864C25.9011 27.83 26.1259 27.7958 26.198 27.6079C26.2218 27.546 25.9575 26.7995 25.6106 25.9491C25.2637 25.0986 24.98 24.3675 24.98 24.3242C24.98 24.2809 25.0903 24.3107 25.2251 24.3903C25.5244 24.5671 25.7436 24.4989 25.7436 24.2288C25.7436 24.1181 25.5718 23.3324 25.3618 22.4828C24.9066 20.641 24.9087 20.663 25.1952 20.7935C25.3683 20.8723 25.4351 20.8669 25.5362 20.766C25.6472 20.655 25.6418 20.4872 25.491 19.3298C25.3969 18.609 25.3199 17.9932 25.3197 17.9613C25.3195 17.9294 25.4244 17.8912 25.5527 17.8764L25.7861 17.8496L25.8096 16.5982L25.833 15.3468H26.0338C26.2655 15.3468 26.3376 15.2071 26.3376 14.7584C26.3376 14.5825 26.3621 14.2037 26.3921 13.917C26.4366 13.4917 26.4748 13.3954 26.5992 13.3954C26.8161 13.3954 26.8675 13.2831 27.0637 12.3801C27.2194 11.6636 27.2608 11.5715 27.4456 11.5283C27.6111 11.4897 27.7071 11.344 27.9222 10.8046C28.0703 10.433 28.2099 10.0623 28.2324 9.98057C28.2581 9.88742 28.3561 9.8321 28.4953 9.8321C28.6587 9.8321 28.7411 9.77068 28.8081 9.59879C29.1881 8.62286 29.7835 7.62623 29.9863 7.62623C30.0247 7.62623 30.1568 7.74585 30.2799 7.89212ZM26.8153 32.9526C26.7006 33.0672 26.7008 33.1285 26.8169 33.5252C27.0128 34.1945 27.1228 34.3812 27.3559 34.4404C27.6148 34.5062 27.865 34.393 27.865 34.2102C27.865 34.0643 27.4103 33.2154 27.2023 32.9726C27.0465 32.7909 26.9805 32.7874 26.8153 32.9526ZM32.8196 32.889C32.7079 32.963 32.1077 34.1075 32.1077 34.2465C32.1077 34.3967 32.3466 34.4939 32.6177 34.4541C32.8171 34.4248 32.8887 34.3505 32.9917 34.0665C33.2539 33.3431 33.2916 33.0867 33.1556 32.9508C33.0139 32.8091 32.9564 32.7985 32.8196 32.889ZM21.7725 35.556C21.4949 35.8335 21.8832 36.2493 22.3754 36.2016C22.6007 36.1798 22.6465 36.1396 22.6465 35.964C22.6465 35.8068 22.5705 35.7156 22.3495 35.6075C21.9899 35.4317 21.9044 35.4241 21.7725 35.556ZM37.7137 35.5771C37.3815 35.6918 37.2325 35.877 37.31 36.079C37.4296 36.3906 38.302 36.1336 38.302 35.7868C38.302 35.5499 38.0514 35.4606 37.7137 35.5771ZM24.4921 40.5846C24.0147 40.795 24.175 41.2423 24.6991 41.1622C25.0558 41.1077 25.303 40.8422 25.1799 40.6457C25.0611 40.4563 24.8301 40.4357 24.4921 40.5846ZM34.84 40.5617C34.6165 40.7851 34.8396 41.0785 35.2985 41.1648C35.8117 41.2612 35.9456 40.7848 35.4621 40.5828C35.1042 40.4332 34.9729 40.4288 34.84 40.5617Z" fill="#D4D9B9"/>
</svg>
