<svg width="60" height="60" viewBox="0 0 60 60" fill="none" xmlns="http://www.w3.org/2000/svg">
<g clip-path="url(#clip0_301_130)">
<path d="M17.8439 16.3387H42.1489C43.1923 16.3387 44.0387 17.1691 44.0387 18.1768V41.8162C44.0387 42.831 43.1923 43.6542 42.1489 43.6542H17.8439C16.8004 43.6542 15.954 42.831 15.954 41.8162V18.1839C15.954 17.1691 16.8077 16.3458 17.8439 16.3458V16.3387Z" stroke="#D4D9B9" stroke-linecap="round" stroke-linejoin="round"/>
<path d="M10.7297 30C10.737 25.0962 11.2842 20.1994 12.3276 15.3168C10.6494 11.6904 13.2762 8.45423 16.8442 10.4342C21.2368 9.29875 25.6221 8.73101 30 8.70972C34.378 8.73101 38.7632 9.29875 43.1558 10.4342C46.7238 8.45423 49.3506 11.6904 47.6651 15.3097C48.7085 20.1923 49.2558 25.0891 49.2631 29.9929C49.2558 34.9039 48.7085 39.7936 47.6651 44.6833C49.3433 48.3026 46.7165 51.5388 43.1558 49.5588C38.7559 50.6942 34.378 51.262 30 51.2833C25.6221 51.2549 21.2368 50.6942 16.8442 49.5588C13.2762 51.5388 10.6494 48.3026 12.3349 44.6833C11.2915 39.8007 10.7443 34.9039 10.737 29.9929L10.7297 30Z" stroke="#D4D9B9" stroke-linecap="round" stroke-linejoin="round"/>
<path d="M30.591 31.3129V34.1445" stroke="#D4D9B9" stroke-linecap="round" stroke-linejoin="round"/>
<path d="M26.1985 27.1613L30.591 31.3129" stroke="#D4D9B9" stroke-linecap="round" stroke-linejoin="round"/>
<path d="M34.6115 28.1194L30.591 31.3129" stroke="#D4D9B9" stroke-linecap="round" stroke-linejoin="round"/>
<path d="M27.3294 24.6561C25.7242 23.5703 24.0752 24.2374 22.4918 22.7754C22.0394 22.3567 21.9008 22.08 21.6381 22.2858C20.799 22.967 21.1054 26.3167 23.5936 28.687C26.9135 31.8522 30.9996 27.147 27.3221 24.649L27.3294 24.6561Z" stroke="#D4D9B9" stroke-linecap="round" stroke-linejoin="round"/>
<path d="M32.7435 29.7516C31.3645 28.1832 31.8606 25.5716 35.29 24.8052C37.1361 24.1736 37.5447 22.8536 37.7344 23.1161C41.1127 27.871 35.4433 32.3774 32.7435 29.7516V29.7516Z" stroke="#D4D9B9" stroke-linecap="round" stroke-linejoin="round"/>
<path d="M27.3076 35.0316C25.4177 35.0316 24.4765 36.0748 24.3233 37.0613C24.2649 37.4374 24.4619 37.771 24.8267 37.771H36.5305C36.8953 37.771 37.0923 37.4374 37.0339 37.0613C36.8807 36.0748 35.9394 35.0316 34.0496 35.0316C32.656 35.0316 32.51 34.3645 30.5983 34.3645C28.6866 34.3645 28.5115 35.0316 27.3076 35.0316V35.0316Z" stroke="#D4D9B9" stroke-linecap="round" stroke-linejoin="round"/>
</g>
<defs>
<clipPath id="clip0_301_130">
<rect width="40" height="44" fill="white" transform="translate(10 8)"/>
</clipPath>
</defs>
</svg>
