<svg width="60" height="60" viewBox="0 0 60 60" fill="none" xmlns="http://www.w3.org/2000/svg">
<path fill-rule="evenodd" clip-rule="evenodd" d="M27.6979 8.36914C26.8168 8.83964 25.5306 10.2579 25.2339 11.0864C25.0047 11.7265 24.9765 11.7405 23.9112 11.7405C23.0121 11.7405 22.7008 11.8343 22.1231 12.2793C21.7385 12.5756 21.2979 13.0636 21.1443 13.3637L20.8648 13.9094L20.0609 13.5077C19.6176 13.2862 18.8674 13.1016 18.389 13.0962L17.5209 13.0864L17.4613 14.0405C17.423 14.6502 17.5485 15.4339 17.809 16.2125L18.2163 17.4303L17.6896 17.8487C17.181 18.2529 16.5266 18.9409 16.0409 19.5827C15.8305 19.8605 15.7033 19.8636 14.7662 19.6132C14.1936 19.4604 13.401 19.3354 13.0049 19.3354C12.2928 19.3354 12.2848 19.3439 12.2848 20.0978C12.2848 21.152 12.7772 22.5305 13.5388 23.6082L14.1805 24.5161L13.7085 25.0304C13.0935 25.7007 12.7905 26.8763 12.9522 27.9651C13.088 28.8798 13.9602 30.3576 14.4838 30.5607C14.7368 30.6585 14.6527 30.8399 14.0146 31.572C13.2643 32.4329 12.7321 33.7294 12.9229 34.2316C12.9878 34.4023 12.6995 34.5075 11.9535 34.5854C11.3696 34.6462 10.7656 34.8232 10.6116 34.9788C10.2317 35.3626 10.4345 36.085 11.1542 36.9129L11.7317 37.577L10.8658 38.3828C10.3896 38.8262 10 39.341 10 39.5269C10 40.0553 11.258 40.5563 12.8004 40.6425C14.1536 40.7182 14.1757 40.728 14.3756 41.3399C14.6146 42.0713 15.4002 42.8783 16.1529 43.1653C16.8585 43.4345 18.2981 43.4264 18.809 43.1503C19.1565 42.9627 19.2581 42.9975 19.5101 43.3907C19.6721 43.6437 20.0344 44.059 20.3151 44.3138L20.8255 44.7772L20.3632 45.464C19.8374 46.2456 19.7827 46.767 20.1685 47.3233C20.369 47.6123 20.3949 47.9245 20.272 48.5679C19.8389 50.8348 20.2003 52.667 21.127 52.9018C22.117 53.1527 22.3699 52.873 23.5668 50.2022C23.911 49.4341 24.1974 49.1288 25.0329 48.6388C25.8802 48.1422 26.1363 48.0701 26.4242 48.2478C26.6844 48.4081 26.7437 48.5914 26.6498 48.9459C26.5799 49.2103 26.5108 49.8117 26.4961 50.2822C26.4725 51.0535 26.5338 51.1817 27.1168 51.5801C28.2019 52.3219 29.5795 52.0671 29.9978 51.0477C30.1197 50.7504 30.1911 50.0478 30.1564 49.4862C30.065 48.0007 30.4976 47.4721 30.934 48.5362C31.0584 48.8396 31.4544 49.3757 31.8139 49.7275C32.3358 50.2384 32.4675 50.5166 32.4675 51.1082C32.4675 51.5157 32.5983 52.1044 32.7581 52.4165C33.3236 53.5207 34.7267 52.992 35.4974 51.384C35.9037 50.5364 36.0229 49.0634 35.7238 48.5865C35.6189 48.4193 35.7025 48.0266 35.9532 47.5086L36.3476 46.6938L36.8 47.1506C37.4923 47.8497 38.1473 48.2305 38.4534 48.1118C38.7811 47.9849 39.322 46.2639 39.322 45.348C39.322 44.8543 39.4757 44.5678 39.9808 44.12C40.3432 43.7987 40.7457 43.2395 40.8754 42.8777C41.0654 42.3466 41.2398 42.1951 41.7765 42.0934C42.6537 41.9271 43.5299 41.3912 44.021 40.7203C44.2967 40.3439 44.7023 40.1108 45.3451 39.9597C46.7316 39.6334 47.6998 39.1716 47.6998 38.8362C47.6998 38.3736 47.3371 37.7643 46.5941 36.9796L45.9144 36.2615L46.3184 35.826C47.2167 34.8577 47.4252 32.8076 46.7407 31.6738L46.3542 31.0337L46.8841 30.6245C48.2142 29.5981 49.1769 28.2605 48.9726 27.7229C48.8399 27.3735 47.1432 26.8342 46.1771 26.8342C45.5176 26.8342 45.4644 26.7842 45.0503 25.7749C44.6293 24.7493 43.5261 23.5655 42.9915 23.5655C42.6621 23.5655 42.6851 23.3892 43.1301 22.508C43.8439 21.094 43.5058 19.6494 42.1276 18.2279C41.3236 17.3984 39.7546 16.6435 38.8352 16.6435C38.4113 16.6435 38.3778 16.5893 38.5092 16.1148C38.7586 15.2142 38.6309 13.9469 38.236 13.4037C38.0323 13.1234 37.4338 12.6346 36.906 12.3173C35.9852 11.7638 35.9502 11.7119 36.0393 11.031C36.0905 10.6409 36.0772 10.1002 36.01 9.82928C35.898 9.37916 35.8024 9.33725 34.8916 9.33994C34.3438 9.34167 33.7716 9.42223 33.62 9.51895C33.4234 9.6447 33.1551 9.52683 32.6819 9.10748C32.3175 8.78426 31.7373 8.40086 31.3927 8.2555C30.4799 7.87037 28.519 7.93056 27.6979 8.36914ZM30.6052 8.96096C30.9946 9.07018 31.5782 9.38474 31.902 9.65969L32.4906 10.16L31.9175 10.758C31.2613 11.4425 30.8558 12.3381 30.661 13.5325C30.5766 14.0497 30.407 14.4008 30.2113 14.4631C29.4748 14.6981 29.0391 14.9986 28.9293 15.3478C28.7311 15.9787 29.1416 16.1654 29.7189 15.707C30.0022 15.4818 30.3874 15.2976 30.5746 15.2976C31.0464 15.2976 32.0867 16.2192 32.0867 16.637C32.0867 17.0958 32.5092 17.4321 32.8322 17.2304C33.0134 17.1173 33.0509 16.8658 32.9601 16.3763C32.8773 15.9312 32.9039 15.6822 33.0344 15.6822C33.3727 15.6822 34.8512 14.2032 35.2381 13.4777C35.6568 12.6925 35.7739 12.6663 36.5985 13.1741C37.878 13.9621 38.1275 15.2634 37.2329 16.4851C37.0205 16.7753 36.8468 17.1915 36.8468 17.4101C36.8468 17.7835 36.9207 17.8003 38.0524 17.6832C39.0462 17.5803 39.4062 17.6282 40.0993 17.9551C41.1693 18.4594 41.4431 18.6901 42.0585 19.6057C42.3708 20.0707 42.5587 20.6114 42.5581 21.0447C42.5576 21.7425 41.9582 22.9887 41.6233 22.9887C41.2973 22.9887 40.8594 23.5714 40.9688 23.8595C41.0281 24.015 41.2841 24.1423 41.5381 24.1423C43.3228 24.1423 44.7527 26.1116 44.5054 28.2289C44.4256 28.9115 43.6 29.9106 43.1154 29.9106C43.0187 29.9106 42.9397 30.0736 42.9397 30.2726C42.9397 30.6522 43.4222 30.8647 44.2944 30.8693C45.3906 30.875 46.5221 32.58 46.2605 33.8313C45.9549 35.2926 44.9437 36.2194 43.4182 36.4362C42.4896 36.5681 42.267 37.1146 43.0235 37.4049C44.604 38.0118 43.7156 40.6692 41.7682 41.1599C41.3997 41.2528 41.2143 41.1993 41.0833 40.9628C40.9827 40.7819 40.7434 40.6709 40.5412 40.7121C40.2596 40.7692 40.192 40.9224 40.2379 41.3995C40.303 42.0751 39.8182 43.2842 39.4203 43.4382C39.2682 43.4972 39.0743 43.3099 38.9344 42.9686C38.8062 42.6562 38.4622 42.1974 38.1697 41.949C37.7015 41.5512 37.6507 41.4022 37.7434 40.703C37.8352 40.0122 37.8017 39.9089 37.4848 39.9089C37.2556 39.9089 37.0414 40.1212 36.9066 40.4815C36.7889 40.7965 36.4612 41.1607 36.1785 41.2906C35.7467 41.4894 35.5717 41.4735 35.0835 41.1905C34.6703 40.9511 34.4433 40.9132 34.2985 41.0595C34.0445 41.316 34.3365 41.853 34.8632 42.0972C35.1709 42.2399 35.2331 42.491 35.2583 43.6939L35.2882 45.1215L34.5943 45.0629C34.0521 45.0171 33.8169 44.8695 33.5172 44.3869C33.0382 43.6149 32.6854 43.5999 31.9997 44.3226C31.2646 45.0975 30.0216 45.4857 28.2924 45.4807C26.3505 45.4749 25.3291 45.0168 24.8865 43.9525C24.5142 43.0573 24.0843 42.96 23.6256 43.6672C23.451 43.9364 23.1108 44.2473 22.8697 44.3582C21.9485 44.782 20.094 43.2634 20.0921 42.0834C20.0912 41.5141 19.758 41.3443 19.3583 41.7094C18.6679 42.3403 17.6523 42.6254 16.8614 42.4104C16.1445 42.2155 15.1401 41.2793 15.1416 40.8074C15.142 40.6834 15.6946 40.2935 16.3695 39.9411C17.5975 39.3 19.3297 37.5643 19.3297 36.9752C19.3297 36.4568 17.8657 35.9827 16.2414 35.9746C14.9044 35.9682 14.6858 35.9163 14.3791 35.5341C13.3995 34.3126 13.8884 32.445 15.4261 31.5349C15.8975 31.2559 16.2833 30.955 16.2833 30.8664C16.2833 30.7778 15.9271 30.4615 15.4914 30.1636C14.3482 29.3818 13.9478 28.7431 13.8614 27.5631C13.8039 26.7792 13.876 26.4023 14.1755 25.9209C14.3892 25.5773 14.6816 25.296 14.8252 25.296C14.9688 25.296 15.5596 25.5773 16.138 25.9209C17.1243 26.5069 17.1837 26.584 17.0936 27.1622C17.0409 27.5014 17.048 27.9109 17.1093 28.0722C17.2781 28.5166 17.7673 28.2213 17.904 27.5923C18.0697 26.8307 19.0723 25.9993 19.6487 26.1453C21.0805 26.5079 21.0434 26.5086 21.0434 26.1201C21.0434 25.7553 20.6041 25.4373 19.7816 25.2066C19.4823 25.1223 19.3435 24.8835 19.2494 24.2892C19.0478 23.016 18.5053 21.9946 17.5704 21.1288L16.7043 20.3262L17.1414 19.6767C17.3819 19.3194 17.9512 18.772 18.4065 18.4602C19.1391 17.9587 19.3848 17.8964 20.538 17.9208L21.8415 17.9483L21.7292 17.4401C21.2389 15.2219 21.4348 14.1274 22.4897 13.1922C23.4299 12.3585 24.3076 12.3829 25.0803 13.2641C25.4066 13.6363 25.7718 13.878 25.9209 13.8204C26.236 13.6983 26.2709 13.067 25.9729 12.8811C25.3943 12.52 26.5277 10.1685 27.6326 9.43742C28.6225 8.78234 29.479 8.64505 30.6052 8.96096ZM35.1313 10.9233C35.1258 12.7619 32.7964 15.5282 31.8453 14.8258C30.9902 14.1943 31.9342 11.6071 33.3681 10.6522C33.6581 10.459 34.1741 10.3004 34.5144 10.2998C35.0862 10.2986 35.133 10.3459 35.1313 10.9233ZM34.3788 11.155C34.2029 11.3688 33.9614 11.4381 33.6585 11.3613C33.2901 11.2679 33.2143 11.3137 33.2623 11.5998C33.2948 11.7945 33.1848 12.1654 33.0172 12.424C32.8499 12.6827 32.5275 13.2618 32.3007 13.7113C31.9624 14.3822 31.9399 14.5285 32.1749 14.5285C32.3324 14.5285 32.6836 14.0851 32.9555 13.5433C33.2274 13.0015 33.7537 12.277 34.125 11.9334C34.4965 11.59 34.7649 11.2017 34.7217 11.071C34.6657 10.9012 34.5675 10.9253 34.3788 11.155ZM27.9125 11.9499C27.5054 12.2958 27.3267 12.6184 27.3267 13.0074C27.3267 13.7356 27.6277 13.73 27.7724 12.999C27.9272 12.2173 28.7109 11.7109 29.3268 11.9943C29.8897 12.2533 30.165 11.9435 29.6294 11.654C29.0325 11.3315 28.5405 11.4163 27.9125 11.9499ZM19.7182 14.3401C20.3895 14.686 20.4722 14.8058 20.4722 15.4336V16.1386L19.9029 15.5879C19.5898 15.2851 19.2799 15.0915 19.2142 15.1578C19.024 15.3501 19.9617 16.429 20.3294 16.4407C20.8448 16.457 20.7229 16.8358 20.2022 16.8358C19.9489 16.8358 19.606 16.8883 19.4404 16.9525C19.0481 17.1046 18.3878 15.6824 18.3819 14.6727C18.377 13.8215 18.6026 13.7654 19.7182 14.3401ZM23.6492 17.4178C22.9148 17.6376 22.5542 17.9729 22.2431 18.7245C21.9255 19.4921 22.0748 20.1045 22.5793 20.1045C22.8467 20.1045 22.9474 19.9707 22.9474 19.6152C22.9474 19.0658 23.7166 18.1818 24.1945 18.1818C24.3665 18.1818 24.7551 18.3296 25.0582 18.5105C25.4405 18.7386 25.6702 18.7778 25.8078 18.6388C26.4411 17.9993 24.8025 17.0723 23.6492 17.4178ZM28.1307 18.2888C27.8979 18.4534 27.7075 18.713 27.7075 18.8657C27.7075 19.2377 27.8261 19.2156 28.2787 18.7586C28.8188 18.2131 29.3727 18.2812 30.0112 18.9712C30.4995 19.4992 30.5635 19.5231 30.5635 19.1774C30.5635 18.6701 29.7002 17.9895 29.057 17.9895C28.7802 17.9895 28.3634 18.1243 28.1307 18.2888ZM36.0717 19.0341C34.4117 19.4619 32.4622 20.9846 31.8571 22.3261C31.6176 22.8568 31.3643 22.9312 31.2071 22.517C31.0536 22.1136 29.3672 21.0659 28.871 21.0659C28.0405 21.0659 27.5976 23.243 28.1561 24.5811C28.2981 24.9214 28.7636 25.5405 29.1907 25.9572C29.8209 26.5719 29.9321 26.7809 29.7806 27.0666C29.5801 27.4448 29.6983 27.7956 30.026 27.7956C30.1368 27.7956 30.5205 27.536 30.8782 27.2187C31.7844 26.4152 32.5235 26.444 33.3367 27.3149C33.6823 27.685 34.0494 27.9878 34.1526 27.9878C34.4413 27.9878 34.5239 27.5517 34.3217 27.0957C34.1648 26.7419 34.2966 26.5254 35.263 25.5494C36.5115 24.2886 37.1648 23.0708 37.4639 21.4464C37.6815 20.2649 37.5425 19.0395 37.1749 18.8989C37.0467 18.8499 36.5503 18.9109 36.0717 19.0341ZM36.6031 20.9553C36.4496 22.4576 35.8718 23.6137 34.6663 24.831C33.8204 25.6855 33.5058 25.8863 33.0896 25.8374C32.6269 25.7834 32.5523 25.6717 32.4123 24.8239C32.2057 23.5716 32.5892 22.5522 33.6585 21.51C34.5243 20.6665 35.7636 19.9345 36.3499 19.9207C36.6722 19.9132 36.6987 20.0209 36.6031 20.9553ZM38.5604 20.0624C38.5604 20.1449 38.8291 20.3149 39.1575 20.44C39.7217 20.655 39.7489 20.7115 39.6503 21.4541C39.5774 22.0038 39.6124 22.2182 39.7672 22.1669C39.8889 22.1265 40.0143 21.7406 40.0461 21.3093C40.093 20.6731 40.022 20.4673 39.6705 20.2187C39.2168 19.8976 38.5604 19.8051 38.5604 20.0624ZM15.6803 20.9546C17.3695 21.821 18.3646 23.2319 18.3735 24.7732C18.3792 25.7705 17.9853 25.8739 16.7235 25.2067C14.9775 24.2836 13.2368 21.9471 13.2368 20.5264C13.2368 20.136 14.5242 20.3616 15.6803 20.9546ZM34.8613 21.8679C34.2777 22.6262 33.8004 23.1454 33.8004 23.0215C33.8004 22.8977 33.7147 22.7964 33.61 22.7964C33.5052 22.7964 33.4196 23.0708 33.4196 23.4061C33.4196 23.7414 33.276 24.1761 33.1004 24.3721C32.8798 24.6182 32.8423 24.7899 32.9788 24.9278C33.1155 25.0658 33.3937 24.7972 33.8794 24.0581C34.4136 23.2451 34.6941 22.9887 35.0481 22.9887C35.5523 22.9887 35.6389 22.8071 35.2988 22.4637C35.1387 22.302 35.2364 22.059 35.6796 21.5162C36.0073 21.1145 36.2756 20.7192 36.2756 20.6375C36.2756 20.2253 35.8205 20.6212 34.8613 21.8679ZM14.106 21.0455C14.0487 21.1393 14.2224 21.3622 14.4922 21.5406C14.959 21.8494 14.9657 21.8779 14.6333 22.1323C14.3143 22.3764 14.344 22.4001 14.9748 22.4057C15.7894 22.413 16.333 22.8804 15.7161 23.0433C15.1064 23.2044 15.269 23.5657 15.9501 23.5637C16.4183 23.5624 16.6929 23.7143 17.0778 24.1875C17.6767 24.9231 18.0146 24.7805 17.5118 24.0041C16.548 22.5164 14.3661 20.6208 14.106 21.0455ZM23.7229 21.5725C23.5058 21.8511 23.3282 22.1459 23.3282 22.2274C23.3282 22.3091 23.1582 22.3309 22.9504 22.2761C22.0074 22.0271 20.9063 22.9927 21.082 23.9148C21.1742 24.398 21.4714 24.3054 21.5525 23.7678C21.6374 23.2057 22.1372 22.6041 22.5192 22.6041C22.67 22.6041 23.0397 22.751 23.3406 22.9304C23.9468 23.2921 24.2776 23.1604 23.904 22.7058C23.7086 22.4682 23.7221 22.324 23.9765 21.9321C24.3326 21.3833 24.6964 21.3212 25.1098 21.7389C25.4697 22.1021 25.613 22.1042 25.613 21.7456C25.613 21.4158 25.0386 21.0659 24.4969 21.0659C24.2882 21.0659 23.9398 21.2939 23.7229 21.5725ZM30.7792 23.4478C31.3162 24.1875 31.7709 25.4188 31.6065 25.6872C31.2069 26.3406 29.7985 25.6624 29.2025 24.5299C28.863 23.8849 28.7198 22.4149 28.9717 22.1605C29.1877 21.9425 30.2208 22.6781 30.7792 23.4478ZM29.351 22.9477C29.2337 23.1394 30.1951 24.7776 30.5576 25.0039C31.0464 25.3088 30.9382 24.8931 30.2756 23.9191C29.4287 22.6743 29.4834 22.7316 29.351 22.9477ZM38.961 25.4717C38.553 25.7328 38.8413 26.1891 39.4982 26.3218C40.2868 26.481 40.6269 27.1997 40.3123 28.0415C40.1743 28.4108 40.1551 28.7137 40.2628 28.8225C40.5416 29.104 41.0233 28.8148 41.2415 28.2351C41.6332 27.1947 41.042 25.8928 39.9953 25.4909C39.3828 25.2558 39.3013 25.2542 38.961 25.4717ZM22.98 26.4033C21.6949 28.2261 22.2185 30.7901 24.253 32.6374L25.1989 33.4961L24.8151 34.1085C24.4164 34.7444 24.4598 35.2943 24.9085 35.2943C25.0512 35.2943 25.2865 35.0707 25.4314 34.7973C25.9232 33.869 27.2646 33.4735 28.0043 34.0384C28.2075 34.1937 28.5298 34.3235 28.7204 34.3268C29.3459 34.3379 29.0197 33.5079 28.2316 33.0831C27.6776 32.7845 27.518 32.5825 27.5176 32.1793C27.5157 30.2773 26.3341 27.9955 24.6584 26.6579C24.1174 26.226 23.6026 25.8728 23.5144 25.8728C23.4263 25.8728 23.1858 26.1116 22.98 26.4033ZM25.0205 28.2753C25.467 28.7642 25.9952 29.527 26.1945 29.9702C26.5656 30.7956 26.6997 32.688 26.4004 32.8749C26.0946 33.0656 24.4965 31.818 23.919 30.9375C23.2376 29.8989 23.0106 28.671 23.3231 27.7148C23.5946 26.8844 23.8185 26.9582 25.0205 28.2753ZM47.8449 28.0703C48.0084 28.2355 47.3195 29.1171 46.5094 29.7791C45.9856 30.2073 45.7023 30.3132 45.3317 30.2192C44.6105 30.0363 44.7318 29.8348 45.7957 29.4485C46.3216 29.2576 46.7478 28.9825 46.7478 28.8338C46.7478 28.4891 46.4762 28.4885 46.1937 28.8323C46.0726 28.9794 45.7967 29.1467 45.5802 29.2038C45.251 29.2907 45.2051 29.2392 45.2982 28.8881C45.3595 28.6573 45.4109 28.3051 45.4123 28.1053C45.4147 27.7777 45.528 27.7525 46.5724 27.848C47.2089 27.9065 47.7816 28.0063 47.8449 28.0703ZM23.7115 28.0359C23.7128 28.0622 23.9615 28.6031 24.2638 29.2376C24.6905 30.1329 24.7539 30.4051 24.547 30.4534C24.1431 30.5476 24.2263 30.7854 24.7471 31.025C25.0037 31.1433 25.3503 31.5061 25.5167 31.8312C25.6833 32.1566 25.8988 32.3733 25.9957 32.3129C26.0925 32.2525 25.9129 31.7201 25.5967 31.1298C25.1568 30.3088 25.0513 29.9196 25.1483 29.4739C25.2562 28.9784 25.2267 28.9102 24.9516 29.0169C24.7119 29.1098 24.5725 28.993 24.4125 28.565C24.2937 28.2476 24.087 27.9878 23.9529 27.9878C23.8187 27.9878 23.7101 28.0096 23.7115 28.0359ZM35.1332 29.3211C35.1332 29.4197 35.3601 29.528 35.6376 29.5614C36.3032 29.6416 36.6366 30.1675 36.3331 30.6584C36.0637 31.0939 36.2312 31.3407 36.5913 31.0391C36.9586 30.7312 36.9058 29.8319 36.4986 29.4597C36.128 29.1211 35.1332 29.02 35.1332 29.3211ZM18.9116 31.4373C18.3219 31.9056 18.1197 32.5901 18.3728 33.2622C18.65 33.9984 18.9257 33.8588 18.8212 33.0351C18.7185 32.2275 19.02 31.6799 19.6153 31.592C20.1447 31.514 20.2701 31.1725 19.7945 31.1039C19.579 31.0727 19.1816 31.2227 18.9116 31.4373ZM37.1324 32.4869C35.9519 32.8639 35.1707 33.3304 34.4776 34.0726C33.9207 34.6686 33.7906 34.7258 33.4314 34.5316C32.8994 34.2441 31.8011 34.3489 31.8011 34.6873C31.8011 34.8294 32.1427 35.0642 32.5603 35.2091C33.8238 35.6477 34.2769 36.6506 33.7002 37.732C33.431 38.2371 33.4047 38.4326 33.5823 38.612C33.9138 38.9468 34.4209 38.5695 34.6745 37.7993C34.878 37.1817 34.9072 37.1679 36.1025 37.1231C37.4201 37.0736 38.4214 36.7262 39.5835 35.9158C40.5126 35.2678 41.6069 33.8363 41.6069 33.2687C41.6069 32.3713 38.9487 31.9068 37.1324 32.4869ZM40.418 33.3385C40.7838 33.5731 39.5511 34.915 38.3771 35.5602C37.1853 36.2153 35.4272 36.4405 34.8624 36.0105C34.5014 35.7356 34.5016 35.7227 34.8691 35.0872C35.2596 34.412 36.0334 33.8674 37.2004 33.4464C37.9698 33.1689 40.0448 33.0993 40.418 33.3385ZM38.0368 34.143C37.2048 34.4416 37.0372 34.4554 37.0372 34.2251C37.0372 33.8299 36.7027 33.8826 36.5721 34.2983C36.5117 34.4906 36.1631 34.7921 35.7977 34.968C35.1941 35.2587 34.8101 35.8498 35.3712 35.6245C35.5022 35.5718 35.9856 35.3753 36.4454 35.1874C37.1301 34.908 37.3868 34.8861 37.8609 35.0669C38.5005 35.3107 38.7527 35.2193 38.4062 34.8694C38.2345 34.696 38.3152 34.5867 38.7522 34.4012C39.0656 34.2681 39.322 34.0686 39.322 33.9576C39.322 33.6996 39.239 33.7115 38.0368 34.143ZM13.563 36.0027C13.8183 36.3926 13.7993 36.4426 13.297 36.705C12.8277 36.95 12.6881 36.9512 12.2397 36.7141C11.6834 36.4197 11.2658 35.8108 11.4752 35.5991C11.5463 35.5275 11.983 35.4945 12.4463 35.5258C13.0613 35.5673 13.3621 35.6958 13.563 36.0027ZM17.5685 36.9537C18.1317 37.1061 18.11 37.2659 17.4173 38.0625C16.2822 39.3681 13.96 40.0878 12.1243 39.703L11.1045 39.4892L11.6203 38.9454C12.9623 37.5311 15.9747 36.5224 17.5685 36.9537ZM27.7551 37.4022C27.1486 37.7804 26.936 38.1785 27.3402 38.1785C27.4525 38.1785 27.6728 38.0487 27.8299 37.89C28.2878 37.4276 29.174 37.5276 29.5338 38.0823C29.7054 38.3467 29.9215 38.563 30.0142 38.563C30.5915 38.563 29.5563 37.2836 28.8499 37.124C28.5492 37.0561 28.1458 37.1586 27.7551 37.4022ZM45.966 37.5826C46.2912 37.8895 46.5574 38.24 46.5574 38.3615C46.5574 38.5609 45.461 39.1398 45.0834 39.1398C44.9047 39.1398 44.4652 37.382 44.5907 37.169C44.7725 36.8608 45.4012 37.0498 45.966 37.5826ZM14.2365 38.2188C12.5573 38.7987 11.8342 39.3173 13.0464 39.0725C13.3686 39.0075 13.6177 39.0389 13.6177 39.1446C13.6177 39.2477 13.7033 39.3321 13.8081 39.3321C13.9128 39.3321 13.9985 39.2108 13.9985 39.0625C13.9985 38.9143 14.2555 38.7024 14.5697 38.5918C15.0331 38.4286 15.1409 38.4432 15.1409 38.6691C15.1409 39.0729 15.4762 39.0108 15.6108 38.582C15.674 38.3811 15.937 38.1633 16.1949 38.0977C16.7315 37.9618 16.8317 37.5993 16.3309 37.6062C16.1475 37.6087 15.2052 37.8845 14.2365 38.2188ZM41.2712 38.2121C41.4578 38.703 40.7668 39.3938 40.108 39.375C39.4544 39.3561 39.3047 39.6242 39.8681 39.8047C40.2887 39.9395 41.0539 39.6771 41.3733 39.2887C41.7076 38.8818 41.7432 38.1394 41.4338 38.0292C41.2588 37.967 41.2023 38.0308 41.2712 38.2121ZM21.1768 38.3C21.1035 38.3742 21.0434 38.6411 21.0434 38.893C21.0434 40.4833 22.9727 41.6302 24.099 40.7092C24.7176 40.2035 24.4291 39.8957 23.4622 40.0295C22.5279 40.1589 22.0681 39.7978 21.9638 38.8532C21.9032 38.3048 21.4722 38.0018 21.1768 38.3ZM29.1734 40.9922C29.1003 41.0662 29.0403 41.276 29.0403 41.4587C29.0403 42.0619 28.046 42.2189 27.4834 41.7046C27.0013 41.2641 26.8013 41.5441 27.2448 42.0388C27.5378 42.3658 27.7469 42.4193 28.3701 42.3268C29.3253 42.1849 29.5161 42.1851 30.5056 42.3301C31.1932 42.4306 31.3722 42.3785 31.7908 41.9557C32.2798 41.462 32.4411 40.8703 32.0867 40.8703C31.982 40.8703 31.8963 40.9568 31.8963 41.0626C31.8963 41.4256 31.1345 42.024 30.6724 42.024C30.3842 42.024 30.0403 41.8048 29.7585 41.4408C29.5098 41.1203 29.2467 40.9184 29.1734 40.9922ZM37.4618 42.5943C38.1973 43.1786 38.4331 43.9712 38.3249 45.4971C38.2725 46.2381 38.1669 46.9064 38.0903 46.982C37.8394 47.2297 36.6623 45.634 36.3441 44.6145C35.9633 43.3947 36.1084 42.2163 36.6393 42.2163C36.8299 42.2163 37.2 42.3864 37.4618 42.5943ZM36.7651 43.0107C36.8468 43.2611 37.0509 44.0452 37.2185 44.7529C37.6056 46.3873 37.8839 46.6726 37.7447 45.2927C37.6113 43.9681 37.2124 42.7529 36.8744 42.6408C36.6806 42.5766 36.6534 42.6685 36.7651 43.0107ZM24.6568 45.2446C25.0607 45.6355 25.2195 45.9906 25.2654 46.6059C25.3272 47.435 25.3231 47.441 24.2357 48.0891C23.1627 48.7286 23.1403 48.7331 22.9343 48.3443C22.8189 48.1268 22.7814 47.72 22.8509 47.4406C22.9617 46.9947 22.9998 46.9734 23.1622 47.2662C23.4451 47.7767 23.6854 47.6644 23.6675 47.0299C23.6587 46.7163 23.7606 46.3269 23.8939 46.1646C24.0946 45.9205 24.0845 45.8695 23.8352 45.8695C23.4131 45.8695 22.6275 46.7557 22.0561 47.8763C21.5264 48.9151 21.2111 51.061 21.5881 51.061C21.7075 51.061 21.805 50.8921 21.805 50.6858C21.805 50.0509 22.209 48.3691 22.3613 48.3691C22.5605 48.3691 22.948 49.2657 22.8094 49.4058C22.7475 49.4683 22.571 49.4139 22.4173 49.2851C22.1761 49.083 22.1559 49.1599 22.2705 49.8444C22.3737 50.461 22.3137 50.8156 22.0017 51.4332C21.5394 52.3482 21.3248 52.3088 21.0445 51.2571C20.8918 50.6847 20.915 50.1646 21.1429 49.0503C21.4215 47.6882 21.4192 47.5546 21.1077 47.0222C20.7858 46.4717 20.7878 46.4338 21.1662 45.9204C21.4796 45.4953 21.7534 45.3686 22.5337 45.2879C23.0702 45.2323 23.6142 45.0808 23.7423 44.9514C24.0489 44.6418 24.0268 44.6349 24.6568 45.2446ZM33.3424 45.5811C33.7282 45.8455 34.2832 46.0618 34.5757 46.0618C35.3144 46.0618 35.4946 46.6951 34.9626 47.4219C34.4925 48.0639 34.4692 48.3368 34.8253 49.0299C35.1408 49.6441 34.9611 50.6868 34.4116 51.4307C33.7663 52.3046 33.482 52.1723 33.3278 50.9264C33.2132 49.999 33.066 49.6754 32.4544 49.0053C31.6237 48.0953 31.3872 47.4323 31.6897 46.8615C31.8034 46.6471 31.8963 46.2808 31.8963 46.0475C31.8963 45.7188 32.3226 45.1502 32.602 45.1065C32.6235 45.1031 32.9567 45.3167 33.3424 45.5811ZM32.6012 45.7985C32.5351 45.8655 32.5698 46.0875 32.6781 46.2923C32.8263 46.5717 32.7971 46.7849 32.561 47.1489C32.1705 47.7507 32.3379 47.9705 32.8383 47.5131C33.1989 47.1835 33.2154 47.1893 33.3396 47.6886C33.4142 47.9891 33.3782 48.2954 33.2533 48.4216C32.931 48.7471 32.994 48.9459 33.4196 48.9459C33.7581 48.9459 33.8004 49.0742 33.8004 50.0996C33.8004 50.9969 33.8638 51.2532 34.086 51.2532C34.708 51.2532 34.1743 47.9895 33.308 46.4971C32.8023 45.6255 32.7872 45.6107 32.6012 45.7985ZM30.9443 46.2687C30.9443 46.4688 30.6035 46.8042 29.6115 47.5798C29.1896 47.9097 29.1401 48.0795 29.1759 49.0753L29.2164 50.1986L28.657 50.1971C28.1252 50.1957 27.831 50.5533 28.328 50.597C28.939 50.6508 29.0403 50.6895 29.0403 50.8687C29.0403 51.1873 27.9693 51.085 27.5281 50.7241C27.134 50.4018 27.129 50.3563 27.4118 49.6727C27.8958 48.5033 27.8036 48.0541 26.9647 47.4937C26.5561 47.2206 26.1816 46.8414 26.1323 46.6513C26.0498 46.3327 26.1736 46.3125 27.6842 46.3967C28.5871 46.4471 29.6258 46.4002 29.9923 46.2925C30.8843 46.03 30.9443 46.0285 30.9443 46.2687Z" fill="#D4D9B9"/>
</svg>
