<svg width="60" height="60" viewBox="0 0 60 60" fill="none" xmlns="http://www.w3.org/2000/svg">
<circle cx="30" cy="24" r="16.5" stroke="#D4D9B9"/>
<path d="M30 51V40" stroke="#D4D9B9"/>
<path d="M24 45.5H36" stroke="#D4D9B9"/>
<path d="M29.4007 29.8002C30.1556 32.6337 28.8678 33.6872 26.6641 35.4946L26.1525 35.9122C26.0804 35.9821 25.9777 36.0124 25.8759 35.9954C25.7436 35.9736 25.6419 35.8688 25.6113 35.7431C25.381 34.9684 25.5854 33.4094 26.3403 32.0253C26.9028 30.9983 27.7641 30.0534 28.9705 29.5744C28.9788 29.5697 28.9872 29.5659 29.0001 29.5659L29.0214 29.5574H29.026C29.0603 29.5527 29.0982 29.5527 29.1324 29.5574H29.1454L29.15 29.5621H29.1666L29.1713 29.5669H29.1842L29.1888 29.5716H29.1972L29.2018 29.5763H29.2064L29.2111 29.581H29.2194L29.224 29.5858H29.2286L29.2333 29.5905H29.2379L29.2425 29.5952L29.2471 29.5999H29.2555V29.6047H29.2601L29.2647 29.6094H29.2693V29.6141H29.2777V29.6188H29.2823V29.6236C29.2989 29.6368 29.3165 29.65 29.3295 29.6623L29.3341 29.667C29.3507 29.6888 29.3637 29.7058 29.3767 29.7284L29.3813 29.7332V29.7379C29.3859 29.7464 29.3942 29.7596 29.3979 29.7728V29.7813L29.4026 29.7898V29.7946L29.4072 29.8078L29.4007 29.8002ZM24.6187 17.119C24.6187 17.2711 24.6316 17.4242 24.6566 17.5716C24.7075 17.8588 24.8102 18.1422 24.9637 18.4115L24.9721 18.4285C25.121 18.6893 25.3088 18.916 25.5262 19.1031C25.6409 19.1985 25.7603 19.2864 25.8843 19.3639C25.8843 19.2117 25.8713 19.0634 25.8463 18.9113C25.7954 18.6241 25.6974 18.3368 25.5438 18.0714C25.3902 17.8011 25.1987 17.5706 24.9813 17.3788C24.8666 17.2834 24.7473 17.1955 24.6187 17.118V17.119ZM24.0173 17.6897C23.9489 17.3108 23.9489 16.9281 24.009 16.5625C24.0136 16.5408 24.022 16.519 24.0257 16.5011C24.0895 16.3272 24.2773 16.2403 24.4475 16.3055C24.7926 16.4359 25.1164 16.6277 25.4023 16.8714C25.6752 17.1105 25.9176 17.4024 26.1054 17.7378C26.2969 18.077 26.4255 18.4342 26.4893 18.796C26.5531 19.1749 26.5531 19.5575 26.4939 19.9232C26.4893 19.9449 26.4856 19.9666 26.4773 19.9846C26.4134 20.1584 26.2256 20.2454 26.0591 20.1802C25.714 20.0498 25.3902 19.858 25.1044 19.6142C24.8361 19.379 24.5974 19.0965 24.4096 18.7658L24.3966 18.7488C24.2088 18.4134 24.0812 18.0525 24.0173 17.6906V17.6897ZM36.4429 16.5625C36.5067 16.9281 36.5067 17.3108 36.4382 17.6897C36.3744 18.0506 36.2467 18.4077 36.0589 18.7478C35.8674 19.0832 35.6287 19.3742 35.3512 19.6142C35.0653 19.858 34.7415 20.0498 34.3964 20.1802C34.2262 20.2454 34.0384 20.1584 33.9783 19.9846C33.97 19.9676 33.9653 19.9459 33.9616 19.9232C33.9015 19.5575 33.9015 19.1749 33.9663 18.796C34.0301 18.4351 34.1578 18.078 34.3456 17.7378C34.5371 17.4024 34.7804 17.1114 35.0533 16.8714C35.3392 16.6277 35.663 16.4359 36.008 16.3055C36.1783 16.2403 36.3661 16.3272 36.4299 16.5011C36.4345 16.5181 36.4382 16.5398 36.4429 16.5625ZM35.7953 17.5725C35.8249 17.4204 35.8378 17.272 35.8378 17.1199C35.7101 17.1983 35.5908 17.2853 35.4752 17.3807C35.2577 17.5725 35.0662 17.803 34.9127 18.0732C34.7591 18.3435 34.661 18.626 34.6102 18.9132C34.5842 19.0653 34.5722 19.2136 34.5676 19.3657C34.6953 19.2873 34.8146 19.2004 34.9303 19.105C35.1477 18.9132 35.3392 18.6826 35.4927 18.4124C35.6463 18.1422 35.7444 17.8597 35.7953 17.5725ZM29.6699 12.2438C29.7078 12.1049 29.8364 12 29.9854 12C30.1343 12 30.262 12.1049 30.3009 12.2438C30.5266 12.9184 30.7866 13.541 31.0428 14.1636C32.4028 17.4327 33.7498 20.6762 30.2925 29.3392C30.2796 29.3874 30.25 29.4308 30.2157 29.4658C30.1556 29.5272 30.0751 29.5612 29.9854 29.5612C29.9169 29.5612 29.8577 29.5442 29.8059 29.5092L29.8013 29.5045H29.7967C29.7412 29.4658 29.6986 29.4044 29.6727 29.3392C26.2201 20.6762 27.5671 17.4336 28.9224 14.1636C29.1824 13.541 29.4423 12.9184 29.6681 12.2438H29.6699ZM30.3138 14.1069V27.4316C32.8626 20.2529 31.6608 17.3495 30.4461 14.4244L30.3138 14.1069ZM29.657 27.4316V14.1069L29.5247 14.4244C28.31 17.3495 27.1082 20.2529 29.657 27.4316ZM39.1665 30.7488C38.3357 30.5533 37.5465 30.2745 36.7666 30.0043C35.4113 29.5338 34.0939 29.0775 32.7127 29.103C34.6777 30.8745 37.1413 30.9746 39.1665 30.7488ZM33.7535 28.4936C34.8488 28.6325 35.9016 28.9981 36.9757 29.3732C37.8833 29.6906 38.8084 30.009 39.7807 30.1961C39.3848 30.0043 39.0175 29.8172 38.6678 29.6434C36.7842 28.6948 35.526 28.059 33.7535 28.4945V28.4936ZM31.8394 28.52C34.8747 26.9875 36.3661 27.7406 38.9574 29.0472C39.7632 29.4516 40.6791 29.9136 41.7966 30.3794C41.9631 30.4493 42.0436 30.6402 41.9761 30.815C41.9289 30.9321 41.8225 31.0105 41.7032 31.02L41.1194 31.1249C38.6771 31.5604 34.6361 32.2738 31.733 29.0567L31.7283 29.0519L31.7237 29.0472L31.7191 29.0425L31.7061 29.0255L31.7015 29.0208V29.016L31.6969 29.0113L31.6923 29.0066V29.0019L31.6876 28.9971L31.683 28.9886L31.6784 28.9839V28.9792L31.6738 28.9745L31.6691 28.966V28.9575L31.6645 28.9527L31.6599 28.9442V28.9357H31.6553V28.9272L31.6506 28.9225V28.914L31.646 28.9055V28.897C31.6414 28.8885 31.6414 28.88 31.6414 28.8705V28.862L31.6368 28.8535V28.845V28.8365V28.828V28.8195V28.811V28.7978L31.6414 28.7893V28.7808V28.7723V28.7638L31.646 28.7506V28.7458L31.6506 28.7411C31.6636 28.6929 31.6849 28.6495 31.7145 28.6107L31.7191 28.606L31.7237 28.6013L31.7367 28.588V28.5833H31.7413L31.7459 28.5786L31.7506 28.5739H31.7552V28.5691H31.7598V28.5644L31.7681 28.5597V28.555H31.7765V28.5503H31.7811V28.5455H31.7894V28.5408H31.794V28.5361H31.8024V28.5314H31.807L31.8116 28.5266H31.8162L31.8209 28.5219H31.8255V28.5172H31.8338L31.8384 28.5125L31.8394 28.52ZM39.7206 19.7786C38.6336 21.5549 37.5641 22.4383 36.4382 23.3699C35.415 24.2098 34.3456 25.0941 33.1734 26.7608C34.8655 26.2383 38.3782 24.7323 39.7206 19.7786ZM32.9514 25.9473C34.0514 24.48 35.0616 23.6486 36.0293 22.8521C37.0349 22.0207 37.9943 21.228 38.9574 19.7484C38.493 20.0621 37.9897 20.3361 37.4698 20.6148C35.6667 21.5898 33.697 22.6565 32.9514 25.9473ZM37.1672 20.0271C38.3903 19.3657 39.5374 18.7469 40.1508 17.5413V17.5366L40.1554 17.5319L40.1601 17.5271L40.1647 17.5139V17.5092L40.1693 17.5045L40.1739 17.496L40.1786 17.4875L40.1832 17.4827L40.1878 17.478V17.4733H40.1924V17.4686L40.1971 17.4638V17.4591H40.2017V17.4544H40.2063V17.4497L40.2109 17.4449L40.2156 17.4402V17.4355L40.2202 17.4308L40.2285 17.426L40.2331 17.4213L40.2378 17.4166V17.4119H40.2424L40.247 17.4072L40.2516 17.4024L40.2563 17.3977H40.2609L40.2655 17.393L40.2738 17.3883V17.3835H40.2785L40.2868 17.3788L40.2914 17.3741L40.296 17.3694H40.3007C40.3516 17.3391 40.4117 17.3212 40.4755 17.3212L40.4968 17.3259H40.5181L40.5227 17.3306C40.5653 17.3391 40.6078 17.3571 40.642 17.3788H40.6467L40.6513 17.3835L40.6643 17.392V17.3968L40.6726 17.4015L40.6772 17.4062L40.6818 17.4109L40.6902 17.4157L40.6948 17.4242L40.6994 17.4289L40.7077 17.4336L40.7124 17.4421L40.7207 17.4553L40.7253 17.4601L40.7383 17.4733L40.7429 17.4818L40.7475 17.4865C40.7771 17.5432 40.7947 17.6037 40.7947 17.6736L40.7901 17.6868V17.7038C39.8483 25.6705 34.2429 27.1718 32.7506 27.5724C32.6479 27.5988 32.5711 27.6206 32.5073 27.6376C32.4907 27.6461 32.4694 27.6461 32.4481 27.6508H32.363L32.3547 27.6461H32.338L32.3334 27.6413H32.3251L32.2992 27.6328L32.2945 27.6281H32.2862L32.2816 27.6234H32.277L32.2557 27.6102L32.2474 27.6054L32.239 27.6007L32.2344 27.596L32.2214 27.5875L32.2131 27.5828L32.2085 27.578H32.2039L32.1992 27.5695H32.1946V27.5648L32.19 27.5601H32.1854L32.1807 27.5554V27.5506H32.1761L32.1715 27.5459V27.5412H32.1669V27.5365L32.1622 27.5317H32.1576V27.527L32.153 27.5223L32.1484 27.5176L32.1437 27.5129V27.5081L32.1391 27.5034L32.1345 27.4987V27.494L32.1299 27.4892L32.1252 27.4845V27.4798L32.1206 27.4751L32.116 27.4703V27.4656L32.1114 27.4609L32.1067 27.4477V27.4429L32.1021 27.4382C32.0975 27.425 32.0892 27.408 32.0855 27.39C32.0808 27.3598 32.0771 27.3296 32.0771 27.2984V27.2899V27.2729L32.0818 27.2644C32.5721 22.4931 34.9848 21.1873 37.1709 20.0073L37.1672 20.0271ZM20.2196 29.9656C21.191 29.7785 22.1162 29.4611 23.0247 29.1427C24.0987 28.7685 25.1515 28.4029 26.2469 28.263C24.4734 27.8275 23.2115 28.4633 21.3326 29.4119C20.9829 29.5858 20.6165 29.7728 20.2196 29.9646V29.9656ZM27.2868 28.8734C25.9055 28.8469 24.5881 29.3042 23.2328 29.7747C22.4529 30.0449 21.6638 30.3237 20.833 30.5192C22.8581 30.7413 25.3218 30.6458 27.2868 28.8734ZM21.0421 28.8167C23.6334 27.511 25.1256 26.7579 28.1601 28.2895L28.1647 28.2942H28.173V28.2989H28.1814V28.3037H28.186L28.1906 28.3084H28.1952V28.3131H28.2036V28.3178H28.2082L28.2128 28.3226H28.2175V28.3273H28.2221L28.2267 28.332H28.2313V28.3367L28.2397 28.3415V28.3462H28.2443L28.2489 28.3509H28.2535V28.3556L28.2582 28.3603H28.2628V28.3651L28.2757 28.3783L28.2804 28.383L28.285 28.3877C28.3146 28.4265 28.3359 28.4709 28.3488 28.5181L28.3534 28.5229V28.5399H28.3581V28.5484V28.5569V28.5654L28.3627 28.5701V28.5871V28.5956V28.6041V28.6126V28.6211V28.6296L28.3581 28.6381V28.6466L28.3534 28.6731V28.6816L28.3488 28.6863V28.6995L28.3442 28.7043V28.709L28.3396 28.7137V28.7222L28.3349 28.7269V28.7317L28.3303 28.7364V28.7449L28.3257 28.7534L28.3211 28.7581V28.7628L28.3164 28.7676L28.3118 28.7761L28.3072 28.7808V28.7855L28.3026 28.7902L28.2979 28.795V28.7997L28.2933 28.8044L28.2804 28.8214L28.2757 28.8261H28.2711V28.8309L28.2665 28.8356C25.3597 32.0574 21.3104 31.3346 18.868 30.8991L18.2972 30.7989C18.1779 30.7857 18.0715 30.712 18.0243 30.5939C17.9558 30.42 18.0372 30.2282 18.2038 30.1583C19.3204 29.6925 20.2372 29.2315 21.043 28.8261L21.0421 28.8167ZM21.0079 19.7493C21.9756 21.2299 22.9349 22.0216 23.9405 22.853C24.9082 23.6495 25.9139 24.481 27.0185 25.9482C26.2728 22.6575 24.3032 21.5908 22.5001 20.6157C21.9802 20.337 21.4769 20.063 21.0079 19.7493ZM26.7964 26.7627C25.6243 25.0951 24.5502 24.2117 23.5316 23.3717C22.402 22.4402 21.3363 21.5568 20.2492 19.7805C21.5916 24.7342 25.1044 26.2402 26.7964 26.7627ZM19.8144 17.5375L19.8191 17.5423C20.4324 18.7478 21.5796 19.3667 22.8026 20.0281C24.9896 21.2081 27.4015 22.5139 27.8918 27.2852L27.8964 27.2937V27.3107V27.3192C27.8964 27.3494 27.8918 27.3806 27.8881 27.4108H27.8835C27.8789 27.4278 27.8752 27.4458 27.8705 27.459L27.8659 27.4637V27.4684L27.8576 27.4817V27.4902L27.8529 27.4949L27.8483 27.4996V27.5043L27.8437 27.5091L27.8391 27.5138V27.5185L27.8344 27.5232L27.8298 27.528V27.5327L27.8252 27.5374H27.8206V27.5421L27.8159 27.5469V27.5516H27.8113L27.8067 27.5563V27.561H27.8021V27.5658L27.7974 27.5705H27.7928V27.5752L27.7882 27.5799H27.7836L27.7789 27.5847V27.5894H27.7743L27.766 27.5979L27.7614 27.6026L27.753 27.6073L27.7401 27.6158L27.7318 27.6206L27.7271 27.6253L27.7188 27.63L27.6975 27.6432H27.6892V27.648H27.6809L27.6762 27.6527L27.6503 27.6612H27.642L27.6374 27.6659H27.6207L27.6124 27.6706H27.519L27.4977 27.6659H27.4931L27.4847 27.6612H27.4718V27.6565H27.4672C27.4033 27.6395 27.3219 27.6177 27.2239 27.5913C25.7279 27.1907 20.1271 25.6894 19.1844 17.7227V17.7142L19.1798 17.7095V17.6925C19.1798 17.6226 19.1964 17.5621 19.227 17.5054L19.2316 17.5007L19.2362 17.4922L19.2445 17.479H19.2492L19.2538 17.4742L19.2621 17.461L19.2667 17.4525L19.2714 17.4478L19.2797 17.4431L19.2843 17.4346L19.289 17.4298L19.2973 17.4251L19.3019 17.4204L19.3102 17.4157V17.4109L19.3232 17.4024L19.3278 17.3977H19.3324C19.3667 17.376 19.4092 17.359 19.4518 17.3495L19.4564 17.3448H19.4777L19.499 17.3401C19.5628 17.3401 19.6229 17.3571 19.6738 17.3883H19.6784L19.6831 17.393L19.6877 17.3977L19.696 17.4024H19.7006V17.4072L19.709 17.4119L19.7136 17.4166H19.7182L19.7228 17.4213L19.7275 17.426L19.7321 17.4308L19.7367 17.4355L19.7413 17.4402L19.746 17.4449L19.7506 17.4497L19.7552 17.4544L19.7598 17.4591V17.4638H19.7645V17.4686L19.7691 17.4733L19.7737 17.478L19.7783 17.4827L19.783 17.4875V17.4922H19.7876V17.4969L19.7922 17.5016L19.7969 17.5064L19.8015 17.5149L19.8061 17.5234L19.8107 17.5281V17.5328L19.8154 17.546L19.82 17.5508V17.5555L19.8144 17.5375ZM40.2831 26.4263C40.0823 26.6748 39.8353 26.8921 39.5587 27.0622C39.2858 27.2275 38.9833 27.3494 38.6595 27.4146C38.3311 27.4798 38.0073 27.4845 37.6964 27.4363L37.6881 27.4316C37.368 27.3796 37.0655 27.2748 36.7842 27.1179C36.627 27.031 36.5714 26.826 36.6566 26.6654C36.6649 26.6483 36.6778 26.6266 36.6945 26.6087C36.8952 26.3602 37.1423 26.1429 37.4189 25.9728C37.6918 25.8075 37.9943 25.6856 38.3181 25.6204C38.6465 25.5552 38.9703 25.5505 39.2812 25.6034H39.2895C39.6096 25.6554 39.9121 25.764 40.1934 25.9171C40.3506 26.004 40.4061 26.209 40.321 26.3696C40.3127 26.3914 40.2997 26.4084 40.2831 26.4263ZM39.222 26.4915C39.3071 26.4395 39.3839 26.3866 39.4606 26.3262C39.3709 26.2997 39.2812 26.278 39.1924 26.2648L39.1794 26.26C38.9407 26.2251 38.6937 26.2251 38.4421 26.277C38.1904 26.3252 37.9601 26.4159 37.7519 26.5425C37.6705 26.5945 37.5946 26.6512 37.5179 26.7079C37.6076 26.7343 37.6973 26.7561 37.7861 26.7731H37.7991C38.0378 26.8118 38.2848 26.808 38.5364 26.7561C38.7881 26.7079 39.0184 26.6172 39.2229 26.4906L39.222 26.4915ZM20.5092 26.3262C20.586 26.3876 20.6628 26.4395 20.7433 26.4915C20.9523 26.6181 21.1827 26.7088 21.4334 26.757C21.6851 26.809 21.9321 26.8137 22.1708 26.774H22.1837C22.2734 26.757 22.3632 26.7353 22.452 26.7088C22.3752 26.6521 22.2984 26.5954 22.2133 26.5435C22.0089 26.4169 21.7785 26.3262 21.5269 26.278C21.2752 26.226 21.0282 26.226 20.7895 26.261L20.7766 26.2657C20.6868 26.2789 20.5971 26.3007 20.5083 26.3271L20.5092 26.3262ZM20.4111 27.0622C20.1345 26.8921 19.8866 26.6748 19.6868 26.4263C19.6701 26.4093 19.6572 26.3914 19.6488 26.3696C19.5637 26.209 19.6192 26.004 19.7765 25.9171C20.0577 25.765 20.3603 25.6563 20.6804 25.6034H20.6887C20.9995 25.5514 21.3243 25.5552 21.6518 25.6204C21.9756 25.6856 22.2781 25.8075 22.551 25.9728C22.8276 26.1429 23.0755 26.3602 23.2754 26.6087C23.292 26.6257 23.305 26.6474 23.3133 26.6654C23.3984 26.826 23.3429 27.031 23.181 27.1179C22.9044 27.2748 22.6009 27.3787 22.2818 27.4316L22.2734 27.4363C21.9626 27.4845 21.6379 27.4798 21.3104 27.4146C20.9866 27.3494 20.6841 27.2275 20.4111 27.0622ZM23.8591 33.3782C23.9183 33.3612 23.9738 33.3433 24.034 33.3215C24.2088 33.2564 24.3754 33.1609 24.5114 33.0211C24.639 32.8945 24.7334 32.7386 24.7972 32.5685C24.8315 32.4948 24.8564 32.4117 24.8786 32.3333C24.8194 32.3465 24.7593 32.3635 24.6992 32.3852C24.5197 32.4504 24.3541 32.5459 24.2172 32.681C24.0932 32.8076 24.0044 32.9635 23.9405 33.1335C23.9063 33.212 23.8804 33.2941 23.8591 33.3773V33.3782ZM24.2514 33.9489C23.9998 34.0443 23.7398 34.0925 23.4928 34.1142C23.4715 34.119 23.4502 34.119 23.4289 34.1142C23.2495 34.0972 23.1181 33.9357 23.1347 33.7533C23.1607 33.4708 23.2199 33.1704 23.3309 32.8869C23.4289 32.6385 23.5649 32.4041 23.7574 32.2123C23.9664 31.9988 24.2181 31.8552 24.4864 31.7598C24.7334 31.6681 24.998 31.6209 25.245 31.5992C25.2663 31.5944 25.2875 31.5944 25.3088 31.5992C25.4883 31.6162 25.6197 31.7777 25.603 31.9601C25.5771 32.2388 25.5133 32.5392 25.4023 32.8217C25.3042 33.0702 25.1636 33.3045 24.9758 33.4963C24.7667 33.7099 24.5151 33.8535 24.2514 33.9489ZM36.4762 34.1142C36.2291 34.0925 35.9646 34.0443 35.7175 33.9489C35.453 33.8535 35.2022 33.7099 34.9932 33.4963C34.8054 33.3045 34.6647 33.0693 34.5667 32.8217C34.452 32.5392 34.3918 32.2388 34.3659 31.9601C34.3493 31.7768 34.4806 31.6162 34.6601 31.5992C34.6814 31.5944 34.7027 31.5944 34.7239 31.5992C34.971 31.6209 35.2309 31.6691 35.4826 31.7598C35.7471 31.8552 36.0025 31.9988 36.2116 32.2123C36.3994 32.4041 36.54 32.6394 36.6334 32.8869C36.7481 33.1694 36.8037 33.4699 36.8296 33.7533C36.8462 33.9366 36.7185 34.0972 36.54 34.1142C36.5187 34.119 36.4974 34.119 36.4762 34.1142ZM35.9349 33.3215C35.9905 33.3433 36.0497 33.3603 36.1098 33.3782C36.0885 33.2951 36.0626 33.2129 36.0284 33.1345C35.9646 32.9644 35.8748 32.8076 35.7518 32.6819C35.6158 32.5468 35.4493 32.4514 35.2698 32.3862C35.2106 32.3692 35.1504 32.3474 35.0903 32.3342C35.1116 32.4126 35.1375 32.4948 35.1671 32.5695C35.2355 32.7395 35.329 32.8964 35.453 33.022C35.5889 33.1609 35.7555 33.2573 35.9349 33.3225V33.3215ZM34.3539 35.7507C34.3243 35.8725 34.2216 35.9727 34.0939 35.9944C33.9912 36.0114 33.8895 35.9812 33.8173 35.9113L33.3057 35.4937C31.102 33.6872 29.8142 32.6337 30.5692 29.7993L30.5738 29.7823L30.5784 29.7738V29.7653C30.583 29.7521 30.5914 29.7388 30.5951 29.7303V29.7256L30.5997 29.7209C30.6126 29.6991 30.6256 29.6821 30.6422 29.6595L30.6469 29.6547C30.6598 29.6415 30.6765 29.6283 30.6894 29.616L30.694 29.6113H30.6987V29.6066H30.7033L30.7079 29.6018H30.7125V29.5971H30.7209V29.5924H30.7292L30.7338 29.5877L30.7385 29.5829H30.7431L30.7477 29.5782H30.7523L30.757 29.5735H30.7653L30.7699 29.5688H30.7745L30.7792 29.564H30.7875L30.7921 29.5593H30.8051L30.8097 29.5546H30.8226L30.8273 29.5499H30.8439C30.8781 29.5451 30.9161 29.5451 30.9503 29.5499L30.9762 29.5584C30.9845 29.5584 30.9975 29.5631 31.0058 29.5669C32.2122 30.0459 33.0735 30.9907 33.6314 32.0177C34.39 33.4066 34.5991 34.9731 34.3604 35.744L34.3539 35.7507ZM33.3483 34.6755C33.0411 34.0878 32.5934 33.5568 32.1548 33.039C31.7459 32.5563 31.3407 32.0772 31.0419 31.5548C31.1871 32.8 32.0568 33.6097 33.3483 34.6764V34.6755ZM31.2852 30.4484C31.486 31.2278 32.0614 31.9062 32.6489 32.6035C33.0023 33.0211 33.3603 33.4482 33.6591 33.9092C33.5398 33.4085 33.339 32.869 33.0578 32.3512C32.6489 31.6029 32.0642 30.9019 31.2843 30.4493L31.2852 30.4484ZM26.3061 33.9092C26.6086 33.4482 26.9667 33.0211 27.321 32.6035C27.9094 31.9072 28.4802 31.2278 28.6846 30.4484C27.9048 30.9009 27.321 31.602 26.9112 32.3503C26.6299 32.868 26.4292 33.4085 26.3061 33.9083V33.9092ZM28.928 31.5538C28.6254 32.0763 28.2249 32.5553 27.8113 33.0381C27.3765 33.5559 26.9287 34.0868 26.6225 34.6745C27.9094 33.6078 28.7836 32.7981 28.9289 31.5529L28.928 31.5538Z" fill="#D4D9B9"/>
</svg>
