<svg width="60" height="60" viewBox="0 0 60 60" fill="none" xmlns="http://www.w3.org/2000/svg">
<circle cx="30" cy="25" r="16.5" stroke="#D4D9B9"/>
<path d="M30 52V42" stroke="#D4D9B9" stroke-linecap="round"/>
<path d="M24 46.5H36" stroke="#D4D9B9" stroke-linecap="round"/>
<path d="M21.23 21.95H21.56L24.51 29.01H23.64L22.7 26.8H20.09L19.17 29.01H18.3L21.23 21.95ZM21.53 23.92L21.45 23.66L21.39 23.43L21.32 23.65L21.24 23.92L20.4 26.06H22.38L21.53 23.92Z" fill="#D4D9B9"/>
<path d="M27.1166 29.1C26.5766 29.1 26.1033 28.98 25.6966 28.74C25.29 28.4933 24.9766 28.1567 24.7566 27.73C24.5366 27.3033 24.4266 26.8267 24.4266 26.3V22.14H25.2466V26.3C25.2466 26.7133 25.3266 27.0767 25.4866 27.39C25.6466 27.7033 25.8666 27.9467 26.1466 28.12C26.4333 28.2867 26.7633 28.37 27.1366 28.37C27.71 28.37 28.1666 28.18 28.5066 27.8C28.8533 27.42 29.0266 26.92 29.0266 26.3V22.14H29.8466V26.3C29.8466 26.8533 29.73 27.3433 29.4966 27.77C29.2633 28.19 28.94 28.5167 28.5266 28.75C28.1133 28.9833 27.6433 29.1 27.1166 29.1Z" fill="#D4D9B9"/>
<path d="M32.0672 22.9H29.7972V22.14H35.1572V22.9H32.8872V29.01H32.0672V22.9Z" fill="#D4D9B9"/>
<path d="M37.9901 29.22C37.3301 29.2133 36.7367 29.06 36.2101 28.76C35.6901 28.4533 35.2801 28.04 34.9801 27.52C34.6867 26.9933 34.5401 26.4 34.5401 25.74V25.45C34.5401 24.8167 34.6901 24.2367 34.9901 23.71C35.2967 23.1767 35.7101 22.7567 36.2301 22.45C36.7567 22.1367 37.3301 21.98 37.9501 21.98C38.5767 21.98 39.1501 22.1367 39.6701 22.45C40.1901 22.7567 40.6034 23.1767 40.9101 23.71C41.2167 24.2367 41.3701 24.8167 41.3701 25.45V25.74C41.3701 26.4 41.2201 26.9967 40.9201 27.53C40.6267 28.0633 40.2234 28.48 39.7101 28.78C39.1967 29.08 38.6234 29.2267 37.9901 29.22ZM37.9601 28.46C38.4467 28.46 38.8867 28.3433 39.2801 28.11C39.6734 27.87 39.9834 27.5433 40.2101 27.13C40.4367 26.7167 40.5501 26.2533 40.5501 25.74V25.45C40.5501 24.9633 40.4334 24.5133 40.2001 24.1C39.9667 23.68 39.6501 23.35 39.2501 23.11C38.8567 22.8633 38.4201 22.74 37.9401 22.74C37.4667 22.74 37.0334 22.8633 36.6401 23.11C36.2467 23.35 35.9334 23.68 35.7001 24.1C35.4734 24.5133 35.3601 24.9633 35.3601 25.45V25.74C35.3601 26.2533 35.4734 26.7167 35.7001 27.13C35.9267 27.5433 36.2367 27.87 36.6301 28.11C37.0301 28.3433 37.4734 28.46 37.9601 28.46Z" fill="#D4D9B9"/>
</svg>
