<svg width="60" height="60" viewBox="0 0 60 60" fill="none" xmlns="http://www.w3.org/2000/svg">
<path d="M21 27C22.2368 26.7751 24.1259 25.898 24.7331 24M24.5 20.5C25.0206 21.9317 25.026 23.0846 24.7331 24M24.7331 24C25.3891 24.3556 26.7139 24.8124 28 24.6148M29.5 24C29.038 24.3465 28.5222 24.5346 28 24.6148M28 24.6148C28.5 25.4099 29.4 27.4 29 29M31 16C28.8735 14.1773 24.0614 12.1054 20.5 16.8998M19.5 18.5C19.8191 17.8973 20.1536 17.3661 20.5 16.8998M20.5 16.8998C18 16.4332 13.1 16.9 13.5 22.5M16.5 23.5C13 21 7 24 10.5 29M18.5 40.5C13.8333 40.5 5.5 38 10 28.5M39.5 43C36.8333 42.6667 33 42.5 27 44.5C21.5 45.5 15 38.5 20.5 35M20.5 35C24 35 24.5 30 24.5 31.5C26.4989 32.3566 30.7971 33.3601 34 31.6185M20.5 35C19.0907 35.2013 18.1289 34.5667 17.5 33.6953M16.5 31C16.5828 31.745 16.8794 32.8354 17.5 33.6953M35.5 30.5C35.0413 30.9587 34.536 31.327 34 31.6185M35.5 36C35.8333 35.079 36 32.9132 34 31.6185M13 33C13.8333 33.6302 15.9 34.6515 17.5 33.6953M24.5 38C25.7983 38.8655 28.5201 39.6562 30.266 37M31 35.5C30.7849 36.0916 30.5372 36.5874 30.266 37M32.5 39.5C32 38.5 31.532 37.5 30.266 37" stroke="#D4D9B9" stroke-linecap="round"/>
<path d="M33 43C34.1667 44.1667 37.2 46.7 40 47.5C42.8 48.3 44.5 51.5 45 53M47.5 52.5C47.4431 50.6667 46.6949 46.6 43.2314 45M41.5 45.5C43.1667 45.3333 47.3 44.3 48.5 41.5M48.5 41.5C44.5 41.9 41.5 39.6667 40.5 38.5M48.5 41.5C51.5 40 53 33 50.1151 30.5M48.5 25C50 26.5 52.1 30 48.5 32" stroke="#D4D9B9" stroke-linecap="round"/>
<path d="M40 22C38.6667 21.1666 35 19.8 31 21C32.6 23.4 36.6667 24 38.5 24" stroke="#D4D9B9" stroke-linecap="round"/>
<path d="M36 26L41 24.5M41 24.5L46 26M41 24.5V28M35.5 20.5C34.5 19.3333 32.6 16.1 33 12.5C35.5 14 38 16 40 22C37.6 16.4 39.5 9.16667 41 7" stroke="#D4D9B9" stroke-linecap="round"/>
<path d="M42 22C43.3333 21.1666 47 19.8 51 21C49.4 23.4 45.3333 24 43.5 24" stroke="#D4D9B9" stroke-linecap="round"/>
<path d="M46.5 20.5C47.5 19.3333 49.4 16.1 49 12.5C46.5 14 43.5 16.5 42 22C44.4 16.4 42.5 9.16667 41 7" stroke="#D4D9B9" stroke-linecap="round"/>
</svg>
