<svg width="60" height="60" viewBox="0 0 60 60" fill="none" xmlns="http://www.w3.org/2000/svg">
<path d="M16.0617 51.5796L11.9217 42.8857C11.6875 42.3938 11.8901 41.8049 12.3774 41.5613L14.5882 40.4559C15.0889 40.2055 15.6976 40.415 15.9383 40.9204L20.0783 49.6143C20.3125 50.1062 20.1099 50.6951 19.6226 50.9387L17.4118 52.0441C16.9111 52.2945 16.3024 52.085 16.0617 51.5796Z" stroke="#D4D9B9" stroke-linecap="round"/>
<path d="M16.5 41.5C17.8333 40.3333 20 38.5 23 38C26.9456 37.3424 27.5 39 31 40C34.5 41 36 40 36.5 42C36.5 44.5 31 44.5 27 44M21.5 48.5C24 49 29.8 49.9 33 49.5C37 49 46 39.5 44.5 37C44 36.1667 39.6667 38.1667 38 40" stroke="#D4D9B9" stroke-linecap="round"/>
<path d="M31.5 30.5C29.3333 27.1667 26.6 18 33 8C40 20 35.8333 26.3333 34.5 30.5M37.5 30.5C40.3333 29.8333 46.6 26.9 49 20.5C45 20.5 40.5 23 39 24.5M36 32.5C38.3333 33.5 43.7 34.9 46.5 32.5C45.5 31.5 43.8333 31.1667 43.5 31M28.5 36C29.8333 35.6667 32.6 34.5 33 32.5M33 32.5C33.4 34.1 36.1667 35.5 37.5 36M33 32.5V38M28.5 30.5C25.6667 29.8333 19.4 26.9 17 20.5C21 20.5 25.5 23 27 24.5M30 32.5C27.6667 33.5 22.3 34.9 19.5 32.5C20.5 31.5 22.1667 31.1667 22.5 31" stroke="#D4D9B9" stroke-linecap="round"/>
</svg>
