<svg width="60" height="60" viewBox="0 0 60 60" fill="none" xmlns="http://www.w3.org/2000/svg">
<path d="M25.5 35.5L21 26.5L9.5 47.5H20.5M25.5 35.5L31.5 47.5H36M25.5 35.5L36 13.5L51 47.5H41" stroke="#D4D9B9" stroke-linecap="round"/>
<path d="M31 23L34 25.5L36 23L38.5 27.5L41.5 26.5M18 31.5L19.5 33L21 31.5L22.5 33H24.5" stroke="#D4D9B9"/>
<g clip-path="url(#clip0_301_149)">
<path d="M17 10.4031C13.9145 10.4031 11.4031 12.9145 11.4031 16C11.4031 19.0855 13.9145 21.5969 17 21.5969C20.0855 21.5969 22.5969 19.0855 22.5969 16C22.5969 12.9145 20.0855 10.4031 17 10.4031ZM17 20.8641C14.3186 20.8641 12.1376 18.6814 12.1376 16C12.1376 13.3186 14.3186 11.136 17 11.136C19.6814 11.136 21.8641 13.317 21.8641 16C21.8641 18.683 19.683 20.8641 17 20.8641Z" fill="#D4D9B9"/>
<path d="M16.7242 7.36725V9.20991C16.7242 9.41197 16.8893 9.57716 17.0914 9.57716C17.2935 9.57716 17.4586 9.41197 17.4586 9.20991V7.36725C17.4586 7.16518 17.2935 7 17.0914 7C16.8893 7 16.7242 7.16358 16.7242 7.36725Z" fill="#D4D9B9"/>
<path d="M12.5786 8.15945C12.4038 8.26048 12.3428 8.485 12.4439 8.66141L13.3644 10.2571C13.4317 10.3742 13.5552 10.4399 13.6819 10.4399C13.7445 10.4399 13.807 10.4239 13.8647 10.3902C14.0395 10.2892 14.1005 10.0647 13.9995 9.88825L13.0773 8.29256C12.9763 8.11775 12.7518 8.05681 12.5754 8.15785L12.5786 8.15945Z" fill="#D4D9B9"/>
<path d="M11.3485 12.2072L9.75284 11.2851C9.57643 11.1841 9.35351 11.2434 9.25088 11.4198C9.14984 11.5946 9.20918 11.8191 9.38559 11.9218L10.9813 12.8439C11.039 12.8776 11.1016 12.892 11.1641 12.892C11.2908 12.892 11.4143 12.8262 11.4816 12.7092C11.5827 12.5344 11.5233 12.3083 11.3469 12.2072H11.3485Z" fill="#D4D9B9"/>
<path d="M10.5772 15.9086C10.5772 15.7049 10.412 15.5413 10.2099 15.5413H8.36725C8.16518 15.5413 8 15.7049 8 15.9086C8 16.1122 8.16518 16.2758 8.36725 16.2758H10.2099C10.412 16.2758 10.5772 16.1106 10.5772 15.9086Z" fill="#D4D9B9"/>
<path d="M10.8899 18.9973L9.29419 19.9194C9.11778 20.0205 9.05844 20.245 9.15948 20.4214C9.22683 20.5385 9.35032 20.6042 9.47701 20.6042C9.53956 20.6042 9.6021 20.5882 9.65983 20.5561L11.2555 19.634C11.4303 19.5329 11.4913 19.3084 11.3902 19.132C11.2892 18.9556 11.0647 18.8963 10.8899 18.9973Z" fill="#D4D9B9"/>
<path d="M13.2072 21.6515L12.2851 23.2472C12.1841 23.422 12.2434 23.6465 12.4198 23.7491C12.4776 23.7828 12.5401 23.7972 12.6027 23.7972C12.7293 23.7972 12.8528 23.7315 12.9202 23.6144L13.8407 22.0187C13.9417 21.8439 13.8824 21.6194 13.706 21.5168C13.5296 21.4157 13.3067 21.4751 13.2056 21.6515H13.2072Z" fill="#D4D9B9"/>
<path d="M16.5414 22.7901V24.6328C16.5414 24.8348 16.7049 25 16.9086 25C17.1123 25 17.2758 24.8348 17.2758 24.6328V22.7901C17.2758 22.588 17.1123 22.4229 16.9086 22.4229C16.7049 22.4229 16.5414 22.588 16.5414 22.7901Z" fill="#D4D9B9"/>
<path d="M20.132 21.6082C19.9572 21.7092 19.8963 21.9337 19.9973 22.1101L20.9195 23.7058C20.9868 23.8245 21.1103 23.8886 21.237 23.8886C21.2995 23.8886 21.3621 23.8726 21.4198 23.8405C21.5962 23.7395 21.6556 23.515 21.5545 23.3386L20.634 21.7429C20.533 21.5681 20.3084 21.5071 20.132 21.6082Z" fill="#D4D9B9"/>
<path d="M22.6515 19.7928L24.2471 20.7133C24.3049 20.747 24.3674 20.7614 24.43 20.7614C24.5567 20.7614 24.6801 20.6957 24.7475 20.5786C24.8485 20.4038 24.7892 20.1793 24.6128 20.0782L23.0171 19.1577C22.8423 19.0567 22.6178 19.116 22.5167 19.2924C22.4157 19.4672 22.4751 19.6917 22.6515 19.7944V19.7928Z" fill="#D4D9B9"/>
<path d="M26 16.0914C26 15.8894 25.8364 15.7242 25.6328 15.7242H23.7901C23.588 15.7242 23.4229 15.8878 23.4229 16.0914C23.4229 16.2951 23.588 16.4587 23.7901 16.4587H25.6328C25.8348 16.4587 26 16.2951 26 16.0914Z" fill="#D4D9B9"/>
<path d="M22.9273 13.0508C22.9898 13.0508 23.0524 13.0347 23.1101 13.0026L24.7058 12.0821C24.8822 11.9811 24.9416 11.7566 24.8405 11.5802C24.7395 11.4054 24.515 11.3444 24.3386 11.4454L22.7429 12.366C22.5681 12.467 22.5071 12.6915 22.6082 12.8663C22.6755 12.985 22.799 13.0492 22.9257 13.0492L22.9273 13.0508Z" fill="#D4D9B9"/>
<path d="M20.2908 10.4832C20.3485 10.5169 20.4111 10.5329 20.4736 10.5329C20.6003 10.5329 20.7238 10.4672 20.7912 10.3501L21.7133 8.75444C21.8143 8.57963 21.755 8.35511 21.5786 8.25408C21.4038 8.15305 21.1776 8.21238 21.0766 8.38879L20.1561 9.98448C20.0551 10.1609 20.1144 10.3838 20.2908 10.4864V10.4832Z" fill="#D4D9B9"/>
</g>
<defs>
<clipPath id="clip0_301_149">
<rect width="18" height="18" fill="white" transform="translate(8 7)"/>
</clipPath>
</defs>
</svg>
