<svg width="60" height="60" viewBox="0 0 60 60" fill="none" xmlns="http://www.w3.org/2000/svg">
<path d="M30 15.21C29.6976 15.21 29.4528 14.9658 29.4528 14.6643V8.54566C29.4528 8.24418 29.6976 8 30 8C30.3023 8 30.5472 8.24418 30.5472 8.54566V14.6652C30.5472 14.9667 30.3023 15.2109 30 15.2109V15.21Z" fill="#D4D9B9"/>
<path d="M14.6835 29.3911H8.54724C8.24501 29.3911 8 29.6354 8 29.9367C8 30.2381 8.24501 30.4824 8.54724 30.4824H14.6835C14.9858 30.4824 15.2308 30.2381 15.2308 29.9367C15.2308 29.6354 14.9858 29.3911 14.6835 29.3911Z" fill="#D4D9B9"/>
<path d="M45.3156 29.3911H51.4528C51.7552 29.3911 52 29.6352 52 29.9367C52 30.2382 51.7552 30.4824 51.4528 30.4824H45.3156C45.0133 30.4824 44.7684 30.2382 44.7684 29.9367C44.7684 29.6352 45.0133 29.3911 45.3156 29.3911Z" fill="#D4D9B9"/>
<path d="M22.6154 17.1838C22.3537 17.3345 22.0195 17.2446 21.8684 16.9837L18.7998 11.684C18.6486 11.423 18.7388 11.0898 19.0004 10.9391C19.2621 10.7883 19.5963 10.8783 19.7475 11.1392L22.8161 16.4389C22.9673 16.6998 22.8771 17.0331 22.6154 17.1838Z" fill="#D4D9B9"/>
<path d="M37.3846 17.1837C37.1229 17.033 37.0336 16.6998 37.1839 16.4388L40.2525 11.1391C40.4037 10.8782 40.7379 10.7891 40.9996 10.939C41.2612 11.0897 41.3505 11.423 41.2002 11.6839L38.1316 16.9836C37.9805 17.2445 37.6463 17.3336 37.3846 17.1837Z" fill="#D4D9B9"/>
<path d="M17.2102 22.5734C17.059 22.8343 16.7249 22.9233 16.4632 22.7735L11.1482 19.7137C10.8865 19.563 10.7972 19.2297 10.9475 18.9688C11.0987 18.7079 11.4328 18.6188 11.6945 18.7687L17.0095 21.8285C17.2712 21.9792 17.3605 22.3124 17.2102 22.5734Z" fill="#D4D9B9"/>
<path d="M49.0525 40.9047C48.9013 41.1657 48.5671 41.2547 48.3055 41.1048L42.9904 38.0451C42.7288 37.8943 42.6395 37.5611 42.7898 37.3002C42.9409 37.0392 43.2751 36.9502 43.5368 37.1001L48.8518 40.1598C49.1135 40.3106 49.2028 40.6438 49.0525 40.9047Z" fill="#D4D9B9"/>
<path d="M42.7898 22.5734C42.6386 22.3125 42.7288 21.9792 42.9905 21.8285L48.3055 18.7687C48.5672 18.618 48.9013 18.7079 49.0525 18.9688C49.2037 19.2298 49.1135 19.563 48.8518 19.7137L43.5368 22.7735C43.2751 22.9242 42.941 22.8343 42.7898 22.5734Z" fill="#D4D9B9"/>
<path d="M10.9475 40.9046C10.7963 40.6437 10.8865 40.3105 11.1482 40.1597L16.4632 37.1C16.7249 36.9492 17.0591 37.0391 17.2102 37.3001C17.3614 37.561 17.2712 37.8942 17.0095 38.045L11.6945 41.1047C11.4329 41.2555 11.0987 41.1656 10.9475 40.9046Z" fill="#D4D9B9"/>
<path d="M30 15.21C29.6976 15.21 29.4528 14.9658 29.4528 14.6643V8.54566C29.4528 8.24418 29.6976 8 30 8C30.3023 8 30.5472 8.24418 30.5472 8.54566V14.6652C30.5472 14.9667 30.3023 15.2109 30 15.2109V15.21Z" fill="#D4D9B9"/>
<path d="M14.6835 29.3911H8.54724C8.24501 29.3911 8 29.6354 8 29.9367C8 30.2381 8.24501 30.4824 8.54724 30.4824H14.6835C14.9858 30.4824 15.2308 30.2381 15.2308 29.9367C15.2308 29.6354 14.9858 29.3911 14.6835 29.3911Z" fill="#D4D9B9"/>
<path d="M45.3156 29.3911H51.4528C51.7552 29.3911 52 29.6352 52 29.9367C52 30.2382 51.7552 30.4824 51.4528 30.4824H45.3156C45.0133 30.4824 44.7684 30.2382 44.7684 29.9367C44.7684 29.6352 45.0133 29.3911 45.3156 29.3911Z" fill="#D4D9B9"/>
<path d="M22.6154 17.1838C22.3537 17.3345 22.0195 17.2446 21.8684 16.9837L18.7998 11.684C18.6486 11.423 18.7388 11.0898 19.0004 10.9391C19.2621 10.7883 19.5963 10.8783 19.7475 11.1392L22.8161 16.4389C22.9673 16.6998 22.8771 17.0331 22.6154 17.1838Z" fill="#D4D9B9"/>
<path d="M37.3846 17.1837C37.1229 17.033 37.0336 16.6998 37.1839 16.4388L40.2525 11.1391C40.4037 10.8782 40.7379 10.7891 40.9996 10.939C41.2612 11.0897 41.3505 11.423 41.2002 11.6839L38.1316 16.9836C37.9805 17.2445 37.6463 17.3336 37.3846 17.1837Z" fill="#D4D9B9"/>
<path d="M17.2102 22.5734C17.059 22.8343 16.7249 22.9233 16.4632 22.7735L11.1482 19.7137C10.8865 19.563 10.7972 19.2297 10.9475 18.9688C11.0987 18.7079 11.4328 18.6188 11.6945 18.7687L17.0095 21.8285C17.2712 21.9792 17.3605 22.3124 17.2102 22.5734Z" fill="#D4D9B9"/>
<path d="M49.0525 40.9047C48.9013 41.1657 48.5671 41.2547 48.3055 41.1048L42.9904 38.0451C42.7288 37.8943 42.6395 37.5611 42.7898 37.3002C42.9409 37.0392 43.2751 36.9502 43.5368 37.1001L48.8518 40.1598C49.1135 40.3106 49.2028 40.6438 49.0525 40.9047Z" fill="#D4D9B9"/>
<path d="M42.7898 22.5734C42.6386 22.3125 42.7288 21.9792 42.9905 21.8285L48.3055 18.7687C48.5672 18.618 48.9013 18.7079 49.0525 18.9688C49.2037 19.2298 49.1135 19.563 48.8518 19.7137L43.5368 22.7735C43.2751 22.9242 42.941 22.8343 42.7898 22.5734Z" fill="#D4D9B9"/>
<path d="M10.9475 40.9046C10.7963 40.6437 10.8865 40.3105 11.1482 40.1597L16.4632 37.1C16.7249 36.9492 17.0591 37.0391 17.2102 37.3001C17.3614 37.561 17.2712 37.8942 17.0095 38.045L11.6945 41.1047C11.4329 41.2555 11.0987 41.1656 10.9475 40.9046Z" fill="#D4D9B9"/>
<path d="M31.4242 45.3026C31.2244 45.3026 31.0202 45.3026 30.808 45.3018C30.2758 45.3 29.7233 45.3 29.1911 45.3018C26.4178 45.3106 24.6823 45.2815 23.9972 44.5816C23.5719 44.147 23.4897 43.5484 23.4022 42.9155C23.3642 42.636 23.3244 42.3478 23.2554 42.0436C22.9628 40.7584 22.2016 39.4431 20.9949 38.1341C19.4637 36.4724 17.7115 33.5352 18.0633 28.983C18.4673 23.7608 23.3598 18.1693 29.9982 18.1693C36.6367 18.1693 41.53 23.7608 41.934 28.983C42.2859 33.5361 40.5345 36.4724 39.0024 38.1341C37.7957 39.444 37.0345 40.7593 36.7419 42.0436C36.6729 42.3478 36.6331 42.636 36.5951 42.9155C36.5085 43.5484 36.4263 44.147 36.0002 44.5816C35.3672 45.2277 33.8386 45.3026 31.4225 45.3026H31.4242ZM30 44.4264C30.2732 44.4264 30.5446 44.4273 30.8116 44.4282C32.7344 44.4343 34.9145 44.4423 35.376 43.9715C35.5997 43.7432 35.6571 43.3254 35.7296 42.7965C35.7685 42.5126 35.8127 42.1909 35.8905 41.8497C36.2176 40.4146 37.0478 38.9654 38.3597 37.5426C39.7742 36.0078 41.3903 33.2892 41.0623 29.0491C40.882 26.721 39.6593 24.2104 37.7922 22.3336C35.6792 20.21 32.9121 19.0411 30 19.0411C27.0879 19.0411 24.3207 20.21 22.2078 22.3336C20.3398 24.2104 19.118 26.721 18.9377 29.0491C18.6097 33.2892 20.2266 36.0087 21.6403 37.5426C22.9513 38.9654 23.7824 40.4146 24.1095 41.8497C24.1873 42.1909 24.2315 42.5126 24.2704 42.7965C24.3428 43.3254 24.4003 43.7432 24.624 43.9715C25.0846 44.4423 27.2656 44.4343 29.1884 44.4282C29.4554 44.4273 29.7268 44.4264 30 44.4264Z" fill="#D4D9B9"/>
<path d="M28.262 38.5083C28.6388 38.9672 28.692 39.531 27.8859 39.7272C27.2087 39.8923 26.3135 39.641 25.6132 39.1518C24.7469 38.547 24.3989 37.8893 23.9205 36.9854C23.6866 36.5433 23.4215 36.0423 23.0493 35.4597L28.262 38.5083ZM28.262 38.5083C28.372 38.5726 28.5711 38.6543 28.8031 38.5701C28.8293 38.5605 28.8539 38.5496 28.8769 38.5376M28.262 38.5083L28.8769 38.5376M29.2262 36.9169C29.0875 36.2312 28.6771 35.5948 28.1435 35.2474L28.1434 35.2473C27.3032 34.7006 26.366 34.6036 25.4717 34.5745C25.2543 34.5675 25.0401 34.5643 24.828 34.5611C24.1358 34.5506 23.4644 34.5405 22.766 34.3989L21.5365 34.1496L22.2575 35.1763C22.8237 35.9825 23.1666 36.6303 23.4723 37.2077C23.56 37.3734 23.6447 37.5333 23.7307 37.6895C24.1198 38.3963 24.5267 39.003 25.3269 39.5617L29.2262 36.9169ZM29.2262 36.9169H29.2785L29.2778 37.4176C29.2775 37.664 29.2632 37.8722 29.2248 38.0365C29.1984 38.1491 29.1242 38.4088 28.8769 38.5376M29.2262 36.9169L28.8769 38.5376M28.8769 38.5376C28.9741 38.7293 29.0346 38.9423 29.025 39.1661C29.0142 39.4171 28.9138 39.6567 28.7181 39.8479C28.5314 40.0303 28.2827 40.1453 28.0042 40.213C27.1417 40.4232 26.0998 40.1016 25.327 39.5618L28.8769 38.5376Z" stroke="#D4D9B9"/>
<path d="M31.8243 40.2274C32.5397 40.3909 33.3941 40.1408 34.0274 39.727L34.0276 39.7268C34.6868 39.2955 35.0238 38.8241 35.3409 38.284C35.4111 38.1644 35.4797 38.0429 35.5504 37.9176C35.7944 37.4855 36.0637 37.0084 36.5113 36.411L37.2841 35.3793L36.0178 35.62C35.466 35.7249 34.9375 35.7324 34.3852 35.7402C34.2145 35.7426 34.0415 35.7451 33.8649 35.7505C33.1922 35.7709 32.4737 35.8361 31.8145 36.1944L31.9479 36.6944C32.6524 36.2646 33.4764 36.2532 34.3651 36.2409C34.7116 36.2361 35.0678 36.2311 35.4307 36.2012C35.5171 36.0759 35.6102 35.946 35.7109 35.8114L36.1111 36.1112L36.2045 36.6024C36.0403 36.6336 35.8763 36.6574 35.7135 36.6758C35.4628 37.0551 35.2755 37.387 35.1082 37.6835C34.7256 38.3615 34.4473 38.8548 33.7539 39.3084C33.1931 39.6748 32.4775 39.8638 31.9357 39.74C31.4002 39.6179 31.3384 39.3059 31.5053 39.0066C31.4128 39.0292 31.3003 39.0348 31.1773 38.993C31.1085 38.9695 31.0509 38.9365 31.0029 38.8983M31.8243 40.2274L31.9357 39.7401L31.8246 40.2275C31.8245 40.2275 31.8244 40.2274 31.8243 40.2274ZM31.8243 40.2274C31.5947 40.175 31.379 40.0842 31.2117 39.9311C31.0334 39.768 30.9348 39.5554 30.9243 39.3259C30.9173 39.1734 30.9487 39.0297 31.0029 38.8983M31.0029 38.8983C31.0711 38.733 31.1753 38.5873 31.284 38.4682L31.2222 38.0072L30.7222 38.0076C30.7224 38.1961 30.7337 38.3667 30.7688 38.5074C30.7894 38.5905 30.8449 38.7726 31.0029 38.8983Z" stroke="#D4D9B9"/>
<path d="M28.9594 31.0704C28.3202 29.779 27.8163 28.7591 28.0205 27.2649C28.1699 26.1718 28.795 25.3449 29.6923 25.0532C29.7896 25.0214 29.8877 24.9976 29.9832 24.9818C30.0327 25.5151 30.1865 26.1357 30.7205 26.6505C31.5895 27.4888 31.8035 27.2058 33.3541 27.9684C33.0774 26.2661 33.4063 25.7954 32.5797 24.7772C32.0943 24.1796 31.4383 24.0059 30.7055 24.0112C30.2952 23.9398 29.8391 23.9724 29.3873 24.1196C28.1222 24.5313 27.2461 25.657 27.0445 27.1318C26.7996 28.9239 27.3911 30.1193 28.0762 31.5042C29.2317 33.8411 30.6666 36.7413 29.1468 44.4282C29.1601 44.4282 29.1742 44.4282 29.1884 44.4282C29.4554 44.4273 29.7268 44.4264 30 44.4264C30.0504 44.4264 30.0999 44.4264 30.1511 44.4264C31.6709 36.5509 30.1078 33.3906 28.9603 31.0696L28.9594 31.0704Z" fill="#D4D9B9"/>
<path d="M27.5555 52H32.4444" stroke="#D4D9B9" stroke-linecap="round"/>
<path d="M33.9886 47.1175C33.4439 47.0951 30.6058 47.1399 30 47.1399C29.2986 47.1399 26.5554 47.0951 26.0115 47.1175C25.4562 47.1409 25.1111 47.541 25.1111 48.335C25.1111 49.129 25.3756 49.5627 26.1087 49.5555C26.6797 49.5494 28.8014 49.5555 30 49.5555C31.1987 49.5555 33.3211 49.5494 33.8914 49.5555C34.6245 49.5637 34.8889 49.0924 34.8889 48.335C34.8889 47.541 34.5446 47.1409 33.9886 47.1175V47.1175Z" stroke="#D4D9B9"/>
</svg>
