<svg width="60" height="60" viewBox="0 0 60 60" fill="none" xmlns="http://www.w3.org/2000/svg">
<path fill-rule="evenodd" clip-rule="evenodd" d="M29.7461 5.92251C29.6468 6.02089 29.6065 6.18349 29.5958 6.52867C29.5551 7.84369 29.1288 11.1354 28.7616 12.9701C28.7026 13.2649 28.6528 13.3558 28.5504 13.3558C28.2985 13.3558 28.2393 13.5515 28.1802 14.5791C28.1396 15.2862 28.094 15.5992 28.0284 15.6208C27.9768 15.6379 27.8719 15.7139 27.7954 15.7896C27.6727 15.9111 27.6564 16.0481 27.6564 16.952V17.9766L27.4523 18.0743L27.2483 18.1721L27.2595 19.4009C27.2696 20.516 27.2589 20.6297 27.1437 20.6297C26.9724 20.6297 26.692 20.8979 26.692 21.0616C26.692 21.1344 26.7779 21.6141 26.8829 22.1276L27.0739 23.0613L26.8829 23.2101C26.641 23.3985 26.6417 23.5185 26.8921 24.6989L27.0929 25.6454L26.8924 25.8037C26.7822 25.8907 26.692 26.0267 26.692 26.1059C26.692 26.185 26.8139 26.7217 26.963 27.2987L27.234 28.3477L27.0742 28.5161C26.9864 28.6087 26.9145 28.7465 26.9145 28.8222C26.9145 28.898 27.0496 29.3989 27.2147 29.9353C27.492 30.8359 27.5063 30.9237 27.4025 31.0805C27.2985 31.2378 27.3259 31.389 27.7733 33.1221C28.2155 34.8349 28.2489 35.0171 28.1673 35.2689C28.0907 35.5048 28.1014 35.6304 28.2424 36.1506C28.3329 36.4841 28.4232 36.8232 28.4431 36.904L28.4794 37.051L28.3912 36.904C28.3427 36.8232 28.2293 36.691 28.1392 36.6101C28.021 36.5041 27.8565 36.0542 27.5484 34.9937C27.2244 33.8786 27.0799 33.4888 26.9493 33.3773C26.8295 33.2751 26.7302 33.0403 26.6231 32.6058C26.3364 31.443 26.3374 31.4455 26.1066 31.3953C25.9077 31.352 25.8796 31.2968 25.6481 30.4935C25.3985 29.6271 25.2496 29.373 24.9919 29.373C24.8768 29.373 24.7981 29.2199 24.5805 28.5732C24.3103 27.7699 24.1848 27.5736 23.9101 27.5251C23.7952 27.5048 23.7029 27.3294 23.5013 26.749C23.3581 26.3366 23.2012 25.9598 23.1527 25.9117C23.1042 25.8637 22.9406 25.8044 22.7892 25.78C22.5286 25.7381 22.493 25.6968 22.1277 25.0146C21.678 24.1751 21.6606 24.1543 21.3919 24.1338C21.2202 24.1207 21.1147 24.0028 20.722 23.3843C20.3251 22.7592 20.2222 22.6448 20.0288 22.6135C19.8392 22.5827 19.7276 22.4648 19.3512 21.8971C18.9291 21.2603 18.8848 21.2175 18.6481 21.2175C18.4153 21.2175 18.3332 21.1438 17.6035 20.2807C16.6985 19.2102 15.6982 17.9167 15.1287 17.0803C14.712 16.4684 14.6258 16.4009 14.349 16.4697C14.0641 16.5405 14.0605 16.784 14.3357 17.3566C14.4726 17.6414 14.767 18.2546 14.9898 18.7194C15.4613 19.7022 16.3564 21.8881 16.4234 22.2204C16.4508 22.3558 16.4363 22.469 16.3879 22.4987C16.2328 22.5936 16.3076 22.8609 16.6849 23.5602C16.9921 24.1297 17.048 24.2865 16.9816 24.3919C16.8542 24.5939 16.8728 24.6514 17.3128 25.4143C17.6561 26.0095 17.7126 26.1556 17.6467 26.2776C17.5155 26.5204 17.5472 26.6051 18.0627 27.3872C18.4869 28.031 18.5455 28.1588 18.4707 28.2774C18.2771 28.5843 18.3651 28.8007 18.9295 29.4075C19.4478 29.9646 19.4727 30.0074 19.4424 30.2892C19.4119 30.5733 19.4349 30.6112 20.0086 31.2205C20.5947 31.8431 20.605 31.8604 20.5237 32.0911C20.4418 32.3241 20.4478 32.3333 21.1351 33.0168C21.7628 33.6411 21.8272 33.7306 21.808 33.9519C21.7885 34.1761 21.8433 34.248 22.4589 34.8059C22.8969 35.2028 23.1319 35.4697 23.1333 35.5717C23.1347 35.6733 23.5518 36.1511 24.3196 36.9305C24.9708 37.5916 25.4857 38.1612 25.4638 38.1964C25.3888 38.3167 25.5687 38.5223 26.8693 39.802C27.5856 40.5069 28.1569 41.0984 28.1387 41.1163C28.1206 41.1343 27.6678 40.7973 27.1324 40.3674C26.4481 39.8179 26.1005 39.5853 25.9618 39.584C25.825 39.5829 25.4475 39.3358 24.7269 38.7758C24.0552 38.2538 23.6258 37.9694 23.5093 37.9694C23.3941 37.9694 23.1457 37.8077 22.8189 37.52C22.3684 37.1235 22.2818 37.076 22.0824 37.1154C21.8872 37.1541 21.7782 37.1003 21.2817 36.7198C20.7133 36.2843 20.4945 36.2018 20.3328 36.3619C20.2712 36.4229 20.0987 36.3367 19.6712 36.0313C19.0675 35.6002 18.9846 35.5697 18.7508 35.6936C18.6341 35.7554 18.5173 35.703 18.0962 35.3997C17.5309 34.9924 17.3932 34.9598 17.1588 35.1778L17.0004 35.3253L16.4698 35.0695C15.772 34.7332 15.5895 34.6915 15.4316 34.832C15.3168 34.9341 15.2401 34.9228 14.6207 34.7125C13.9862 34.4971 13.9279 34.4891 13.8148 34.6011C13.7018 34.713 13.6455 34.7051 13.0389 34.4911L12.3849 34.2604L12.2124 34.4209L12.0399 34.5814L10.8163 34.3294C10.1433 34.1907 9.12123 33.9446 8.54519 33.7824C7.96908 33.6202 7.43332 33.4875 7.35454 33.4875C7.0403 33.4875 6.91975 33.8773 7.16582 34.0979C7.23866 34.1632 7.46403 34.2886 7.66656 34.3765C8.61574 34.7888 11.347 36.4471 11.3285 36.5999C11.2961 36.8673 11.3698 36.9367 11.9665 37.2001C12.5045 37.4375 12.597 37.5042 12.597 37.6546C12.597 37.8053 12.6936 37.8745 13.2607 38.1304C13.8275 38.3861 13.9277 38.4578 13.9469 38.6221C13.9703 38.8221 13.9299 38.8021 15.1378 39.2095C15.3343 39.2757 15.416 39.3462 15.416 39.4494C15.416 39.7862 15.5373 39.8638 16.2128 39.9587C16.8124 40.0429 16.8742 40.0674 17.0122 40.2766C17.1477 40.482 17.2176 40.5115 17.7541 40.5901C18.0797 40.6378 18.3807 40.6794 18.4228 40.6824C18.4648 40.6854 18.5357 40.7837 18.5803 40.9008C18.6601 41.1099 18.6741 41.1146 19.391 41.1678C20.069 41.2182 20.1337 41.2368 20.307 41.4326C20.4868 41.6353 20.5183 41.6431 21.1703 41.6431C21.7528 41.6431 21.8657 41.6635 21.9813 41.79C22.0676 41.8844 22.2109 41.9373 22.3823 41.9381C22.6649 41.9393 22.8963 42.0373 22.782 42.1073C22.7444 42.1303 22.467 42.1153 22.1654 42.0739C21.6853 42.008 21.606 42.0137 21.5276 42.1199C21.4561 42.2166 21.3326 42.2369 20.9172 42.2201C20.5078 42.2036 20.3662 42.2261 20.2556 42.3253C20.1412 42.4277 20.031 42.443 19.6714 42.4057C19.2274 42.3598 19.046 42.4295 18.9623 42.6782C18.9469 42.7237 18.7068 42.7842 18.4286 42.8128C18.0386 42.8527 17.8948 42.9005 17.8007 43.0216C17.7156 43.1309 17.5582 43.1939 17.2816 43.2294C17.0222 43.2627 16.8205 43.3393 16.6996 43.4501C16.5928 43.5481 16.3707 43.6413 16.1741 43.6705C15.9358 43.7059 15.7756 43.784 15.6404 43.9306C15.4188 44.1708 14.6458 44.4546 13.1596 44.8411C12.6327 44.9782 12.1742 45.133 12.1408 45.1851C12.0507 45.3258 12.0651 45.5203 12.1705 45.5879C12.2215 45.6206 13.0358 45.6474 13.9802 45.6474C15.5372 45.6474 15.7111 45.6598 15.8465 45.7812C15.9642 45.8867 16.0988 45.9114 16.4811 45.8977C16.7881 45.8867 17.0079 45.9145 17.0797 45.9735C17.1619 46.0411 17.3364 46.0524 17.714 46.0149C18.0553 45.9809 18.235 45.9892 18.235 46.0386C18.235 46.1606 18.4646 46.1742 18.9332 46.0797C19.3378 45.9981 19.3878 46.0029 19.5777 46.142L19.7835 46.2927L20.1874 46.1304C20.4806 46.0125 20.6642 45.9816 20.8578 46.0176C21.0537 46.054 21.2331 46.0224 21.5351 45.8985C21.8524 45.7682 21.9659 45.7497 22.034 45.8172C22.1637 45.9456 22.2647 45.9276 22.7679 45.6861C23.1248 45.5149 23.254 45.4843 23.3671 45.5443C23.481 45.6047 23.6034 45.5733 23.9488 45.3953C24.1894 45.2712 24.4697 45.1698 24.5719 45.1698C24.6739 45.1698 25.0112 45.0505 25.3212 44.9048C25.9063 44.6297 26.1954 44.602 25.6606 44.8723C25.4934 44.9567 25.3567 45.0753 25.3567 45.1358C25.3567 45.1962 25.2402 45.3006 25.0978 45.3679C24.9554 45.4352 24.8204 45.5479 24.7978 45.6185C24.7751 45.6892 24.6412 45.8143 24.5003 45.8967C24.3558 45.9811 24.2439 46.1055 24.2439 46.1815C24.2439 46.2558 24.1271 46.4287 23.9843 46.5658C23.8414 46.7029 23.7246 46.8524 23.7246 46.898C23.7246 46.9436 23.6412 47.0586 23.5391 47.1536C23.4371 47.2485 23.3537 47.3807 23.3537 47.4475C23.3537 47.5142 23.2702 47.6464 23.1682 47.7413C23.0662 47.8363 22.9828 47.9897 22.9828 48.0823C22.9828 48.1842 22.7408 48.5451 22.3708 48.995C21.5615 49.9793 21.5969 49.923 21.6925 50.0741C21.8313 50.2934 22.0703 50.2672 22.4076 49.9959C22.9073 49.594 23.7741 49.0639 23.9316 49.0639C24.0107 49.0639 24.1604 48.9977 24.2641 48.9169C24.3679 48.8361 24.4914 48.77 24.5387 48.77C24.586 48.77 24.7341 48.6873 24.8679 48.5863C25.0016 48.4853 25.1601 48.4026 25.2199 48.4026C25.2799 48.4026 25.4248 48.3034 25.5421 48.1822C25.661 48.0592 25.8327 47.9618 25.9304 47.9618C26.0463 47.9618 26.1477 47.8887 26.2311 47.7449C26.3002 47.6255 26.4239 47.5105 26.5058 47.4892C26.5878 47.4679 26.7303 47.334 26.8225 47.1918C26.9147 47.0495 27.0371 46.9331 27.0946 46.9331C27.1521 46.9331 27.2693 46.8209 27.3549 46.6836C27.4406 46.5463 27.5883 46.3836 27.6834 46.3219C27.7784 46.2603 27.8987 46.108 27.9507 45.9836C28.0027 45.8593 28.0722 45.7576 28.1051 45.7576C28.138 45.7576 28.2895 45.551 28.4418 45.2984C28.5942 45.0458 28.8121 44.7457 28.9262 44.6314C29.0403 44.5173 29.1601 44.3519 29.1925 44.2641C29.2248 44.1763 29.268 46.2977 29.2884 48.9784L29.3255 53.8524L29.5336 54.0297C29.8162 54.2704 30.1715 54.2654 30.4068 54.0174L30.5866 53.8279L30.6237 48.9024L30.6608 43.9768L30.8405 44.2978C30.9394 44.4743 31.0638 44.6447 31.117 44.6766C31.1703 44.7084 31.3519 44.9646 31.5207 45.246C31.6894 45.5274 31.8565 45.7576 31.8918 45.7576C31.9271 45.7576 32.0241 45.8898 32.1074 46.0515C32.1906 46.2131 32.291 46.3454 32.3304 46.3454C32.3698 46.3454 32.4904 46.4776 32.5984 46.6392C32.7064 46.8009 32.8365 46.9331 32.8874 46.9331C32.9383 46.9331 33.0674 47.0467 33.1742 47.1853C33.281 47.324 33.428 47.4563 33.5008 47.4791C33.5735 47.502 33.6923 47.62 33.7646 47.7413C33.8431 47.8729 33.9578 47.9618 34.0491 47.9618C34.1332 47.9618 34.3161 48.061 34.4555 48.1822C34.5949 48.3034 34.7464 48.4026 34.7921 48.4026C34.8379 48.4026 34.9847 48.4853 35.1184 48.5863C35.2522 48.6873 35.4003 48.77 35.4476 48.77C35.4948 48.77 35.6184 48.8361 35.7221 48.9169C35.8259 48.9977 35.9835 49.0639 36.0723 49.0639C36.2139 49.0639 37.1592 49.6516 37.7188 50.0876C37.9933 50.3015 38.2497 50.2873 38.3086 50.055C38.3453 49.9099 38.294 49.7979 38.0689 49.5321C37.353 48.6866 37.0046 48.2072 37.0041 48.0664C37.0038 47.9826 36.9201 47.8363 36.8181 47.7413C36.716 47.6464 36.6326 47.5142 36.6326 47.4475C36.6326 47.3807 36.5491 47.2485 36.4471 47.1536C36.3451 47.0586 36.2617 46.9343 36.2617 46.8773C36.2617 46.8203 36.1448 46.6712 36.002 46.546C35.8592 46.4207 35.7424 46.2572 35.7424 46.1824C35.7424 46.1049 35.6307 45.9812 35.4827 45.8947C35.3399 45.8113 35.2231 45.6994 35.2231 45.6461C35.2231 45.5928 35.1058 45.4773 34.9625 45.3896C34.8192 45.3019 34.6679 45.1672 34.6264 45.0904C34.5848 45.0134 34.4267 44.8831 34.275 44.8007C33.8619 44.5763 34.2814 44.7041 34.7944 44.9589C35.0278 45.0749 35.3043 45.1698 35.4086 45.1698C35.5129 45.1698 35.7982 45.2698 36.0428 45.392C36.3867 45.564 36.5189 45.5974 36.6276 45.5398C36.7359 45.4824 36.8809 45.5177 37.2622 45.6945C37.6887 45.8921 37.7798 45.911 37.927 45.833C38.0703 45.7571 38.1545 45.7674 38.4502 45.897C38.8198 46.059 39.1909 46.0986 39.2625 45.9838C39.2857 45.9466 39.5054 46.0019 39.7506 46.1067L40.1965 46.2972L40.4054 46.1443C40.5988 46.0026 40.6471 45.9978 41.0531 46.0797C41.5203 46.1739 41.7513 46.1606 41.7513 46.0398C41.7513 45.9918 41.945 45.9834 42.2985 46.0163C42.6698 46.0507 42.8619 46.0409 42.8963 45.9858C42.9256 45.9388 43.1692 45.9045 43.4746 45.9045C43.8727 45.9045 44.0374 45.873 44.1454 45.7761C44.2738 45.661 44.4703 45.6485 46.043 45.6557C47.2556 45.6612 47.8141 45.6385 47.8518 45.582C47.8817 45.5371 47.9068 45.4253 47.9074 45.3335C47.9088 45.1299 47.8035 45.0821 46.8271 44.8426C45.6225 44.5472 44.5715 44.1581 44.3531 43.9264C44.2203 43.7856 44.0536 43.7063 43.8161 43.6711C43.6158 43.6414 43.3942 43.5489 43.2867 43.4501C43.1688 43.3419 42.9634 43.2622 42.7202 43.2302C42.4483 43.1945 42.293 43.1282 42.1799 42.9994C42.0649 42.8684 41.9459 42.8186 41.7472 42.8186C41.2874 42.8186 41.0433 42.7418 40.9687 42.5736C40.906 42.432 40.8404 42.4145 40.3727 42.4145C40.0198 42.4145 39.8039 42.379 39.7148 42.3064C39.6211 42.23 39.4414 42.2045 39.1018 42.2196C38.7364 42.2359 38.589 42.2119 38.4856 42.1192C38.3664 42.0124 38.284 42.0076 37.8149 42.0796C37.5207 42.1248 37.2645 42.1465 37.2456 42.1278C37.1536 42.0367 37.3399 41.937 37.6021 41.937C37.8034 41.937 37.935 41.891 38.0222 41.79C38.1317 41.6634 38.2419 41.6429 38.8189 41.642C39.5229 41.6408 39.5869 41.6226 39.7192 41.3859C39.812 41.2198 39.7789 41.2276 40.6663 41.1624C41.3068 41.1154 41.3269 41.1082 41.4059 40.901C41.4505 40.7838 41.5048 40.6878 41.5264 40.6876C41.5481 40.6875 41.8658 40.6391 42.2324 40.5802C42.8789 40.4762 43.0866 40.3678 43.0866 40.1339C43.0866 40.0829 43.3455 40.0131 43.7344 39.9592C44.4635 39.8582 44.5703 39.8009 44.5703 39.5114C44.5703 39.32 44.6128 39.2934 45.2936 39.0612C45.9387 38.841 46.0192 38.7938 46.0391 38.6248C46.0579 38.465 46.1688 38.3841 46.7439 38.1105C47.2606 37.8645 47.4264 37.7507 47.4266 37.6416C47.4267 37.5344 47.5785 37.4245 48.02 37.2119C48.6467 36.9102 48.7216 36.846 48.7234 36.6095C48.724 36.5282 48.7997 36.4141 48.8915 36.3558C50.1241 35.5731 51.0561 35.0307 51.8814 34.6156C52.9156 34.0954 53.0865 33.9317 52.8993 33.6414C52.7859 33.4656 52.4386 33.5036 51.3283 33.8133C50.7815 33.9658 49.7967 34.2002 49.1399 34.3341C47.9645 34.5738 47.9436 34.5754 47.8129 34.4367C47.6444 34.2577 47.6217 34.2588 47.0043 34.4794C46.4584 34.6745 46.2023 34.7097 46.2023 34.5896C46.2023 34.4588 45.8779 34.5112 45.2815 34.7387C44.7543 34.9398 44.6859 34.9504 44.5726 34.8489C44.3947 34.6895 44.314 34.7036 43.6569 35.0089C43.0807 35.2768 43.0672 35.2792 42.8502 35.1559C42.7288 35.0869 42.5886 35.0305 42.5386 35.0305C42.4886 35.0305 42.2123 35.1947 41.9246 35.3954C41.4406 35.7332 41.3852 35.7542 41.1812 35.678C40.9557 35.5937 40.8435 35.6515 39.8838 36.3458C39.7762 36.4237 39.7204 36.4282 39.6558 36.3642C39.4942 36.2042 39.2945 36.2804 38.7202 36.7213C38.2318 37.0962 38.1117 37.1567 37.9265 37.1206C37.7382 37.0838 37.6369 37.1388 37.189 37.5212C36.8813 37.7839 36.5991 37.9655 36.4964 37.967C36.3914 37.9684 35.9086 38.288 35.2724 38.7771C34.5771 39.3115 34.1587 39.585 34.0356 39.5853C33.9105 39.5857 33.5162 39.8506 32.8302 40.3956C32.2694 40.841 31.8106 41.1777 31.8106 41.1438C31.8106 41.1099 32.4282 40.4794 33.183 39.7426C34.1041 38.8435 34.5554 38.3519 34.5554 38.2476C34.5554 38.1461 34.9531 37.6917 35.7053 36.9338C36.5105 36.1225 36.8551 35.7251 36.8551 35.6078C36.8551 35.4922 37.0721 35.2349 37.5563 34.7762C38.1899 34.176 38.2532 34.0919 38.2139 33.9029C38.1749 33.7153 38.2416 33.6231 38.8646 33.0035C39.5545 32.3173 39.5582 32.3117 39.4704 32.0815C39.3839 31.8544 39.3921 31.8397 39.8805 31.3431C40.4795 30.7341 40.6577 30.4405 40.5967 30.1624C40.5581 29.9861 40.6252 29.8822 41.1147 29.3603C41.4241 29.0305 41.6771 28.7322 41.6771 28.6972C41.6771 28.6622 41.6269 28.5146 41.5656 28.3693L41.4541 28.105L41.9365 27.3895C42.4011 26.7006 42.506 26.4028 42.3416 26.24C42.288 26.1868 42.3903 25.943 42.6755 25.4444C43.0808 24.7354 43.1588 24.4777 43.0117 24.3321C42.9614 24.2822 43.0473 24.055 43.2745 23.6377C43.6787 22.8954 43.7278 22.7287 43.6074 22.506C43.5288 22.3606 43.5502 22.2433 43.7572 21.6851C44.1399 20.653 44.7613 19.218 45.3564 17.9921C45.6584 17.3698 45.9056 16.8183 45.9056 16.7667C45.9056 16.6149 45.6867 16.4417 45.495 16.4417C45.3603 16.4417 45.2421 16.5523 45.0038 16.9009C44.2895 17.9463 43.1791 19.3744 42.1761 20.5378C41.6577 21.1391 41.562 21.2175 41.3467 21.2175C41.1212 21.2175 41.0689 21.2691 40.6385 21.9155C40.2381 22.5169 40.1456 22.6135 39.9694 22.6135C39.7907 22.6135 39.7045 22.7085 39.2859 23.3666C39.0223 23.7807 38.7693 24.1118 38.7237 24.1022C38.4698 24.0485 38.283 24.2488 37.8937 24.9918C37.511 25.7223 37.4716 25.7706 37.2588 25.7716C37.134 25.7723 36.9758 25.8141 36.9071 25.8647C36.8386 25.9152 36.6605 26.3119 36.5114 26.7463C36.2768 27.4299 36.2183 27.5362 36.077 27.5362C35.8267 27.5362 35.704 27.7265 35.4107 28.5691C35.1596 29.2906 35.1241 29.3498 34.9037 29.4141C34.6497 29.4881 34.6974 29.3815 34.1986 30.9894C34.108 31.2815 34.0322 31.4006 33.9249 31.419C33.6916 31.4591 33.6664 31.5097 33.4412 32.3913C33.2923 32.974 33.1831 33.2575 33.0769 33.3371C32.9306 33.4467 32.8537 33.6651 32.1784 35.8873C32.0388 36.3466 31.906 36.6513 31.8333 36.6789C31.7684 36.7036 31.7054 36.7141 31.6934 36.7022C31.6814 36.6903 31.7417 36.3922 31.8273 36.0398C31.9713 35.4475 31.974 35.3891 31.8627 35.2673C31.7509 35.1449 31.7764 35.0031 32.2216 33.2726C32.4852 32.248 32.7009 31.3477 32.7009 31.272C32.7009 31.1963 32.6624 31.0734 32.6155 30.9989C32.5465 30.8897 32.5897 30.6726 32.838 29.8778C33.0074 29.3358 33.146 28.8375 33.146 28.7706C33.146 28.7037 33.0654 28.5862 32.9669 28.5094L32.7878 28.3699L32.9311 27.8612C33.0099 27.5814 33.1451 27.0555 33.2316 26.6925L33.389 26.0326L33.1682 25.8566L32.9474 25.6805L33.155 24.7164C33.4124 23.5206 33.4132 23.4593 33.1753 23.2237L32.9822 23.0323L33.1858 22.0121L33.3894 20.9918L33.2176 20.8107C33.1232 20.7112 32.9819 20.6297 32.9037 20.6297C32.7681 20.6297 32.7626 20.5718 32.7868 19.4011L32.8121 18.1724L32.6081 18.0745C32.4204 17.9844 32.4041 17.9426 32.4041 17.5511C32.4041 17.3171 32.3821 16.818 32.3552 16.4421C32.3075 15.7768 32.3006 15.7567 32.0955 15.68C31.887 15.602 31.8848 15.5949 31.8831 14.9745C31.8808 14.1922 31.8147 13.5664 31.7222 13.4521C31.6833 13.404 31.5788 13.3544 31.4899 13.3419C31.3422 13.321 31.3115 13.2222 31.13 12.1802C30.8694 10.6847 30.6466 9.0006 30.5467 7.77183C30.4148 6.14918 30.3954 6.01332 30.2793 5.89819C30.129 5.74948 29.9107 5.75947 29.7461 5.92251ZM30.2597 9.8166C30.5038 11.7633 30.884 13.9062 31.0147 14.0722C31.0544 14.1227 31.145 14.164 31.2159 14.164C31.3304 14.164 31.3507 14.2894 31.3977 15.2845C31.4269 15.9007 31.4773 16.4321 31.5097 16.4651C31.5422 16.4983 31.6315 16.5344 31.7082 16.5455C31.8352 16.5639 31.8496 16.6504 31.8686 17.5092C31.8899 18.4757 31.9385 18.6459 32.1928 18.6459C32.3284 18.6459 32.3321 18.6985 32.2832 19.9385C32.241 21.0101 32.2501 21.2424 32.3368 21.2967C32.4824 21.3879 32.5249 21.3812 32.662 21.2455C32.7281 21.18 32.7959 21.1401 32.8126 21.1568C32.8295 21.1734 32.7926 21.4006 32.7308 21.6615C32.669 21.9224 32.5558 22.4494 32.4793 22.8326C32.3283 23.5893 32.3567 23.7156 32.6779 23.7156C32.8161 23.7156 32.8499 23.7461 32.82 23.8441C32.6939 24.2576 32.3941 25.7356 32.3817 26.0052C32.368 26.3024 32.3807 26.3254 32.571 26.3471C32.6832 26.3599 32.775 26.3833 32.775 26.3992C32.775 26.415 32.6417 26.9335 32.4787 27.5515C32.3157 28.1694 32.1822 28.7337 32.1819 28.8054C32.1817 28.8771 32.2616 28.966 32.3594 29.0028L32.5372 29.0697L32.3701 29.6438C32.2782 29.9596 32.1251 30.4783 32.0299 30.7965C31.8634 31.3525 31.8619 31.3789 31.9914 31.4727C32.1195 31.5654 32.1012 31.6692 31.6186 33.5893C31.1535 35.4398 31.1207 35.6196 31.2268 35.742C31.3329 35.8643 31.3038 36.0192 30.8775 37.602C30.6217 38.5517 30.3374 39.7502 30.2456 40.2654C30.1538 40.7807 30.0511 41.2022 30.0174 41.2022C29.9836 41.2022 29.956 41.1735 29.956 41.1384C29.956 40.8491 29.6414 39.4428 29.2081 37.796C28.7317 35.9853 28.6992 35.8151 28.8132 35.7325C28.9279 35.6495 28.9161 35.5556 28.6605 34.5099C28.5083 33.887 28.2868 33.0326 28.1684 32.6115C27.9237 31.7411 27.9105 31.5987 28.0595 31.4356C28.1526 31.3336 28.125 31.183 27.8369 30.2223C27.656 29.6189 27.508 29.0984 27.508 29.0655C27.508 29.0326 27.5758 29.0056 27.6587 29.0056C27.7416 29.0056 27.8273 28.9594 27.8492 28.9028C27.8711 28.8463 27.7532 28.2895 27.5872 27.6653C27.4213 27.0413 27.2854 26.4924 27.2854 26.4456C27.2854 26.3989 27.3653 26.3606 27.463 26.3606C27.5606 26.3606 27.6597 26.311 27.6831 26.2505C27.7066 26.1898 27.6101 25.6206 27.4685 24.9855C27.327 24.3504 27.2112 23.8049 27.2112 23.7732C27.2112 23.7415 27.2957 23.7156 27.399 23.7156C27.5066 23.7156 27.6073 23.6627 27.6348 23.5919C27.6611 23.5239 27.5768 22.9561 27.4472 22.3303C27.3178 21.7044 27.2268 21.1776 27.2451 21.1594C27.2634 21.1413 27.3323 21.18 27.3983 21.2453C27.4917 21.3377 27.5515 21.3465 27.668 21.2848C27.8127 21.2081 27.8159 21.162 27.7642 19.9257C27.7112 18.6581 27.7122 18.6459 27.8664 18.6459C28.1175 18.6459 28.1756 18.4173 28.1756 17.4306C28.1756 16.6412 28.1923 16.5058 28.2848 16.541C28.4895 16.6188 28.6207 16.3815 28.6207 15.9334C28.6207 15.7001 28.6424 15.2065 28.669 14.8366C28.7107 14.2534 28.7351 14.164 28.8518 14.164C28.9259 14.164 29.0178 14.106 29.0561 14.0351C29.1815 13.8031 29.7655 10.226 29.9228 8.72699C29.9816 8.16653 30.0586 7.99556 30.0882 8.35962C30.0997 8.50106 30.1769 9.15666 30.2597 9.8166ZM16.3172 19.5318C16.658 19.9585 17.2706 20.6941 17.6786 21.1665C18.2719 21.8534 18.459 22.0254 18.6131 22.0255C18.7748 22.0257 18.8854 22.144 19.2998 22.7604C19.5714 23.1645 19.8352 23.499 19.886 23.5036C19.9368 23.5082 20.0284 23.5092 20.0896 23.5056C20.1536 23.502 20.3735 23.7804 20.6076 24.1617C20.9634 24.741 21.0378 24.8214 21.2011 24.8025C21.3696 24.7831 21.4348 24.8666 21.8713 25.6626C22.3542 26.5434 22.355 26.5443 22.6161 26.5299L22.8775 26.5155L23.1328 27.2948C23.4127 28.1492 23.5062 28.2911 23.7495 28.2306C23.8996 28.1933 23.9362 28.263 24.2314 29.149C24.4071 29.6763 24.5903 30.1127 24.6385 30.1186C24.6867 30.1246 24.7883 30.1329 24.8643 30.137C25.0057 30.1446 25.0243 30.1917 25.4267 31.5541C25.5646 32.0209 25.6052 32.0848 25.7766 32.1052C25.9581 32.1268 25.9846 32.1825 26.1892 32.9732C26.4141 33.8425 26.4877 34.0018 26.6639 34.0018C26.7202 34.0018 26.7661 34.0415 26.7661 34.09C26.7661 34.1385 26.9748 34.8712 27.2297 35.7181C27.5723 36.8563 27.7262 37.2665 27.8197 37.2907C27.9582 37.3266 28.0689 37.6355 28.5109 39.2184C28.6632 39.764 28.8846 40.4712 29.0029 40.79C29.1213 41.1089 29.202 41.3858 29.1822 41.4054C29.1624 41.4251 29.0549 41.3295 28.9435 41.1931C28.8321 41.0567 28.1605 40.3628 27.4512 39.6511C26.6811 38.8785 26.1712 38.311 26.1856 38.2428C26.1998 38.1756 25.7218 37.6221 25.0282 36.9026C24.2603 36.1059 23.844 35.619 23.8393 35.5119C23.8325 35.3597 23.4071 34.9191 22.7001 34.3322C22.5271 34.1884 22.4778 34.1052 22.5332 34.0503C22.6949 33.8901 22.5936 33.7292 21.8911 33.0308C21.3254 32.4684 21.1897 32.295 21.2605 32.2249C21.4366 32.0505 21.3428 31.8807 20.6796 31.1734C20.0624 30.5151 20.0176 30.4475 20.1232 30.332C20.1863 30.2629 20.238 30.1733 20.238 30.1329C20.238 30.0925 19.953 29.7492 19.6046 29.3699C19.0349 28.7497 18.9863 28.6748 19.1224 28.6249C19.3702 28.5341 19.3006 28.3059 18.7885 27.5318C18.2345 26.6943 18.195 26.6142 18.3041 26.5474C18.4467 26.4602 18.386 26.2599 18.0239 25.6209C17.6984 25.0465 17.6763 24.9778 17.7719 24.8352C17.8677 24.6923 17.8405 24.6122 17.4532 23.8971C17.0749 23.1987 17.0395 23.0971 17.1217 22.9451C17.2027 22.7952 17.1516 22.6151 16.6909 21.4268C16.4035 20.6853 16.0467 19.7976 15.8981 19.4541C15.534 18.6125 15.5277 18.595 15.6201 18.6826C15.6628 18.723 15.9765 19.1052 16.3172 19.5318ZM44.1565 19.3492C44.0085 19.6696 43.7373 20.3119 43.5536 20.7766C42.8878 22.4616 42.7583 22.9337 42.9447 22.9952C42.9909 23.0104 42.8481 23.3536 42.6109 23.7976C42.1993 24.5676 42.1156 24.8522 42.2841 24.9079C42.3395 24.9261 42.2299 25.1827 41.9874 25.6024C41.5749 26.3162 41.5591 26.3667 41.6856 26.5673C41.7545 26.6765 41.6801 26.8311 41.2405 27.4917C40.6893 28.3201 40.611 28.5522 40.8611 28.617C40.9427 28.6381 41.0094 28.6725 41.0094 28.6934C41.0094 28.7143 40.7781 28.9727 40.4952 29.2676C40.2123 29.5625 39.9242 29.8895 39.8548 29.9944C39.7359 30.1742 39.7361 30.193 39.8589 30.3274C39.9849 30.4653 39.9674 30.493 39.3123 31.1962C38.6344 31.9238 38.5577 32.0585 38.7258 32.2249C38.7965 32.295 38.6609 32.4684 38.0952 33.0308C37.3977 33.7242 37.2917 33.8905 37.4486 34.0459C37.4981 34.0949 37.286 34.3358 36.8126 34.7687C36.2201 35.3105 36.1094 35.4459 36.1448 35.5855C36.1681 35.6777 36.1623 35.765 36.1317 35.7798C36.1012 35.7945 35.5627 36.3227 34.9352 36.9536C34.2376 37.6548 33.7907 38.1611 33.7853 38.2561C33.7799 38.3516 33.3175 38.8709 32.5845 39.6048C31.9288 40.2611 31.2697 40.9443 31.1198 41.1231C30.9698 41.3018 30.8284 41.4295 30.8056 41.4069C30.7828 41.3843 30.8468 41.1642 30.9478 40.9179C31.0489 40.6715 31.3197 39.8164 31.5497 39.0176C31.7796 38.2188 31.9836 37.511 32.003 37.4446C32.0223 37.3783 32.1012 37.3076 32.1784 37.2877C32.2792 37.2615 32.3629 37.0992 32.4759 36.7104C32.5624 36.4128 32.7652 35.7387 32.9267 35.2125C33.0881 34.6863 33.2201 34.2145 33.2201 34.164C33.2201 34.1135 33.3005 34.0359 33.3987 33.9915C33.5445 33.9258 33.6064 33.7947 33.7362 33.2768C34.0438 32.0502 34.0216 32.1031 34.2396 32.0779C34.411 32.0582 34.4547 32.0015 34.5413 31.6874C34.9047 30.3686 35.0097 30.1007 35.1466 30.1437C35.3634 30.2119 35.4692 30.0367 35.7813 29.0923C36.0727 28.2102 36.0776 28.2019 36.2941 28.218C36.5343 28.2358 36.4833 28.3287 36.9635 26.9982C37.111 26.5892 37.1938 26.4462 37.2504 26.5023C37.2942 26.5456 37.3987 26.581 37.4827 26.581C37.6025 26.581 37.7368 26.3905 38.104 25.6993C38.5361 24.886 38.589 24.8177 38.785 24.8177C38.972 24.8177 39.0456 24.7407 39.3995 24.1748C39.6856 23.7172 39.8439 23.5319 39.9484 23.5319C40.1648 23.5319 40.2761 23.4157 40.7583 22.6863C41.12 22.139 41.2275 22.0258 41.385 22.0257C41.5364 22.0257 41.7339 21.8421 42.3532 21.1256C43.2073 20.1375 43.9247 19.2616 44.199 18.8719C44.4734 18.4823 44.4534 18.7063 44.1565 19.3492ZM9.77805 34.6272C10.3574 34.7823 12.1319 35.1039 12.4088 35.1039C12.5368 35.1039 12.6763 35.0695 12.7186 35.0276C12.772 34.9748 12.9766 35.0085 13.3826 35.1368C14.026 35.3404 14.2335 35.364 14.3513 35.2473C14.4056 35.1936 14.5811 35.2269 14.9315 35.3576C15.5028 35.5706 15.6998 35.5901 15.7582 35.4397C15.7903 35.3566 15.9472 35.4028 16.5069 35.6601C16.8964 35.8391 17.2606 35.9856 17.3163 35.9856C17.3721 35.9856 17.4582 35.9215 17.5076 35.843C17.593 35.7077 17.6267 35.7207 18.1735 36.1002C18.4903 36.3201 18.7816 36.4999 18.8208 36.4999C18.86 36.4999 18.9444 36.448 19.0085 36.3846C19.1143 36.2798 19.182 36.3101 19.7487 36.7152C20.0917 36.9605 20.4065 37.1612 20.4482 37.1612C20.49 37.1612 20.5713 37.1145 20.6289 37.0574C20.7192 36.9679 20.8175 37.0197 21.3385 37.4307C21.86 37.8421 21.9728 37.9014 22.1575 37.8612C22.344 37.8206 22.4375 37.8723 22.8812 38.2612C23.2412 38.5767 23.4378 38.6999 23.551 38.6807C23.6654 38.6614 24.021 38.8904 24.7923 39.4805C25.5291 40.0443 25.9168 40.2962 26.0101 40.272C26.1041 40.2477 26.4251 40.4604 27.0316 40.9489C27.518 41.3407 28.1105 41.7924 28.3483 41.9526C28.586 42.1129 28.7696 42.253 28.7563 42.2639C28.7429 42.2749 28.4149 42.2413 28.0273 42.1896C27.6397 42.1378 26.9072 42.063 26.3996 42.0234C25.7013 41.9691 25.4556 41.923 25.3902 41.8343C25.3257 41.7469 25.034 41.6889 24.2466 41.6066C23.6652 41.5458 23.0607 41.4961 22.9032 41.4961C22.6997 41.4961 22.5957 41.4565 22.5429 41.3588C22.4812 41.2447 22.3417 41.2126 21.7156 41.1686C21.0616 41.1227 20.9576 41.0973 20.9254 40.9753C20.905 40.898 20.8839 40.8315 20.8784 40.8274C20.873 40.8232 20.5013 40.7818 20.0525 40.7353C19.3713 40.6648 19.2397 40.6312 19.256 40.5322C19.2898 40.3274 19.0892 40.2446 18.3355 40.1521C17.6195 40.0641 17.6039 40.0582 17.581 39.861C17.565 39.7237 17.5059 39.6488 17.3955 39.6254C17.2264 39.5897 16.1982 39.4389 16.1237 39.4389C16.1001 39.4389 16.1003 39.362 16.1241 39.2681C16.1829 39.0362 16.0826 38.9697 15.3031 38.7238C14.7962 38.5639 14.6315 38.4797 14.6109 38.3702C14.5688 38.1452 14.4951 38.0891 13.9367 37.8566C13.5036 37.6762 13.4136 37.6096 13.4134 37.4692C13.4131 37.3272 13.3058 37.2512 12.753 37.0018C12.2086 36.7562 12.0856 36.6701 12.0509 36.5101C12.0049 36.2982 11.7042 36.0849 10.048 35.0895C9.08399 34.5102 9.03636 34.4285 9.77805 34.6272ZM50.8759 34.5455C50.8759 34.5616 50.7456 34.6421 50.5863 34.7242C50.1887 34.9295 49.0922 35.6077 48.4649 36.0362C48.142 36.2568 47.9371 36.4497 47.9231 36.5464C47.9063 36.663 47.7423 36.7726 47.2691 36.9836C46.738 37.2205 46.6311 37.2972 46.597 37.4659C46.5633 37.6329 46.474 37.6988 46.0641 37.8593C45.5541 38.059 45.3699 38.209 45.4334 38.3729C45.4589 38.4387 45.2446 38.5421 44.7421 38.7062C43.8873 38.9856 43.804 39.0387 43.8622 39.2681C43.8901 39.3785 43.8721 39.4408 43.8113 39.4444C43.7595 39.4474 43.4536 39.4887 43.1317 39.5362C42.558 39.6208 42.4847 39.6631 42.393 39.9624C42.3655 40.0523 42.218 40.0946 41.7948 40.1339C40.9979 40.2078 40.8358 40.2622 40.7859 40.4722C40.7457 40.6415 40.6999 40.6557 39.9306 40.7355C39.4836 40.7819 39.1094 40.8232 39.0992 40.8274C39.089 40.8315 39.0807 40.8978 39.0807 40.9747C39.0807 41.1 38.9994 41.1201 38.3004 41.1672C37.6947 41.2082 37.5051 41.2467 37.4527 41.3397C37.3985 41.4357 37.1283 41.4819 36.0851 41.5734C35.0284 41.6661 34.7564 41.7131 34.6322 41.8244C34.5085 41.9353 34.2549 41.9796 33.2938 42.0583C32.6417 42.1116 31.916 42.1854 31.6812 42.2222C31.4464 42.2591 31.2434 42.2791 31.23 42.2666C31.2167 42.2542 31.4121 42.1052 31.6643 41.9356C31.9164 41.7661 32.5115 41.3165 32.9868 40.9365C33.4619 40.5567 33.9008 40.2499 33.962 40.2549C34.0232 40.2599 34.1093 40.2601 34.1533 40.2555C34.1974 40.2509 34.6921 39.8884 35.2526 39.45C35.99 38.8734 36.3166 38.6606 36.4337 38.6807C36.548 38.7003 36.7479 38.5788 37.1148 38.2665C37.561 37.8867 37.6654 37.8301 37.8566 37.8637C38.0476 37.8972 38.1631 37.8349 38.6701 37.4247C39.2173 36.9821 39.2706 36.9552 39.3906 37.0629C39.5536 37.2089 39.5894 37.1942 40.2985 36.6903C40.8296 36.3129 40.8934 36.2857 41.0073 36.3878C41.0761 36.4494 41.1581 36.4999 41.1894 36.4999C41.2208 36.4999 41.5037 36.3204 41.8181 36.101C42.3594 35.7231 42.3945 35.7095 42.4792 35.8438C42.5284 35.9218 42.616 35.9856 42.674 35.9856C42.7319 35.9856 43.1004 35.8381 43.4927 35.6577C44.0658 35.3942 44.2143 35.3509 44.2478 35.4373C44.3064 35.5886 44.4567 35.5731 45.0676 35.3529C45.5539 35.1775 45.6125 35.1706 45.7188 35.2759C45.7831 35.3395 45.8764 35.3791 45.9263 35.3637C45.9761 35.3484 46.292 35.248 46.6283 35.1406C47.1637 34.9696 47.2531 34.9586 47.3478 35.0523C47.4424 35.146 47.5828 35.1374 48.4773 34.9824C49.0391 34.8851 49.7502 34.7431 50.0575 34.6668C50.6142 34.5286 50.8759 34.4898 50.8759 34.5455ZM23.8907 42.6136C24.2187 42.6808 24.3587 42.6819 24.4615 42.6183C24.5364 42.572 24.66 42.5493 24.7361 42.568C25.1535 42.6706 26.4486 42.7921 26.5526 42.7385C26.6546 42.6861 28.1912 42.8429 28.542 42.9415C28.699 42.9857 26.8737 43.8421 26.7118 43.8002C26.6365 43.7807 26.1856 43.9459 25.7097 44.1674C25.2104 44.3998 24.7842 44.5545 24.7022 44.5332C24.6239 44.5129 24.3846 44.5843 24.1704 44.6918C23.9175 44.8188 23.7191 44.872 23.6048 44.8436C23.4874 44.8145 23.2765 44.876 22.9722 45.0281C22.5875 45.2205 22.4901 45.2429 22.3538 45.1707C22.2203 45.0999 22.109 45.1184 21.7158 45.2768C21.3267 45.4335 21.2104 45.4532 21.0805 45.3844C20.9527 45.3169 20.8377 45.3313 20.4958 45.4581C20.1094 45.6012 20.0582 45.6053 19.9426 45.5017C19.8278 45.3987 19.7624 45.3986 19.2751 45.5001C18.8392 45.5909 18.7131 45.5948 18.6223 45.5202C18.5518 45.4621 18.351 45.4367 18.084 45.4519C17.8132 45.4674 17.6385 45.4448 17.6042 45.3899C17.5662 45.3289 17.3997 45.3185 17.0379 45.3545C16.6544 45.3926 16.495 45.3804 16.4045 45.306C16.3202 45.2366 15.9846 45.1988 15.2935 45.1809C14.7489 45.1668 14.3033 45.1338 14.3034 45.1075C14.3035 45.0811 14.6958 44.9273 15.1751 44.7657C15.6544 44.604 16.1178 44.4027 16.2049 44.3183C16.2935 44.2324 16.5643 44.1226 16.8201 44.0688C17.1151 44.0068 17.3026 43.9254 17.3493 43.8389C17.3978 43.7492 17.5458 43.6887 17.7981 43.6556C18.0239 43.6259 18.2283 43.549 18.3087 43.4635C18.3866 43.3807 18.578 43.3065 18.7655 43.2864C19.4495 43.2133 19.5538 43.1828 19.5903 43.045C19.6225 42.9226 19.6815 42.9119 20.1291 42.9476C20.5552 42.9814 20.6465 42.9676 20.7285 42.8565C20.8119 42.7435 20.8953 42.7324 21.3387 42.7756C21.7491 42.8157 21.8749 42.8033 21.9653 42.7138C22.0564 42.6235 22.195 42.6106 22.679 42.6476C23.1084 42.6804 23.2795 42.6694 23.2795 42.6091C23.2795 42.5031 23.3526 42.5036 23.8907 42.6136ZM35.5146 42.612C35.6239 42.6796 35.7686 42.6787 36.1559 42.6081C36.5456 42.5369 36.6682 42.5363 36.7113 42.6054C36.7512 42.6694 36.9304 42.6804 37.3574 42.6452C37.8436 42.605 37.9652 42.6167 38.0441 42.7108C38.1223 42.8041 38.2358 42.8158 38.6591 42.7746C39.1083 42.7307 39.1913 42.7416 39.275 42.855C39.3565 42.9653 39.4485 42.98 39.8536 42.9479C40.2756 42.9143 40.3474 42.9275 40.4325 43.0544C40.5068 43.1652 40.6571 43.2131 41.0723 43.2582C41.4843 43.303 41.6396 43.3521 41.7174 43.4622C41.7854 43.5582 41.9456 43.6237 42.1923 43.6561C42.4433 43.6891 42.5885 43.7492 42.6381 43.8409C42.6882 43.9337 42.8656 44.0056 43.1979 44.0677C43.5073 44.1255 43.7085 44.2036 43.7511 44.2823C43.7893 44.3529 44.2174 44.5461 44.7496 44.7328C45.262 44.9125 45.6816 45.0811 45.6821 45.1075C45.6826 45.1338 45.2374 45.1668 44.6928 45.1809C43.9966 45.1989 43.6664 45.2363 43.5805 45.307C43.4896 45.3817 43.337 45.3945 42.9835 45.3571C42.6251 45.319 42.4852 45.3313 42.4137 45.4071C42.3472 45.4776 42.2179 45.4947 41.9795 45.4644C41.7927 45.4407 41.6185 45.406 41.5922 45.3873C41.5658 45.3687 41.4791 45.4119 41.3993 45.4834C41.2637 45.605 41.2197 45.6061 40.7127 45.5004C40.2251 45.3988 40.1583 45.3989 40.0448 45.5007C39.9306 45.603 39.8781 45.5986 39.4971 45.4542C39.1515 45.3232 39.0462 45.3101 38.9113 45.3815C38.7744 45.454 38.667 45.4364 38.2705 45.2768C37.8773 45.1184 37.766 45.0999 37.6324 45.1707C37.4959 45.243 37.3972 45.2197 36.9995 45.0209C36.6534 44.8478 36.4978 44.8046 36.4135 44.8581C36.3298 44.9112 36.1865 44.875 35.8835 44.7243C35.6551 44.6106 35.3714 44.519 35.2529 44.5207C35.1345 44.5223 34.6783 44.3553 34.2391 44.1496C33.7999 43.9439 33.3659 43.7799 33.2747 43.7851C33.0647 43.7971 31.2966 42.9835 31.4428 42.9421C31.8198 42.8352 33.396 42.6762 33.4705 42.7375C33.5264 42.7834 33.8684 42.762 34.4454 42.6764C34.9344 42.6039 35.3432 42.54 35.354 42.5346C35.3647 42.5291 35.437 42.564 35.5146 42.612ZM30.0864 48.4068C30.0696 53.0153 30.0537 53.6559 29.956 53.6559C29.8583 53.6559 29.8425 53.0247 29.8257 48.4906C29.807 43.4091 29.8276 42.8825 30.0376 43.0904C30.0776 43.1301 30.0976 45.3064 30.0864 48.4068ZM28.9917 43.5263C28.9917 43.6089 28.6687 44.1027 28.5785 44.158C28.5305 44.1874 28.3519 44.4436 28.1817 44.7274C28.0115 45.0112 27.8399 45.2433 27.8002 45.2433C27.7606 45.2433 27.6724 45.359 27.6043 45.5004C27.5362 45.6418 27.4376 45.7576 27.3852 45.7576C27.3328 45.7576 27.2138 45.8896 27.1207 46.0509C27.0277 46.2122 26.9102 46.3445 26.8595 46.3448C26.8089 46.3451 26.6921 46.4606 26.5999 46.6016C26.5078 46.7425 26.3936 46.8583 26.3462 46.8588C26.2988 46.8592 26.1758 46.9589 26.0728 47.0801C25.9698 47.2013 25.8398 47.3005 25.784 47.3005C25.7282 47.3005 25.5693 47.4162 25.4308 47.5577C25.2924 47.6991 25.1242 47.8148 25.0569 47.8148C24.9896 47.8148 24.8741 47.8809 24.8003 47.9618C24.7265 48.0426 24.6189 48.1087 24.5613 48.1087C24.5037 48.1087 24.3472 48.1914 24.2134 48.2924C24.0797 48.3934 23.9233 48.4762 23.866 48.4764C23.8087 48.4765 23.6532 48.5421 23.5206 48.6222C23.2308 48.7972 23.2261 48.781 23.465 48.4324C23.567 48.2835 23.6504 48.1224 23.6504 48.0745C23.6504 48.0266 23.7339 47.9097 23.8359 47.8148C23.9379 47.7199 24.0213 47.5879 24.0213 47.5214C24.0213 47.4549 24.1048 47.3286 24.2068 47.2408C24.3088 47.1529 24.3923 47.0414 24.3923 46.9928C24.3923 46.9442 24.4938 46.8035 24.6179 46.68C26.0072 45.2977 26.1101 45.2018 26.321 45.0942C26.423 45.0421 26.5501 44.9386 26.6035 44.8642C26.6567 44.7898 26.746 44.7289 26.8018 44.7289C26.8575 44.7289 26.9975 44.6507 27.1128 44.5551C27.2282 44.4595 27.5061 44.2905 27.7305 44.1796C27.9549 44.0687 28.2053 43.9196 28.2869 43.8481C28.549 43.6186 28.9917 43.4165 28.9917 43.5263ZM31.3932 43.6303C31.582 43.713 31.7365 43.8122 31.7365 43.8508C31.7365 43.8894 31.9868 44.0419 32.2928 44.1898C32.5988 44.3376 32.8492 44.4813 32.8492 44.5091C32.8492 44.537 32.9827 44.6193 33.146 44.6922C33.3092 44.7651 33.4427 44.8643 33.4427 44.9126C33.4427 44.961 33.5733 45.0588 33.733 45.1302C33.8926 45.2014 34.0394 45.3211 34.0592 45.3961C34.079 45.471 34.2155 45.5892 34.3624 45.6586C34.5094 45.728 34.6296 45.8298 34.6296 45.8848C34.6296 45.9398 34.7296 46.0412 34.8517 46.11C34.9738 46.1788 35.074 46.2752 35.0743 46.3241C35.0745 46.3731 35.2 46.5435 35.3529 46.7029C35.7351 47.101 35.9649 47.4142 35.9649 47.5372C35.9649 47.594 36.0651 47.7354 36.1875 47.8516C36.3099 47.9677 36.4108 48.1144 36.4117 48.1776C36.4126 48.2407 36.4786 48.3751 36.5584 48.4761C36.7687 48.7423 36.7399 48.7878 36.4657 48.6222C36.333 48.5421 36.1806 48.4765 36.1269 48.4764C36.0732 48.4762 35.9198 48.3934 35.7861 48.2924C35.6523 48.1914 35.4928 48.1087 35.4316 48.1087C35.3704 48.1087 35.2598 48.0426 35.186 47.9618C35.1122 47.8809 34.9967 47.8148 34.9294 47.8148C34.8621 47.8148 34.6939 47.6991 34.5554 47.5577C34.417 47.4162 34.2508 47.3005 34.1859 47.3005C34.1212 47.3005 34.009 47.2013 33.9367 47.0801C33.8643 46.9589 33.7574 46.8597 33.6988 46.8597C33.6403 46.8597 33.517 46.7444 33.4248 46.6034C33.3327 46.4625 33.2072 46.3465 33.146 46.3457C33.0848 46.3449 32.9586 46.2122 32.8655 46.0509C32.7725 45.8896 32.6496 45.7576 32.5924 45.7576C32.5351 45.7576 32.4666 45.6897 32.44 45.6069C32.4135 45.524 32.3027 45.3627 32.1939 45.2485C32.0851 45.1343 31.871 44.8466 31.7182 44.6093C31.5653 44.3721 31.3411 44.0456 31.2199 43.884C31.0175 43.614 30.9519 43.4799 31.0223 43.4799C31.0375 43.4799 31.2044 43.5476 31.3932 43.6303Z" fill="#D4D9B9"/>
</svg>
