<svg width="60" height="60" viewBox="0 0 60 60" fill="none" xmlns="http://www.w3.org/2000/svg">
<path d="M30.5326 40.8681C29.6807 40.5576 29.6121 38.041 28.865 37.7124C28.8036 38.1529 28.7495 38.3082 28.6484 38.6512C28.5979 39.0339 28.2911 38.9328 27.9084 38.9761C27.8471 39.1458 27.6233 40.0449 27.5475 40.276C27.5186 40.3663 27.2732 40.8898 27.3815 41.3411C27.5186 41.4783 27.5042 41.7672 27.4897 41.8502C28.3308 41.6589 29.7601 41.2509 30.5326 40.8681ZM31.1209 35.0585C31.5866 35.676 32.3626 36.9 32.9365 37.4633C33.0665 36.6617 32.6514 35.4016 32.2363 34.7552C31.915 34.8563 31.601 35.1127 31.1209 35.0585ZM52.4713 28.2813C52.4316 27.9924 52.3883 27.7072 52.3486 27.4183C52.2655 26.8478 52.2042 26.2701 52.0959 25.7032C51.8396 24.3384 51.4498 23.0097 50.9372 21.7207C50.0673 19.5398 48.8979 17.5359 47.4143 15.7161C47.1978 15.4525 46.9776 15.1925 46.7502 14.9398C46.7141 14.9001 46.678 14.8604 46.6419 14.8206C46.5841 14.7556 46.5228 14.6906 46.4614 14.6257C45.6709 13.7735 44.8155 12.99 43.895 12.2751C43.8337 12.2282 43.7723 12.1812 43.711 12.1343C43.6388 12.0801 43.5702 12.026 43.498 11.9754C43.48 11.961 43.4619 11.9465 43.4439 11.9321C43.3897 11.8924 43.3356 11.8526 43.2814 11.8129C43.2092 11.7588 43.1334 11.7082 43.0612 11.6541C42.9891 11.6035 42.9133 11.5494 42.8411 11.4988C42.7653 11.4483 42.6931 11.3977 42.6173 11.3472C42.4296 11.2208 42.2419 11.098 42.0506 10.9753C41.9676 10.9211 41.8809 10.8705 41.7979 10.8164C41.6391 10.7189 41.4803 10.6214 41.3178 10.5275C40.1917 9.87038 39.0114 9.31434 37.7733 8.86661C37.7119 8.84134 37.647 8.81967 37.5856 8.79801C37.5387 8.77995 37.4881 8.76551 37.4412 8.74746C37.3004 8.70052 37.1597 8.64997 37.0189 8.60664C36.8312 8.54526 36.6435 8.48749 36.4522 8.42972C36.3872 8.41166 36.3223 8.39 36.2573 8.37195C35.5209 8.1553 34.7738 7.97838 34.0158 7.84117C33.7595 7.79424 33.496 7.75813 33.2361 7.72563C32.8066 7.67147 32.377 7.63175 31.9475 7.58121C31.3195 7.52704 30.6842 7.50177 30.0417 7.50177C25.3709 7.50177 21.0287 8.92799 17.4336 11.3652C17.4119 11.3905 17.3903 11.423 17.3722 11.4555C17.6827 11.2894 17.9931 11.1197 18.3035 10.9536C19.4802 10.3217 20.7074 9.809 21.978 9.41182C22.7216 9.18074 23.4759 8.97493 24.2339 8.81245C25.1941 8.60664 26.165 8.48749 27.1504 8.41527C28.19 8.33945 29.2259 8.36111 30.2619 8.44416C31.0523 8.50554 31.8392 8.63192 32.6189 8.78356C34.0085 9.05437 35.3513 9.49848 36.6399 10.0834C37.9538 10.6792 39.1954 11.4049 40.3505 12.2715C41.8521 13.3944 43.1587 14.7087 44.2416 16.236C45.245 17.6514 45.9922 19.2004 46.5372 20.8433C46.9343 22.0456 47.205 23.2733 47.371 24.5334C47.5154 25.6238 47.5551 26.7142 47.4938 27.8047C47.4216 29.1081 47.2014 30.3971 46.826 31.6537C46.3856 33.134 45.7359 34.5242 44.9526 35.8457C44.6314 36.3873 44.238 36.8892 43.8373 37.3802C43.4042 37.911 42.953 38.4309 42.4693 38.9184C41.5272 39.8644 40.4949 40.702 39.3831 41.4386C37.7011 42.5543 35.8963 43.4065 33.9508 43.9589C32.7019 44.3127 31.4386 44.5691 30.1464 44.663C29.6518 44.6991 29.1537 44.7352 28.6267 44.7749C28.5509 45.0313 28.4715 45.2876 28.3957 45.544C28.3019 45.8581 28.2911 45.9014 27.9879 45.8653C27.6052 45.8184 27.4067 46.0061 27.2623 46.3058C27.1504 46.5369 27.0349 46.7644 26.9411 46.9991C26.8617 47.2013 26.84 47.4035 26.905 47.6273C26.9627 47.8295 26.9483 48.057 26.9339 48.27C26.9194 48.4903 26.7534 48.6744 26.544 48.6672C25.9088 48.6419 25.3565 48.8911 24.8187 49.1727C24.2592 49.4688 23.6997 49.541 23.1222 49.2197C23.0428 49.1763 22.9381 49.1763 22.8515 49.1474C22.6169 49.068 22.5302 48.9308 22.5483 48.6889C22.5627 48.4831 22.6349 48.3784 22.8479 48.3964C23.4074 48.4434 23.79 48.1328 24.1618 47.7934C24.5299 47.4576 24.8909 47.1146 25.2554 46.7752C25.5586 46.4936 25.7355 46.1289 25.8799 45.7498C25.9629 45.5404 25.981 45.3598 25.8005 45.1576C25.6922 45.0349 25.703 44.811 25.6417 44.5691C25.4107 44.5258 25.1399 44.468 24.8656 44.4174C22.8334 44.0419 20.9132 43.3776 19.1301 42.316C19.0507 42.2691 18.9713 42.2149 18.8918 42.1644C18.7944 42.103 18.6969 42.0199 18.7763 41.908C18.816 41.8539 18.9424 41.8286 19.0218 41.8394C19.343 41.8863 19.6571 41.9586 19.9747 42.0127C20.8663 42.1644 21.7686 42.2294 22.671 42.233C22.7757 42.233 22.8804 42.2113 22.9995 42.2005C23.0067 42.1716 23.0139 42.1427 23.0211 42.1174C23.0645 41.9333 23.2161 41.7961 23.4038 41.7744C23.707 41.7347 24.0138 41.695 24.3097 41.6228C24.7248 41.5217 25.0317 41.2184 25.3421 40.9404C25.6561 40.6587 25.916 40.3265 26.0387 39.9185C26.1578 39.5213 26.2805 38.9942 26.3888 38.5862C25.9773 38.4995 25.9485 38.3623 26.1434 37.7593C26.3816 37.0191 26.5549 36.2573 26.7534 35.5027C26.8256 35.2319 26.8797 34.9611 26.9555 34.6361C26.5477 34.5458 26.1831 34.4628 25.8221 34.387C25.6633 34.3545 25.5045 34.3256 25.3421 34.3147C25.1327 34.2967 24.9161 34.275 24.7068 34.2931C23.9416 34.3545 23.3352 34.0078 23.0392 33.3471C22.884 33.0004 22.9706 32.6574 23.032 32.318C23.0464 32.2494 23.1114 32.1736 23.1764 32.1303C23.512 31.9028 23.8586 31.7475 24.2628 31.9786C24.3314 32.0183 24.4144 32.0364 24.4902 32.0653C24.8656 32.2169 25.241 32.3577 25.5334 32.661C25.8763 33.0221 26.3636 33.0835 26.8039 33.2315C26.905 33.264 27.0133 33.2821 27.1216 33.3001C27.5511 33.3724 27.8435 33.1232 27.7929 32.6899C27.746 32.3072 27.6486 31.9281 27.5619 31.549C27.5475 31.4912 27.5114 31.4298 27.4681 31.3829C27.1974 31.094 27.1757 30.7654 27.3057 30.4116C27.3634 30.2491 27.4212 30.0902 27.5006 29.87C27.0674 29.805 26.674 29.7472 26.2805 29.6822C26.0026 29.6389 25.7211 29.6028 25.4504 29.5342C25.2338 29.4764 25.1869 29.3573 25.241 29.1334C25.3096 28.8373 25.3962 28.7507 25.6344 28.7868C26.3672 28.8915 27.0963 28.9962 27.8254 29.1262C28.1286 29.1803 28.4066 29.1731 28.6989 29.0865C29.031 28.9854 29.3378 29.1262 29.5508 29.397C29.6302 29.4981 29.7854 29.5595 29.919 29.5956C30.4929 29.7544 30.5217 29.7978 30.3268 30.3646C30.3196 30.3899 30.2943 30.408 30.2655 30.4477C30.0164 30.4116 29.7601 30.3719 29.54 30.3394C29.3775 30.8521 29.2079 31.3143 29.0815 31.7909C29.0166 32.0328 29.0346 32.2964 29.0094 32.5816C29.1068 32.6105 29.2079 32.6322 29.3017 32.6719C29.4497 32.7369 29.6266 32.7802 29.7313 32.8885C30.0056 33.1702 30.2691 33.0763 30.5651 32.9463C31.3447 32.6069 31.9836 32.1194 32.4131 31.5417C32.3482 31.2601 32.1821 31.1265 31.8934 31.1409C31.7706 31.1482 31.6479 31.1518 31.5216 31.1409C31.139 31.1157 31.0415 31.0471 30.9549 30.7149C30.8755 30.3935 30.8033 30.0686 30.7167 29.7472C30.7022 29.6858 30.6481 29.6353 30.612 29.5775C30.4496 29.3139 30.4532 29.267 30.6553 29.0504C30.7094 28.9926 30.7672 28.9348 30.8286 28.8807C30.9657 28.7579 31.0632 28.6315 31.0054 28.4221C30.9621 28.2632 30.9513 28.0971 30.7311 28.1044C30.76 27.8011 30.778 27.5447 30.8105 27.2956C30.8286 27.162 30.8466 27.0536 30.7672 26.9164C30.6806 26.7684 30.7636 26.5987 30.8899 26.4832C30.9693 26.4109 31.0668 26.364 31.1678 26.299V25.8621C31.305 25.8874 31.4241 25.891 31.5252 25.9343C31.7995 26.0571 32.0702 26.0571 32.3518 25.974C32.5828 25.9054 32.8246 25.8621 33.0629 25.8152C33.4382 25.7466 33.8136 25.7177 34.1782 25.8621C34.2143 25.8766 34.254 25.8946 34.2937 25.8982C35.0337 25.956 35.4921 26.429 35.8855 26.9887C35.9757 27.1186 36.084 27.1475 36.2068 27.2017C36.4594 27.31 36.463 27.3967 36.3547 27.6602C36.2826 27.8263 36.2645 28.0213 36.2537 28.2055C36.2392 28.581 36.2428 28.9601 36.0624 29.3103C35.8963 29.6389 35.7086 29.9422 35.3838 30.1444C35.3152 30.1877 35.2466 30.231 35.1203 30.3033C35.4054 30.4477 35.5137 30.5993 35.6004 30.8088C35.7086 31.0615 35.9108 31.2745 36.084 31.4948C36.5605 32.105 36.8312 32.8055 36.9648 33.5529C37.073 34.1631 37.1127 34.7805 37.1849 35.3979C37.1958 35.4918 37.2102 35.5821 37.2319 35.7193C37.304 35.6651 37.3618 35.6399 37.3979 35.6001C38.4447 34.4014 39.2171 33.0366 39.8018 31.5598C40.1845 30.5921 40.5057 29.6064 40.6356 28.5737C41.6571 18.6985 34.3478 12.499 31.0704 11.1161C29.9948 10.7189 28.8902 10.4517 27.7496 10.3145C26.7029 10.1917 25.6597 10.1665 24.6021 10.2242C23.2485 10.2964 21.9311 10.5167 20.6352 10.8886C18.3468 11.5457 16.2569 12.6037 14.398 14.0949C13.5461 14.7773 12.7917 15.5464 12.1204 16.3841C11.5681 17.0737 11.07 17.8067 10.6152 18.5794C9.6334 20.2475 8.87901 22.0095 8.35563 23.8726C8.01272 25.0894 7.7781 26.3279 7.64816 27.588C7.5507 28.516 7.4749 29.4403 7.50739 30.3719C7.54348 31.4226 7.63372 32.4661 7.79615 33.5059C8.03438 35.0297 8.4206 36.5064 8.96203 37.9471C9.42766 39.1819 10.0016 40.3699 10.6802 41.5036C10.9003 41.8719 11.1314 42.2294 11.3696 42.5796C11.4093 42.6374 11.4454 42.6915 11.4851 42.7493C11.5104 42.7854 11.5356 42.8215 11.5609 42.8576C11.6042 42.9226 11.6475 42.984 11.6944 43.0454C11.7305 43.0959 11.7666 43.1465 11.8027 43.197C11.8605 43.2765 11.9182 43.3559 11.976 43.4353C12.0337 43.5112 12.0915 43.5906 12.1492 43.6664C12.207 43.7422 12.2647 43.8181 12.3261 43.8939C12.3803 43.9589 12.4308 44.0275 12.4849 44.0925C12.4921 44.0997 12.4958 44.1069 12.503 44.1178C12.5463 44.1719 12.5932 44.2297 12.6401 44.2838C12.7051 44.3633 12.7701 44.4427 12.8387 44.5222C12.9181 44.6124 12.9975 44.7063 13.0769 44.7966C13.1563 44.8904 13.2393 44.9807 13.3223 45.0746C13.4162 45.1793 13.51 45.2804 13.6075 45.3815C13.6616 45.4393 13.7158 45.497 13.7735 45.5548C13.8168 45.6017 13.8602 45.6451 13.9035 45.6884C14.0298 45.8184 14.1597 45.9484 14.2897 46.0747C14.3114 46.0964 14.333 46.1181 14.3583 46.1397C14.3835 46.165 14.4124 46.1903 14.4377 46.2156C14.4954 46.2733 14.5568 46.3275 14.6146 46.3853C14.9178 46.6705 15.2246 46.9449 15.5422 47.2121C15.6036 47.2627 15.6613 47.3132 15.7263 47.3638C15.7732 47.4035 15.8201 47.4432 15.8707 47.4829C15.914 47.519 15.9573 47.5515 16.0006 47.5876C16.0584 47.631 16.1125 47.6743 16.1703 47.7212C16.2208 47.7609 16.2713 47.8007 16.3182 47.8368C16.4482 47.9379 16.5817 48.0354 16.7153 48.1365C16.7875 48.187 16.8561 48.2376 16.9283 48.2917C17.0221 48.3603 17.116 48.4253 17.2098 48.4903C17.3036 48.5553 17.4011 48.6203 17.495 48.6853C17.578 48.743 17.6646 48.7972 17.7476 48.8514C19.0182 49.6782 20.3717 50.3715 21.8083 50.942C23.1619 51.4799 24.5588 51.8699 25.9882 52.1299C26.7245 52.2635 27.4645 52.361 28.208 52.426C28.2911 52.4332 28.3741 52.4404 28.4571 52.444C28.5112 52.4476 28.5654 52.4512 28.6195 52.4548C28.7025 52.4584 28.7856 52.4657 28.8686 52.4693C29.1573 52.4837 29.4461 52.4946 29.7349 52.4982C29.8179 52.4982 29.9009 52.4982 29.9839 52.4982H30.0236C30.3557 52.4982 30.6878 52.4873 31.0199 52.4693C34.4706 52.2851 37.7372 51.4005 40.7728 49.736C42.9638 48.5336 44.9093 47.0171 46.5986 45.1685C48.7535 42.8071 50.3272 40.1027 51.3451 37.0733C51.7999 35.7193 52.1031 34.3256 52.3089 32.9138C52.363 32.5527 52.3738 32.188 52.4135 31.827C52.4208 31.7475 52.4424 31.6681 52.4605 31.5887C52.4749 31.3612 52.4893 31.1301 52.5002 30.9026V29.0901C52.4893 28.8157 52.4749 28.5449 52.4532 28.2704L52.4713 28.2813ZM24.4397 26.8226C24.2484 26.6492 24.252 26.7648 23.8586 26.5843C23.4651 26.4073 23.4759 25.9343 23.4759 25.9343C23.4759 25.9343 23.5048 26.1365 23.725 26.2954C23.9452 26.4543 24.1942 26.3532 24.5119 26.4723C24.8259 26.5915 24.7321 26.9706 24.5083 27.3569C24.5624 27.2486 24.631 26.9959 24.4397 26.8226V26.8226ZM25.9593 24.6742C26.2192 24.7356 26.5874 24.5767 26.8797 24.602C27.1721 24.6273 27.6233 24.9703 27.645 25.6563C27.6702 26.3423 27.2262 26.7648 26.7173 26.985C26.2084 27.2053 25.7536 27.5303 25.5262 27.8191C25.3132 28.0935 25.2157 28.516 25.2049 28.5665C25.2121 28.516 25.2627 28.1477 25.4323 27.8697C25.6164 27.5664 26.2481 27.0825 26.7101 26.6312C27.1721 26.1799 27.1035 25.5263 26.6451 25.0967C26.2011 24.6778 25.4648 24.8331 25.4251 24.8403C25.4504 24.8222 25.7175 24.6128 25.9629 24.6706L25.9593 24.6742ZM22.7252 21.2729C22.8226 21.3596 23.0139 21.3524 23.1691 21.486C23.3243 21.6159 23.3099 21.8434 23.3496 21.8831C23.3893 21.9229 23.4471 21.9554 23.4398 22.1756C23.4326 22.3922 23.1114 22.4825 23.1042 22.4825C23.2738 22.3814 23.3568 22.2839 23.3171 22.172C23.2774 22.0601 23.328 21.9698 23.2522 21.8868C23.1764 21.8001 22.967 21.7459 22.8082 21.5365C22.6602 21.3415 22.6024 21.1213 22.5952 21.0924C22.5988 21.1068 22.6313 21.1935 22.7216 21.2729H22.7252ZM22.0935 23.4141C22.5086 23.2083 23.7394 22.8255 23.8333 22.1106C23.9271 21.3957 23.4254 21.2296 23.2449 21.1791C23.6925 21.244 23.9777 21.5185 24.0102 21.9987C24.0426 22.4789 23.7178 22.9663 23.2594 23.3455C22.801 23.721 22.4833 24.5839 23.0175 25.1364C23.1764 25.3025 23.3857 25.3025 23.6023 25.2122C23.7394 24.8981 23.9813 24.5442 24.104 24.1759C24.2448 23.7463 24.3892 23.1144 24.9053 23.2841C25.4215 23.4502 25.2591 24.147 24.9919 24.5514C24.8476 24.7681 24.4072 25.1761 23.873 25.418C23.9055 25.4866 23.9921 25.5299 24.1545 25.5516C24.4974 25.5985 24.7862 25.4938 25.0966 25.2664C25.407 25.0389 26.0892 25.01 26.36 25.5949C26.6307 26.1799 26.4249 26.624 26.0315 27.0681C25.6417 27.5158 25.1724 27.7433 25.0786 28.2343C24.9847 28.7254 25.0064 28.8482 25.1616 29.007C25.3168 29.1659 25.2482 29.1659 25.0353 28.9854C25.0353 28.9854 24.4541 28.4474 24.5696 27.848C24.6851 27.2486 25.2988 26.7106 25.0353 26.2557C24.7718 25.8007 24.3964 25.9452 24.0499 25.956C23.7611 25.9668 23.5337 25.8007 23.5193 25.548C23.1475 25.6527 22.7576 25.6527 22.3967 25.4505C21.3752 24.8764 21.6784 23.6235 22.0935 23.4177V23.4141ZM24.8945 24.0496C25.0064 23.591 24.6166 23.6018 24.5011 23.9954C24.3855 24.3781 24.2015 24.7609 24.0029 25.0497C24.4036 24.8258 24.8367 24.2915 24.8945 24.0496V24.0496Z" fill="url(#paint0_radial_62_2105)"/>
<path d="M11.9777 35.9359C11.9777 35.9359 11.9885 35.9648 11.9957 35.9792C12.0282 36.0478 12.0787 36.0912 12.1509 36.1164C12.2376 36.1453 12.3278 36.1525 12.4289 36.1453C12.5263 36.1381 12.613 36.12 12.6851 36.102C12.7862 36.0731 12.8873 36.0334 12.992 35.9864C13.0353 35.9648 13.0786 35.9431 13.1183 35.9178C13.2663 35.8348 13.3998 35.7373 13.5189 35.6182C13.6381 35.499 13.7211 35.369 13.768 35.2246C13.7824 35.1668 13.7861 35.1235 13.768 35.0946C13.7644 35.0838 13.7572 35.0766 13.75 35.0729C13.7211 35.0513 13.6778 35.0441 13.6272 35.0513C13.5767 35.0585 13.5334 35.0693 13.4937 35.0802C13.4937 35.0802 13.4865 35.0802 13.4829 35.0802C13.3926 35.1054 13.3096 35.1343 13.2266 35.174C13.1833 35.1957 13.1436 35.2174 13.1002 35.2426C13.0822 35.2535 13.0786 35.2751 13.0894 35.304C13.1002 35.3329 13.1147 35.369 13.1363 35.416C13.158 35.4593 13.1797 35.5134 13.2049 35.5748C13.2157 35.6073 13.2085 35.6362 13.1869 35.6543C13.1616 35.6759 13.1399 35.6904 13.1183 35.7012C13.1075 35.7084 13.093 35.712 13.0786 35.7156C13.0425 35.7265 13.0136 35.7301 12.9992 35.7229C12.9811 35.712 12.9631 35.6904 12.9414 35.6579C12.9198 35.6254 12.9017 35.5893 12.8801 35.5532C12.862 35.5171 12.8476 35.4882 12.8367 35.4665C12.7898 35.369 12.7573 35.2788 12.7393 35.1885C12.7212 35.0982 12.7393 35.0296 12.8043 34.9827C12.8476 34.9538 12.9053 34.9213 12.9739 34.8888C13.0208 34.8671 13.0714 34.8419 13.1291 34.8202C13.2699 34.7624 13.4107 34.7191 13.5587 34.6866C13.703 34.6541 13.8258 34.6505 13.9196 34.6794C14.0026 34.7119 14.0568 34.7516 14.082 34.7985C14.1037 34.8455 14.1181 34.8707 14.1181 34.8744C14.1614 34.961 14.1867 35.0513 14.1975 35.1452C14.2192 35.3835 14.1651 35.6037 14.0279 35.8059C13.8907 36.0081 13.75 36.1525 13.6056 36.2392C13.4612 36.3258 13.3565 36.3872 13.2879 36.4197C13.1183 36.5028 12.945 36.5605 12.7609 36.593C12.5083 36.64 12.2809 36.6328 12.0751 36.5642C11.8694 36.4956 11.7214 36.362 11.6239 36.1634L11.6167 36.1453C11.5626 36.0081 11.5554 35.8817 11.5915 35.7698C11.6276 35.6579 11.6889 35.5604 11.7683 35.4737C11.8513 35.3907 11.9199 35.3329 11.9777 35.2968C12.0354 35.2607 12.0787 35.239 12.104 35.2282C12.1401 35.2101 12.1654 35.2029 12.187 35.1993C12.2123 35.1957 12.234 35.1993 12.252 35.221C12.27 35.239 12.2845 35.2607 12.2953 35.2824C12.3098 35.3076 12.3206 35.3293 12.3314 35.3474C12.3422 35.3654 12.3458 35.3835 12.3495 35.3943C12.3567 35.4196 12.3531 35.4376 12.3386 35.4557C12.3242 35.4701 12.2953 35.4918 12.2592 35.5171C12.2123 35.5459 12.1654 35.5784 12.1184 35.6182C12.0715 35.6579 12.0318 35.7012 12.0029 35.7554C11.9741 35.8059 11.9668 35.8673 11.9777 35.9359Z" fill="#003334"/>
<path d="M11.2558 35.073C11.2558 35.073 11.2269 35.073 11.2089 35.073C11.1908 35.073 11.1728 35.0657 11.1547 35.0549C11.1367 35.0441 11.1222 35.026 11.115 35.0008C11.0717 34.878 11.032 34.73 10.9887 34.553C10.9454 34.3761 10.9309 34.2245 10.9346 34.0981C10.9418 34.0584 10.9598 34.0331 10.9959 34.0223H11.0031C11.0392 34.0078 11.0789 34.0042 11.1186 34.0114C11.1583 34.0187 11.1836 34.0295 11.198 34.0439C11.2125 34.0656 11.2197 34.0909 11.2305 34.1125C11.2341 34.127 11.2414 34.1414 11.245 34.1559C11.2558 34.1956 11.263 34.2389 11.2666 34.2822C11.2702 34.3256 11.2775 34.3581 11.2811 34.3797C11.2847 34.405 11.2919 34.4194 11.2919 34.4267C11.2991 34.4519 11.3136 34.4736 11.328 34.4953C11.3533 34.5205 11.4182 34.5241 11.5157 34.5061C11.6168 34.488 11.7142 34.4628 11.8153 34.4303C11.9163 34.3978 11.9994 34.3725 12.0679 34.3472C12.1113 34.3328 12.1546 34.3183 12.1943 34.3003C12.299 34.2606 12.3639 34.2353 12.3964 34.2208C12.4217 34.2064 12.4325 34.1884 12.4253 34.1631C12.4181 34.1378 12.4108 34.1234 12.4108 34.1197C12.3964 34.0764 12.3748 34.0331 12.3495 33.9825C12.3206 33.9284 12.2953 33.8742 12.2773 33.8237V33.8092C12.2665 33.7767 12.2809 33.7515 12.3134 33.7298C12.3459 33.7081 12.3748 33.6937 12.4036 33.6829C12.4217 33.6756 12.4397 33.672 12.4614 33.6684C12.5119 33.6612 12.5444 33.6684 12.5624 33.6973C12.5769 33.7262 12.5949 33.7623 12.6094 33.802C12.631 33.8634 12.6563 33.9176 12.6852 33.9645C12.714 34.0114 12.7501 34.0367 12.7899 34.0367C12.8007 34.0367 12.8151 34.0331 12.8368 34.0259C12.8584 34.0187 12.8837 34.0078 12.9162 33.9934C12.9812 33.9681 13.0425 33.9392 13.1003 33.9067C13.158 33.8742 13.1905 33.8489 13.1977 33.8309C13.1977 33.8092 13.1977 33.7876 13.1869 33.7587C13.1833 33.7442 13.1761 33.7298 13.1689 33.7154C13.1472 33.6684 13.1219 33.6215 13.0894 33.5709C13.0497 33.5023 13.0173 33.4409 12.9992 33.3868C12.9848 33.3435 12.992 33.3073 13.0209 33.2821C13.0497 33.2532 13.0786 33.2351 13.1075 33.2279C13.1219 33.2207 13.14 33.2171 13.1544 33.2171C13.2049 33.2099 13.241 33.2243 13.2699 33.2604C13.3168 33.3254 13.371 33.4193 13.4396 33.5348C13.5081 33.6504 13.5731 33.7695 13.6309 33.8923C13.6417 33.9139 13.6525 33.9356 13.6597 33.9537C13.6778 33.9789 13.6886 34.0042 13.6995 34.0295C13.7103 34.062 13.7139 34.0945 13.7103 34.127C13.7031 34.1775 13.6381 34.2353 13.519 34.2931C13.306 34.3978 13.0858 34.4989 12.862 34.5891C12.6382 34.6794 12.4433 34.7552 12.2737 34.8166C12.169 34.8527 12.0643 34.8888 11.9633 34.9213C11.6926 35.008 11.4579 35.0585 11.2558 35.0766V35.073Z" fill="#003334"/>
<path d="M10.7794 32.6358C10.8516 32.6502 11.0068 32.6249 11.245 32.5708L11.3497 32.5455C11.6493 32.4697 11.9525 32.3866 12.2557 32.2964C12.5589 32.2061 12.7538 32.1447 12.8404 32.1158C12.8765 32.105 12.909 32.0906 12.9343 32.0797C12.9595 32.0689 12.9776 32.0617 12.9956 32.0544C13.0028 32.0544 13.0101 32.0544 13.0137 32.0544C13.0389 32.0544 13.0678 32.0617 13.1039 32.0797C13.1147 32.0906 13.1292 32.1158 13.1472 32.1628C13.1653 32.2097 13.1797 32.2639 13.1941 32.3252C13.2086 32.3866 13.2158 32.4408 13.2122 32.4913C13.2122 32.5419 13.1977 32.5744 13.1689 32.5888C13.1183 32.6141 13.0606 32.6358 12.9884 32.6574C12.6347 32.7621 12.2918 32.856 11.9561 32.9354C11.8911 32.9499 11.8225 32.9679 11.7539 32.9824L11.559 33.0257C11.3641 33.0727 11.162 33.1232 10.9526 33.181C10.9201 33.1882 10.9057 33.2063 10.9057 33.2315C10.9057 33.2568 10.9129 33.2785 10.9165 33.3001C10.9237 33.329 10.9346 33.3651 10.949 33.4048C10.9598 33.4337 10.9707 33.4662 10.9815 33.5059C10.9851 33.5168 10.9887 33.5276 10.9923 33.5384C10.9959 33.5601 10.9995 33.5782 10.9995 33.589C10.9995 33.607 10.9851 33.6251 10.9598 33.6395C10.9346 33.654 10.8913 33.672 10.8299 33.6937C10.8227 33.6937 10.8155 33.6973 10.8082 33.7009C10.7721 33.7081 10.7469 33.7045 10.7252 33.6901C10.7 33.672 10.6783 33.6287 10.6566 33.5601C10.6061 33.4085 10.5628 33.2676 10.5303 33.1376C10.4978 33.0041 10.4762 32.921 10.4653 32.8849C10.422 32.708 10.3968 32.5672 10.3859 32.4552C10.3859 32.383 10.3968 32.3397 10.4256 32.3252C10.4545 32.3108 10.4798 32.3 10.5014 32.2964C10.5267 32.2891 10.552 32.2855 10.5808 32.2855H10.6097C10.6386 32.2783 10.6566 32.2855 10.6711 32.3036C10.6855 32.3216 10.6927 32.3469 10.7 32.3794C10.7 32.3938 10.7072 32.4155 10.7108 32.4408C10.718 32.4841 10.7252 32.5238 10.736 32.5635C10.7469 32.6033 10.7577 32.6285 10.7758 32.6358H10.7794Z" fill="#003334"/>
<path d="M12.8187 29.2634C12.8368 29.3572 12.8476 29.4295 12.8476 29.4728V29.4836C12.8476 29.5306 12.8404 29.5594 12.8151 29.5703C12.7898 29.5811 12.7574 29.5919 12.7068 29.5992C12.6924 29.5992 12.6743 29.6028 12.6599 29.6064L12.2087 29.6822C12.169 29.693 12.1437 29.7255 12.1329 29.7761C12.1221 29.8266 12.1221 29.8844 12.1221 29.9422V29.9711C12.1293 30.0433 12.1365 30.1047 12.1437 30.1588C12.1546 30.2058 12.1654 30.231 12.1834 30.2383C12.2015 30.2455 12.2159 30.2455 12.2376 30.2455C12.2484 30.2455 12.2592 30.2455 12.2737 30.2419H12.2881C12.3639 30.231 12.4217 30.2238 12.4722 30.2166C12.5191 30.2094 12.5661 30.2021 12.6058 30.1985C12.6419 30.1913 12.6707 30.1877 12.696 30.1841C12.714 30.1841 12.7321 30.1841 12.7501 30.1841C12.7862 30.1877 12.8115 30.2166 12.8296 30.2635C12.8476 30.3105 12.862 30.3935 12.8693 30.5091C12.8693 30.5091 12.8693 30.5199 12.8693 30.5343C12.8693 30.5488 12.8693 30.5632 12.8693 30.5777C12.8693 30.5921 12.8693 30.6065 12.8693 30.621C12.8693 30.6318 12.8693 30.639 12.8693 30.6426C12.8548 30.6643 12.8368 30.6788 12.8115 30.686C12.7862 30.6932 12.7646 30.7004 12.7465 30.704C12.5588 30.7365 12.3675 30.7582 12.1762 30.769C12.0174 30.7799 11.8586 30.7907 11.6998 30.7979C11.328 30.8196 10.9598 30.834 10.5844 30.8412C10.5014 30.8412 10.4184 30.8448 10.3318 30.8485C10.3209 30.8485 10.3137 30.8485 10.3029 30.8485C10.2921 30.8485 10.2848 30.8485 10.2776 30.8485C10.2668 30.8485 10.2596 30.8485 10.2523 30.8485C10.2235 30.8485 10.1982 30.8485 10.1802 30.8376C10.1585 30.8268 10.1368 30.7907 10.1152 30.7329C10.1044 30.6968 10.0971 30.6571 10.0935 30.6138C10.0935 30.5813 10.0935 30.5488 10.0935 30.5127C10.1007 30.426 10.1224 30.3646 10.1621 30.3249C10.1802 30.3105 10.1982 30.3032 10.2126 30.2996C10.2271 30.296 10.2379 30.2996 10.2451 30.2996C10.2632 30.2996 10.2812 30.2996 10.2993 30.2996H10.3245C10.357 30.3032 10.3895 30.3032 10.422 30.3069C10.4797 30.3105 10.5411 30.3141 10.5989 30.3141C10.7866 30.3213 10.9382 30.3213 11.0501 30.3141C11.1619 30.3069 11.2594 30.3069 11.3388 30.2996C11.4182 30.2924 11.5049 30.2888 11.5915 30.2852C11.6204 30.2852 11.6492 30.2816 11.6817 30.278H11.6925C11.7395 30.278 11.7683 30.2671 11.7864 30.2527C11.8008 30.2383 11.8044 30.2166 11.8044 30.1841C11.8044 30.1769 11.8044 30.1696 11.8044 30.1624C11.79 30.0252 11.772 29.9205 11.7503 29.8591C11.7286 29.7941 11.707 29.758 11.6781 29.7436C11.6528 29.7291 11.6204 29.7255 11.5879 29.7255C11.5807 29.7255 11.5734 29.7255 11.5662 29.7255C11.3713 29.7436 11.1764 29.7544 10.9779 29.7653C10.7396 29.7797 10.505 29.7869 10.2704 29.7905H10.2596C10.2271 29.7905 10.191 29.7905 10.1549 29.7905C10.1188 29.7905 10.0899 29.7761 10.0755 29.7616C10.061 29.74 10.0502 29.7111 10.043 29.675C10.0358 29.6389 10.0322 29.61 10.0322 29.5847C10.0322 29.5631 10.0322 29.545 10.0322 29.5233C10.0322 29.4764 10.043 29.4403 10.061 29.4186C10.0791 29.4006 10.108 29.3897 10.1405 29.3861C10.1765 29.3861 10.2018 29.3825 10.2199 29.3825C10.2523 29.3825 10.2848 29.3825 10.3173 29.3825C10.3354 29.3825 10.3462 29.3825 10.357 29.3825C10.5231 29.3789 10.6783 29.3753 10.8154 29.3717C11.0537 29.3681 11.2775 29.3609 11.4868 29.35L11.6095 29.3428C11.8514 29.3284 12.1473 29.2923 12.4903 29.2345C12.5047 29.2345 12.5191 29.2309 12.5372 29.2236C12.5733 29.2164 12.6022 29.2092 12.631 29.202C12.6599 29.1984 12.6816 29.1948 12.696 29.1948C12.7177 29.1948 12.7393 29.1948 12.7574 29.1984C12.7898 29.2056 12.8079 29.22 12.8151 29.2489L12.8187 29.2634Z" fill="#003334"/>
<path d="M10.0827 28.9384C10.0466 28.9276 10.0213 28.8987 10.0069 28.859C9.99246 28.8192 9.98524 28.7542 9.99246 28.6712C9.99607 28.5701 10.0177 28.5015 10.0574 28.469C10.0971 28.4365 10.1657 28.4257 10.2704 28.4401C10.2812 28.4401 10.292 28.4401 10.3065 28.4401C10.3498 28.4401 10.3931 28.4473 10.4328 28.4582C10.4725 28.469 10.505 28.4907 10.5231 28.5268C10.5375 28.5629 10.5411 28.6134 10.5411 28.6748C10.5411 28.7362 10.5375 28.7904 10.5339 28.8265C10.5339 28.8553 10.5267 28.8806 10.5158 28.9023C10.505 28.9239 10.4834 28.9384 10.4545 28.9528C10.4545 28.9528 10.44 28.9601 10.4292 28.9601C10.422 28.9601 10.4148 28.9601 10.4039 28.9601C10.3967 28.9601 10.3895 28.9601 10.3787 28.9601C10.3281 28.9601 10.2776 28.9528 10.2271 28.9528C10.1693 28.9528 10.1224 28.9456 10.0899 28.9312L10.0827 28.9384ZM12.6455 28.5196C12.7032 28.5123 12.7501 28.5123 12.7826 28.5196C12.8151 28.5268 12.8404 28.5557 12.8548 28.6026C12.8693 28.6495 12.8729 28.729 12.8729 28.8373C12.8729 28.9095 12.8656 28.9564 12.8476 28.9781C12.8295 28.9998 12.7898 29.0142 12.7285 29.0178C12.6166 29.0287 12.5011 29.0359 12.3784 29.0359C12.2592 29.0359 12.1401 29.0359 12.0282 29.0359C11.6492 29.0323 11.2738 29.0178 10.8984 28.9925C10.8551 28.9925 10.8226 28.9817 10.7974 28.9637C10.7721 28.9456 10.7577 28.9167 10.7577 28.877C10.7577 28.8409 10.7577 28.8048 10.7577 28.7651C10.7577 28.7542 10.7577 28.7434 10.7577 28.7326C10.7577 28.7254 10.7577 28.7181 10.7577 28.7073C10.7577 28.682 10.7577 28.6568 10.7577 28.6279C10.7577 28.599 10.7649 28.5701 10.7757 28.5484C10.7866 28.5268 10.8046 28.5123 10.8263 28.5051C10.8479 28.5051 10.8732 28.5051 10.9057 28.5051C10.9382 28.5051 10.967 28.5087 10.9959 28.5123C11.0103 28.5123 11.0248 28.5123 11.0356 28.5123C11.5662 28.5484 12.0932 28.552 12.6238 28.5196C12.631 28.5196 12.6382 28.5196 12.6455 28.5196Z" fill="#003334"/>
<path d="M10.5844 27.1078C10.5844 27.1078 10.5772 27.1367 10.5772 27.1511C10.57 27.2233 10.5881 27.292 10.635 27.3497C10.6927 27.4183 10.7649 27.4761 10.8515 27.523C10.9382 27.57 11.0212 27.6025 11.0934 27.6241C11.1945 27.653 11.3027 27.6783 11.4146 27.6891C11.4616 27.6963 11.5085 27.7 11.559 27.7C11.7287 27.7108 11.8947 27.7 12.0571 27.6639C12.2196 27.6277 12.3603 27.5591 12.4794 27.4653C12.5228 27.4255 12.548 27.3894 12.5516 27.3569C12.5516 27.3461 12.5516 27.3353 12.5516 27.3281C12.5372 27.292 12.5083 27.2631 12.4614 27.245C12.4145 27.227 12.3712 27.2089 12.3315 27.1981C12.3315 27.1981 12.3242 27.1981 12.3206 27.1981C12.234 27.1692 12.1438 27.1511 12.0535 27.1403C12.0066 27.1331 11.9597 27.1331 11.9091 27.1295C11.8875 27.1295 11.8767 27.1439 11.8658 27.1728C11.8586 27.2017 11.8514 27.2414 11.8442 27.292C11.8369 27.3425 11.8297 27.3967 11.8153 27.4617C11.8081 27.4942 11.7864 27.5158 11.7539 27.5194C11.7214 27.523 11.6962 27.523 11.6709 27.5194C11.6565 27.5194 11.642 27.5158 11.6312 27.5122C11.5951 27.5014 11.5698 27.4905 11.559 27.4761C11.5482 27.458 11.5446 27.4292 11.5446 27.3894C11.5446 27.3497 11.5446 27.31 11.5518 27.2703C11.5554 27.2306 11.559 27.1981 11.5626 27.1764C11.5771 27.0717 11.5987 26.9742 11.6312 26.8876C11.6637 26.8009 11.7178 26.754 11.7972 26.7467C11.8514 26.7467 11.9164 26.7467 11.9885 26.7576C12.0391 26.7648 12.0968 26.772 12.1582 26.7828C12.3062 26.8081 12.4506 26.8478 12.5913 26.902C12.7321 26.9562 12.8332 27.0175 12.9018 27.0898C12.9559 27.162 12.9812 27.2233 12.9739 27.2775C12.9667 27.3317 12.9667 27.3569 12.9667 27.3606C12.9559 27.458 12.927 27.5483 12.8873 27.6314C12.779 27.8444 12.613 27.9996 12.3892 28.0971C12.1654 28.1946 11.9705 28.2416 11.8009 28.238C11.6312 28.2343 11.5085 28.2271 11.4363 28.2199C11.2522 28.1982 11.0717 28.1513 10.8985 28.0827C10.6602 27.9888 10.4725 27.8552 10.3354 27.6891C10.1982 27.523 10.1441 27.3281 10.1693 27.1078V27.0898C10.2018 26.9453 10.2596 26.837 10.3534 26.7612C10.4473 26.6854 10.5483 26.6348 10.6639 26.6095C10.7757 26.5843 10.8696 26.5698 10.9346 26.5734C10.9995 26.577 11.0501 26.5806 11.0789 26.5843C11.1187 26.5879 11.1439 26.5951 11.1656 26.6023C11.1908 26.6131 11.2053 26.6312 11.2089 26.6565C11.2125 26.6817 11.2125 26.707 11.2089 26.7323C11.2089 26.7612 11.2089 26.7865 11.2053 26.8045C11.2017 26.8226 11.1981 26.8406 11.1945 26.8551C11.1872 26.8803 11.1728 26.8948 11.1511 26.902C11.1295 26.9092 11.097 26.9092 11.0501 26.9092C10.9959 26.9092 10.9382 26.9092 10.8768 26.9164C10.8155 26.9237 10.7577 26.9417 10.7072 26.9706C10.6566 26.9995 10.6169 27.0464 10.5881 27.1114L10.5844 27.1078Z" fill="#003334"/>
<path d="M13.371 25.2772C13.3602 25.371 13.3493 25.4433 13.3385 25.4866V25.4974C13.3241 25.5407 13.306 25.566 13.2808 25.5732C13.2555 25.5805 13.2194 25.5768 13.1689 25.5732C13.1544 25.5732 13.1364 25.5696 13.1219 25.566L12.6671 25.5082C12.6238 25.5082 12.5913 25.5299 12.5697 25.5768C12.5444 25.6238 12.5264 25.6743 12.5119 25.7321L12.5047 25.761C12.4903 25.8296 12.4758 25.891 12.4686 25.9451C12.465 25.9921 12.4686 26.021 12.4831 26.0318C12.4975 26.0426 12.5119 26.0498 12.53 26.0535C12.5408 26.0535 12.5516 26.0571 12.5625 26.0607H12.5769C12.6491 26.0751 12.7105 26.086 12.761 26.0932C12.8079 26.1004 12.8512 26.1076 12.8945 26.1148C12.9306 26.1148 12.9595 26.1221 12.9848 26.1293C13.0028 26.1329 13.0209 26.1401 13.0353 26.1473C13.0678 26.1618 13.0859 26.1943 13.0895 26.2448C13.0931 26.2954 13.0822 26.3784 13.0534 26.4903C13.0534 26.4903 13.0534 26.5012 13.0461 26.5156C13.0425 26.5301 13.0389 26.5445 13.0353 26.559C13.0317 26.5734 13.0281 26.5878 13.0209 26.5987C13.0173 26.6095 13.0137 26.6167 13.0137 26.6203C12.9956 26.6348 12.974 26.6456 12.9487 26.6456C12.9234 26.6456 12.8982 26.6456 12.8801 26.6456C12.6924 26.6203 12.5011 26.5878 12.317 26.5409C12.1618 26.5048 12.0066 26.4687 11.8514 26.429C11.4904 26.3423 11.1331 26.2448 10.7721 26.1473C10.6927 26.1257 10.6097 26.104 10.5303 26.0823C10.5195 26.0787 10.5123 26.0751 10.505 26.0751C10.4978 26.0751 10.487 26.0715 10.4798 26.0715C10.4689 26.0715 10.4617 26.0715 10.4545 26.0679C10.4256 26.0607 10.404 26.0498 10.3895 26.0354C10.3715 26.0174 10.3607 25.9776 10.3607 25.9199C10.3607 25.8801 10.3643 25.8404 10.3751 25.8007C10.3823 25.7682 10.3931 25.7357 10.4076 25.7032C10.4401 25.6238 10.4798 25.5696 10.5267 25.5443C10.5484 25.5371 10.5664 25.5335 10.5844 25.5371C10.5989 25.5407 10.6097 25.5443 10.6169 25.5443C10.635 25.548 10.653 25.5552 10.6711 25.5624L10.6927 25.5732C10.7216 25.5841 10.7541 25.5949 10.783 25.6057C10.8371 25.6274 10.8949 25.6454 10.949 25.6635C11.1295 25.7249 11.2703 25.7682 11.3785 25.7971C11.4868 25.826 11.5807 25.8513 11.6601 25.8693C11.7395 25.8874 11.8225 25.909 11.9091 25.9271C11.938 25.9343 11.9669 25.9415 11.9994 25.9487H12.0102C12.0535 25.9632 12.086 25.9632 12.1077 25.9524C12.1257 25.9451 12.1365 25.9235 12.1438 25.8946C12.1438 25.8874 12.1438 25.8801 12.1474 25.8729C12.1726 25.7357 12.1871 25.6346 12.1871 25.566C12.1871 25.501 12.1762 25.4541 12.1546 25.436C12.1329 25.4144 12.1077 25.3999 12.0752 25.3927C12.068 25.3927 12.0607 25.3927 12.0535 25.3891C11.8622 25.3494 11.6709 25.3024 11.4796 25.2555C11.2486 25.1977 11.0212 25.14 10.7938 25.075H10.783C10.7505 25.0641 10.718 25.0533 10.6819 25.0389C10.6458 25.0244 10.6242 25.0064 10.6133 24.9883C10.6061 24.963 10.6061 24.9341 10.6097 24.898C10.6133 24.8619 10.6169 24.833 10.6242 24.8114C10.6278 24.7897 10.635 24.7717 10.6422 24.7536C10.6566 24.7103 10.6783 24.6778 10.7 24.6597C10.7252 24.6453 10.7541 24.6453 10.7866 24.6525C10.8191 24.6597 10.8443 24.667 10.8624 24.6706C10.8949 24.6778 10.9274 24.685 10.9562 24.6958C10.9707 24.6994 10.9851 24.7067 10.9959 24.7103C11.1584 24.7536 11.3027 24.7969 11.4363 24.833C11.6637 24.898 11.8803 24.9558 12.086 25.0064L12.2051 25.0352C12.4434 25.0894 12.7321 25.1436 13.0786 25.1869C13.0931 25.1869 13.1075 25.1869 13.1292 25.1905C13.1653 25.1905 13.1977 25.1941 13.2266 25.1977C13.2555 25.2013 13.2772 25.2049 13.2916 25.2086C13.3133 25.2122 13.3313 25.2194 13.3493 25.2302C13.3782 25.2447 13.3927 25.2663 13.3891 25.2952L13.371 25.2772Z" fill="#003334"/>
<path d="M13.2663 24.9703L13.2483 24.963C13.1977 24.945 13.1544 24.9161 13.1183 24.8764C13.0786 24.8294 13.0678 24.7753 13.0895 24.7103C13.0895 24.7103 13.0967 24.6886 13.1003 24.6814C13.1039 24.6742 13.1111 24.667 13.1147 24.6633C13.1219 24.6561 13.1328 24.6489 13.14 24.6417C13.1761 24.6092 13.2158 24.5803 13.2591 24.5586C13.2916 24.5406 13.3205 24.5334 13.3457 24.537C13.371 24.5406 13.389 24.5442 13.3999 24.5478C13.4215 24.555 13.4396 24.5623 13.4576 24.5731C13.5046 24.602 13.5443 24.6417 13.5695 24.6922C13.5948 24.7464 13.602 24.8006 13.584 24.8547C13.584 24.8619 13.5767 24.8692 13.5731 24.8764C13.5443 24.9378 13.4973 24.9739 13.4324 24.9883C13.4035 24.9919 13.3746 24.9883 13.3457 24.9883C13.3169 24.9847 13.2916 24.9775 13.2627 24.9666L13.2663 24.9703Z" fill="#003334"/>
<path d="M13.4504 24.4323L13.4323 24.4251C13.3818 24.407 13.3385 24.3745 13.306 24.3348C13.2663 24.2878 13.2591 24.2301 13.2843 24.1651C13.2843 24.1651 13.2916 24.1434 13.2952 24.1362C13.2988 24.129 13.306 24.1218 13.3132 24.1181C13.3204 24.1109 13.3313 24.1037 13.3421 24.1001C13.3818 24.0676 13.4215 24.0423 13.4648 24.0207C13.5009 24.0026 13.5298 23.999 13.5514 24.0026C13.5731 24.0062 13.5911 24.0134 13.6056 24.017C13.6236 24.0243 13.6453 24.0351 13.6633 24.0459C13.7103 24.0748 13.7464 24.1181 13.7716 24.1723C13.7969 24.2301 13.7969 24.2842 13.7788 24.3348C13.7788 24.342 13.7716 24.3492 13.768 24.3564C13.7355 24.4142 13.6886 24.4503 13.6236 24.4612C13.5948 24.4612 13.5659 24.4612 13.537 24.4575C13.5081 24.4503 13.4829 24.4431 13.454 24.4323H13.4504Z" fill="#003334"/>
<path d="M13.6561 23.9051L13.6417 23.8979C13.5911 23.8762 13.5514 23.8437 13.519 23.8004C13.4829 23.7498 13.4756 23.6957 13.5045 23.6307C13.5045 23.6307 13.5117 23.609 13.5153 23.6018C13.519 23.5946 13.5262 23.5873 13.5334 23.5837C13.5406 23.5765 13.5514 23.5729 13.5623 23.5657C13.602 23.5368 13.6417 23.5115 13.6886 23.4935C13.7247 23.479 13.7536 23.4754 13.7752 23.479C13.7969 23.4862 13.8149 23.4899 13.8294 23.4971C13.8474 23.5043 13.8655 23.5151 13.8835 23.5296C13.9304 23.5621 13.9629 23.6054 13.9846 23.6596C14.0062 23.7173 14.0062 23.7715 13.9846 23.822C13.9846 23.8293 13.9774 23.8365 13.9738 23.8437C13.9413 23.9015 13.8907 23.934 13.8222 23.9412C13.7933 23.9412 13.7644 23.9412 13.7355 23.934C13.7066 23.9268 13.6814 23.9195 13.6561 23.9051Z" fill="#003334"/>
<path d="M12.8368 20.623C12.8765 20.6807 13.0028 20.7746 13.2158 20.9046L13.3096 20.9624C13.5767 21.1212 13.8511 21.2729 14.129 21.4245C14.4069 21.5726 14.5874 21.6701 14.6704 21.7098C14.7065 21.7278 14.7354 21.7423 14.7607 21.7495C14.7859 21.7567 14.804 21.7675 14.822 21.7748C14.8292 21.7748 14.8329 21.782 14.8365 21.7856C14.8545 21.8 14.8726 21.8289 14.8834 21.8686C14.8834 21.8831 14.8762 21.912 14.8545 21.9589C14.8329 22.0059 14.8076 22.0528 14.7751 22.1069C14.7426 22.1611 14.7065 22.2044 14.6704 22.2405C14.6343 22.2767 14.6018 22.2875 14.5694 22.2803C14.5152 22.2622 14.4575 22.2369 14.3925 22.2044C14.0676 22.0311 13.7572 21.8542 13.4612 21.6737C13.4035 21.6376 13.3457 21.6015 13.288 21.5653L13.1183 21.4606C12.9451 21.3559 12.7646 21.2512 12.5805 21.1429C12.5516 21.1248 12.53 21.1285 12.5119 21.1465C12.4975 21.1682 12.483 21.1862 12.4722 21.2043C12.4578 21.2296 12.4397 21.262 12.4217 21.3018C12.4072 21.3307 12.3928 21.3631 12.3748 21.3956C12.3675 21.4065 12.3639 21.4173 12.3567 21.4245C12.3459 21.4426 12.3351 21.457 12.3242 21.4679C12.3098 21.4823 12.2881 21.4823 12.2593 21.4751C12.2304 21.4679 12.1871 21.4498 12.1293 21.4209C12.1221 21.4209 12.1149 21.4137 12.1077 21.4101C12.0788 21.392 12.0607 21.3704 12.0571 21.3415C12.0535 21.309 12.068 21.262 12.0968 21.2007C12.1654 21.0562 12.234 20.9263 12.3026 20.8107C12.3712 20.6952 12.4145 20.6193 12.4325 20.5869C12.5264 20.4316 12.6094 20.3124 12.678 20.2258C12.7285 20.1716 12.7682 20.15 12.7971 20.1608C12.826 20.1716 12.8548 20.1825 12.8729 20.1933C12.8945 20.2077 12.9162 20.2222 12.9342 20.2402L12.9559 20.2583C12.9776 20.2763 12.9884 20.2944 12.9848 20.316C12.9848 20.3377 12.9703 20.363 12.9523 20.3919C12.9451 20.4063 12.9306 20.4208 12.9162 20.4424C12.8909 20.4749 12.8693 20.511 12.8476 20.5471C12.826 20.5832 12.8187 20.6085 12.826 20.6266L12.8368 20.623Z" fill="#003334"/>
<path d="M13.2591 20.0814C13.1941 19.9839 13.1653 19.8648 13.1725 19.7239C13.1797 19.5831 13.2447 19.4206 13.371 19.2365L13.3999 19.1968C13.4973 19.0704 13.602 18.9801 13.7067 18.9296C13.8258 18.8754 13.9449 18.8574 14.0676 18.8754C14.1723 18.8899 14.295 18.9404 14.4322 19.0198C14.5694 19.0993 14.6813 19.1715 14.7679 19.2365C14.8545 19.3015 14.9123 19.3484 14.9484 19.3737C15.0458 19.4495 15.1361 19.5217 15.2155 19.5903C15.2155 19.5939 15.2227 19.5976 15.2227 19.5976C15.2913 19.6553 15.3743 19.7275 15.4717 19.8178C15.5692 19.9081 15.6486 20.002 15.7208 20.1031C15.793 20.2042 15.8255 20.3016 15.8219 20.3919C15.811 20.5038 15.7785 20.6086 15.728 20.7024C15.6739 20.7963 15.6306 20.8685 15.5909 20.9191C15.5403 20.9841 15.4826 21.0454 15.4212 21.0996C15.3093 21.2007 15.1866 21.2621 15.0566 21.2874C14.9772 21.2946 14.8509 21.2549 14.6813 21.1682C14.5116 21.0816 14.3492 20.9841 14.194 20.8794C14.0424 20.7746 13.916 20.6844 13.8186 20.6086C13.7392 20.5472 13.6634 20.4858 13.5912 20.4244C13.4287 20.2872 13.3205 20.1717 13.2663 20.0814H13.2591ZM13.9702 19.2618C13.9341 19.2618 13.898 19.2762 13.8655 19.3087C13.833 19.3412 13.8077 19.3665 13.7897 19.3881C13.7644 19.4206 13.7428 19.4567 13.7211 19.5001C13.6922 19.5651 13.6814 19.6301 13.6959 19.6914C13.7283 19.7781 13.8077 19.8756 13.9377 19.9839C14.0676 20.0922 14.1687 20.1789 14.2481 20.2403C14.3636 20.3269 14.4791 20.4136 14.6018 20.493C14.804 20.6266 14.9556 20.706 15.0494 20.7241C15.118 20.7313 15.1721 20.7169 15.2155 20.6772C15.2588 20.641 15.2877 20.6086 15.3057 20.5869C15.3382 20.5472 15.3598 20.5002 15.3779 20.4533C15.4032 20.3775 15.3959 20.3089 15.3526 20.2511C15.2985 20.1861 15.2082 20.0958 15.0783 19.9839C14.9484 19.8684 14.8329 19.7745 14.7354 19.7023C14.6488 19.6337 14.5549 19.5687 14.4611 19.5001C14.2625 19.3665 14.1001 19.287 13.9738 19.2654L13.9702 19.2618Z" fill="#003334"/>
<path d="M15.9048 17.0412C15.9265 17.1098 16.0203 17.2362 16.1864 17.4203L16.2586 17.4997C16.4679 17.7272 16.6845 17.9547 16.9083 18.1786C17.1321 18.4024 17.2765 18.5468 17.345 18.6082C17.3739 18.6371 17.3992 18.6588 17.4208 18.6732C17.4425 18.6877 17.4605 18.7021 17.4714 18.7165C17.475 18.7202 17.4786 18.7274 17.4822 18.731C17.4966 18.7527 17.5039 18.7815 17.5039 18.8213C17.5039 18.8357 17.4822 18.861 17.4497 18.9007C17.4172 18.9404 17.3775 18.9765 17.3306 19.0198C17.2837 19.0596 17.2368 19.0921 17.1934 19.1173C17.1501 19.1426 17.114 19.1426 17.0852 19.1246C17.0418 19.0921 16.9913 19.0523 16.9372 18.9982C16.6773 18.7382 16.4318 18.4782 16.2008 18.2219C16.1539 18.1713 16.1106 18.1208 16.0637 18.0666L15.9301 17.915C15.7966 17.7633 15.6558 17.6117 15.5078 17.4564C15.4861 17.4311 15.4645 17.4275 15.4428 17.442C15.4212 17.4564 15.4031 17.4709 15.3887 17.4853C15.367 17.507 15.3418 17.5322 15.3129 17.5647C15.2912 17.5864 15.2696 17.6153 15.2407 17.6406C15.2335 17.6514 15.2226 17.6586 15.2154 17.6658C15.1974 17.6803 15.1865 17.6911 15.1721 17.6983C15.1541 17.7056 15.1324 17.7019 15.1071 17.6875C15.0819 17.6731 15.0458 17.6406 14.9988 17.5972C14.9916 17.5936 14.988 17.5864 14.9808 17.5828C14.9555 17.5575 14.9483 17.5286 14.9519 17.5034C14.9555 17.4709 14.9844 17.4311 15.0313 17.3806C15.1396 17.265 15.2443 17.1603 15.3418 17.0665C15.4428 16.9726 15.5042 16.9148 15.5331 16.8895C15.6666 16.7704 15.7821 16.6765 15.8724 16.6151C15.9337 16.579 15.9806 16.5682 16.0059 16.5899C16.0312 16.6115 16.0528 16.626 16.0673 16.644C16.0853 16.6621 16.0998 16.6837 16.1142 16.709L16.1286 16.7307C16.1431 16.7523 16.1467 16.774 16.1395 16.7957C16.1286 16.8137 16.1142 16.8354 16.0889 16.857C16.0781 16.8679 16.06 16.8787 16.0384 16.8968C16.0059 16.922 15.9734 16.9473 15.9409 16.9762C15.9121 17.0051 15.894 17.0267 15.8976 17.0484L15.9048 17.0412Z" fill="#003334"/>
<path d="M19.0704 17.6911C19.0018 17.7561 18.9477 17.8031 18.908 17.8283L18.9008 17.8355C18.8647 17.8608 18.8322 17.868 18.8105 17.8572C18.7889 17.8464 18.76 17.8211 18.7275 17.7814C18.7167 17.7706 18.7058 17.7561 18.695 17.7453L18.3882 17.4059C18.3557 17.377 18.316 17.3734 18.2691 17.395C18.2222 17.4167 18.1716 17.442 18.1247 17.4745L18.0994 17.4925C18.0417 17.5359 17.9948 17.572 17.9515 17.6117C17.9154 17.6442 17.9009 17.6695 17.9045 17.6875C17.9081 17.7056 17.9154 17.72 17.9262 17.7344C17.9334 17.7417 17.9406 17.7525 17.9478 17.7633L17.9551 17.7742C18.002 17.8319 18.0417 17.8789 18.0742 17.915C18.1067 17.9511 18.1355 17.9872 18.1608 18.0161C18.1861 18.0414 18.2041 18.063 18.2222 18.0847C18.233 18.0991 18.2438 18.1172 18.2474 18.1316C18.2619 18.1641 18.2547 18.2002 18.2222 18.2399C18.1933 18.2797 18.1283 18.3338 18.0345 18.4024C18.0345 18.4024 18.0236 18.4096 18.0128 18.4169C18.002 18.4241 17.9875 18.4313 17.9767 18.4421C17.9623 18.4494 17.9515 18.4602 17.9406 18.4638C17.9298 18.4674 17.9226 18.4746 17.9226 18.4746C17.8973 18.4746 17.8757 18.4674 17.854 18.4494C17.8323 18.4349 17.8179 18.4169 17.8035 18.4024C17.6771 18.2616 17.558 18.11 17.4461 17.9547C17.3523 17.8247 17.2584 17.6983 17.1682 17.5684C16.9552 17.2651 16.7423 16.9582 16.5365 16.6476C16.4896 16.579 16.4427 16.5104 16.3957 16.4382C16.3921 16.4274 16.3849 16.4202 16.3813 16.4129C16.3777 16.4057 16.3705 16.3985 16.3633 16.3913C16.356 16.3841 16.3524 16.3768 16.3488 16.3732C16.3308 16.3479 16.3236 16.3263 16.3199 16.3082C16.3199 16.283 16.3344 16.2468 16.3741 16.1999C16.3994 16.171 16.4282 16.1421 16.4643 16.1205C16.4896 16.1024 16.5185 16.0844 16.551 16.0663C16.6268 16.0266 16.6917 16.0122 16.7459 16.023C16.7675 16.0302 16.7856 16.041 16.7928 16.0555C16.8 16.0699 16.8072 16.0771 16.8108 16.0844C16.8217 16.0988 16.8325 16.1169 16.8397 16.1313L16.8505 16.153C16.865 16.1819 16.883 16.2071 16.8975 16.236C16.9263 16.2866 16.9552 16.3371 16.9841 16.3913C17.0816 16.5538 17.161 16.6837 17.2223 16.774C17.2873 16.8679 17.3414 16.9473 17.3884 17.0123C17.4353 17.0773 17.4858 17.1495 17.5364 17.2181C17.5544 17.2434 17.5725 17.2651 17.5905 17.2903L17.5977 17.2976C17.623 17.3337 17.6483 17.3553 17.6699 17.3625C17.688 17.3662 17.7096 17.3625 17.7349 17.3409C17.7421 17.3373 17.7457 17.3337 17.7529 17.3264C17.8612 17.2398 17.9406 17.1712 17.9803 17.1206C18.0236 17.0701 18.0417 17.0304 18.0417 16.9979C18.0417 16.969 18.0273 16.9401 18.0092 16.9148C18.0056 16.9076 18.002 16.904 17.9948 16.8968C17.8757 16.7415 17.7601 16.5826 17.6483 16.4202C17.5111 16.2252 17.3775 16.0302 17.2476 15.8352L17.2404 15.828C17.2223 15.8027 17.2043 15.7702 17.1862 15.7377C17.1682 15.7052 17.161 15.6764 17.1682 15.6547C17.179 15.6294 17.1971 15.6078 17.2223 15.5825C17.2476 15.5572 17.2693 15.5392 17.2909 15.5247C17.309 15.5139 17.327 15.503 17.3414 15.4922C17.3811 15.4705 17.4172 15.4597 17.4461 15.4597C17.4714 15.4633 17.4967 15.4814 17.5183 15.5103C17.54 15.5392 17.5544 15.5608 17.5652 15.5753C17.5833 15.6041 17.6013 15.6294 17.6194 15.6547C17.6266 15.6691 17.6338 15.68 17.641 15.6908C17.7349 15.8316 17.8179 15.958 17.8937 16.0699C18.0236 16.2685 18.15 16.4563 18.2727 16.626L18.3449 16.7271C18.4893 16.9257 18.6734 17.1531 18.9044 17.4131C18.9116 17.4239 18.9224 17.4348 18.9369 17.4492C18.9621 17.4745 18.9838 17.4961 19.0054 17.5178C19.0235 17.5395 19.0379 17.5575 19.0451 17.5684C19.0596 17.5864 19.0668 17.6045 19.074 17.6225C19.0848 17.6514 19.0812 17.6767 19.0632 17.6983L19.0704 17.6911Z" fill="#003334"/>
<path d="M17.9912 15.1997C17.9912 15.1997 17.9875 15.1744 17.9875 15.1564C17.9875 15.1383 17.9875 15.1203 17.9984 15.0986C18.0092 15.0769 18.02 15.0625 18.0417 15.0481C18.1536 14.9867 18.2944 14.9181 18.464 14.8459C18.63 14.7737 18.778 14.7303 18.9044 14.7159C18.9441 14.7159 18.973 14.7303 18.991 14.7628V14.77C19.0127 14.8061 19.0199 14.8423 19.0199 14.8856C19.0199 14.9253 19.0127 14.9542 19.0018 14.9686C18.9802 14.9867 18.9621 15.0011 18.9369 15.012C18.9224 15.0192 18.9116 15.0264 18.8972 15.0336C18.8574 15.0481 18.8177 15.0661 18.778 15.077C18.7383 15.0878 18.7058 15.0986 18.6842 15.1094C18.6625 15.1167 18.6481 15.1239 18.6373 15.1311C18.6156 15.1456 18.5939 15.16 18.5759 15.178C18.5542 15.2069 18.5615 15.2719 18.5976 15.3658C18.6337 15.4597 18.6734 15.5536 18.7239 15.651C18.7744 15.7485 18.8141 15.8244 18.8466 15.8857C18.8683 15.9255 18.8899 15.9652 18.9152 16.0049C18.9693 16.0988 19.009 16.1638 19.0271 16.1927C19.0451 16.2179 19.0668 16.2215 19.0885 16.2107C19.1101 16.1999 19.1246 16.1927 19.1282 16.189C19.1679 16.1674 19.2076 16.1385 19.2509 16.1024C19.3014 16.0627 19.3483 16.0302 19.3953 16.0049L19.4097 15.9977C19.4386 15.9868 19.4675 15.9977 19.4963 16.0229C19.5216 16.0518 19.5433 16.0771 19.5577 16.1024C19.5685 16.1204 19.5757 16.1385 19.583 16.1565C19.5974 16.2035 19.5938 16.2396 19.5721 16.2613C19.5433 16.2829 19.5144 16.301 19.4783 16.3226C19.4241 16.3551 19.3736 16.3912 19.3303 16.4273C19.287 16.4635 19.2689 16.5032 19.2762 16.5429C19.2762 16.5537 19.2834 16.5682 19.2942 16.5862C19.305 16.6043 19.3195 16.6295 19.3375 16.6584C19.3736 16.7162 19.4133 16.7704 19.453 16.8245C19.4963 16.8787 19.5252 16.904 19.5469 16.9076C19.5685 16.9076 19.5902 16.8967 19.6154 16.8823C19.6299 16.8751 19.6407 16.8679 19.6552 16.857C19.6985 16.8281 19.7418 16.792 19.7851 16.7559C19.8465 16.7018 19.9006 16.662 19.9511 16.6332C19.9908 16.6115 20.0269 16.6151 20.0594 16.6368C20.0919 16.6584 20.1136 16.6837 20.128 16.7126C20.1352 16.727 20.1424 16.7415 20.146 16.7559C20.1605 16.8029 20.1533 16.8426 20.1244 16.8787C20.0666 16.9365 19.9872 17.0051 19.8826 17.0953C19.7779 17.1856 19.6732 17.265 19.5649 17.3445C19.5469 17.3589 19.5288 17.3697 19.5108 17.3842C19.4891 17.4058 19.4638 17.4203 19.4422 17.4347C19.4097 17.4528 19.3808 17.46 19.3483 17.4636C19.2978 17.4636 19.2292 17.4131 19.1498 17.3011C19.009 17.1062 18.8755 16.9076 18.7456 16.7018C18.6156 16.496 18.5109 16.3154 18.4207 16.1602C18.3665 16.0627 18.316 15.9688 18.2655 15.8713C18.1355 15.6186 18.0453 15.3947 17.9912 15.2033V15.1997Z" fill="#003334"/>
<path d="M22.2432 15.9796C22.2432 16.0266 22.2251 16.0591 22.1963 16.0807C22.1674 16.0988 22.1457 16.1132 22.1241 16.1205C22.1024 16.1277 22.0772 16.1313 22.0519 16.1313C22.005 16.1313 21.9689 16.1096 21.94 16.0771C21.8895 16.0049 21.8245 15.9038 21.7523 15.7774C21.6765 15.6511 21.6007 15.5175 21.5249 15.3803C21.4563 15.2575 21.3949 15.1492 21.3372 15.0517C21.2794 14.9542 21.2433 14.8964 21.2253 14.8748C21.2073 14.8531 21.1928 14.8387 21.1892 14.8423C21.182 14.8423 21.1856 14.8639 21.1928 14.9C21.2433 15.1059 21.3083 15.3514 21.3877 15.6366C21.4671 15.9219 21.5285 16.153 21.579 16.3263C21.5863 16.3768 21.5646 16.4129 21.5141 16.4418C21.4635 16.4707 21.4238 16.4887 21.3949 16.496C21.348 16.5104 21.2975 16.5212 21.247 16.5212C21.1639 16.5212 21.1098 16.496 21.0881 16.4382C20.951 16.0013 20.8283 15.5464 20.72 15.0806C20.6514 14.7953 20.5792 14.5137 20.507 14.2357C20.4926 14.1851 20.4817 14.1346 20.4745 14.0876C20.4673 14.0371 20.4709 13.9974 20.4817 13.9649C20.507 13.9071 20.5467 13.8674 20.5972 13.8385C20.6478 13.8132 20.6875 13.7952 20.7164 13.7843C20.7525 13.7735 20.7922 13.7663 20.8283 13.7627C20.8968 13.7591 20.9474 13.7771 20.9762 13.8204C21.0232 13.9035 21.0881 14.019 21.1712 14.1671C21.2542 14.3151 21.3408 14.474 21.431 14.6437C21.5935 14.9361 21.7162 15.1636 21.8064 15.3225C21.8064 15.3225 21.8064 15.2611 21.7884 15.142C21.774 15.0192 21.7523 14.8712 21.7306 14.6942C21.7054 14.5029 21.6801 14.3187 21.6584 14.1454C21.6368 13.9721 21.6224 13.8457 21.6151 13.7699C21.6007 13.658 21.6043 13.5821 21.6224 13.5352C21.6404 13.4883 21.6909 13.4522 21.7739 13.4269C21.7848 13.4233 21.7992 13.4197 21.8137 13.416C21.9039 13.3908 21.9689 13.398 22.005 13.4377C22.0411 13.4774 22.0735 13.5316 22.1024 13.6038V13.6146C22.1927 13.8241 22.3262 14.1526 22.5103 14.6004C22.6114 14.8531 22.7088 15.095 22.8027 15.3225C22.8965 15.55 22.9687 15.7269 23.0228 15.8497C23.0409 15.9074 23.0228 15.9544 22.9795 15.9977C22.9507 16.023 22.9182 16.041 22.8821 16.0519C22.8604 16.0591 22.8352 16.0627 22.8099 16.0663C22.7485 16.0699 22.7052 16.0519 22.6799 16.0049C22.6186 15.8424 22.5536 15.6691 22.485 15.485C22.3767 15.1889 22.2757 14.9217 22.1746 14.6906C22.1602 14.6581 22.1457 14.6292 22.1349 14.6148C22.1241 14.5967 22.1169 14.5895 22.1096 14.5859C22.1024 14.5823 22.0988 14.5823 22.0952 14.5859C22.0952 14.5859 22.0916 14.5859 22.088 14.5895C22.0844 14.5895 22.0808 14.5967 22.0808 14.604C22.0808 14.6112 22.0808 14.6148 22.0808 14.6184C22.0808 14.6942 22.0916 14.8206 22.1132 14.9903C22.1313 15.1636 22.153 15.3405 22.1782 15.5283C22.2035 15.7161 22.2251 15.8713 22.2432 15.9941V15.9796Z" fill="#003334"/>
<path d="M22.7413 13.593C22.7593 13.4774 22.8171 13.3691 22.9145 13.2716C23.012 13.1741 23.1708 13.0947 23.391 13.0441L23.4379 13.0369C23.5967 13.008 23.7339 13.0116 23.8458 13.0441C23.9685 13.0839 24.0696 13.1489 24.149 13.2463C24.2176 13.3294 24.2753 13.4449 24.3223 13.5966C24.3728 13.7482 24.4053 13.8746 24.4269 13.9829C24.4486 14.0876 24.4594 14.1635 24.4666 14.2032C24.4883 14.3259 24.5063 14.4379 24.5172 14.5426C24.5172 14.5462 24.5172 14.5498 24.5172 14.5534C24.5316 14.6437 24.5424 14.752 24.5533 14.882C24.5641 15.012 24.5605 15.1383 24.5461 15.2611C24.5316 15.3839 24.4919 15.4777 24.4269 15.5427C24.3439 15.6186 24.2501 15.6763 24.149 15.7088C24.0479 15.7413 23.9649 15.7666 23.8999 15.7774C23.8169 15.7919 23.7375 15.7991 23.6509 15.7991C23.4993 15.7991 23.3657 15.763 23.2538 15.6944C23.1889 15.6474 23.1239 15.5319 23.0553 15.355C22.9867 15.1744 22.9326 14.9939 22.8893 14.8134C22.846 14.6328 22.8135 14.4812 22.7918 14.3584C22.7738 14.2573 22.7593 14.1635 22.7485 14.0696C22.7196 13.8602 22.716 13.7013 22.7377 13.5966L22.7413 13.593ZM23.8205 13.4666C23.7917 13.4413 23.7556 13.4269 23.7122 13.4305C23.6653 13.4305 23.6292 13.4341 23.604 13.4377C23.5643 13.4449 23.5209 13.4558 23.4812 13.4738C23.4127 13.5027 23.3657 13.5424 23.3369 13.5966C23.3044 13.6832 23.2972 13.8096 23.3188 13.9757C23.3405 14.1454 23.3621 14.2754 23.3766 14.3729C23.4018 14.5137 23.4343 14.6545 23.4668 14.7953C23.5282 15.0336 23.5859 15.1889 23.6401 15.2683C23.687 15.3189 23.7375 15.3441 23.7917 15.3441C23.8494 15.3441 23.8891 15.3441 23.918 15.3369C23.9685 15.3297 24.0155 15.3117 24.0624 15.2864C24.131 15.2467 24.1707 15.1925 24.1815 15.1203C24.1851 15.0372 24.1815 14.9073 24.1598 14.7376C24.1382 14.5679 24.1201 14.4198 24.0985 14.3007C24.0804 14.1923 24.0552 14.0804 24.0299 13.9685C23.9721 13.7338 23.9072 13.5677 23.8241 13.4666H23.8205Z" fill="#003334"/>
<path d="M24.8168 13.2464C24.8493 13.1344 24.9214 13.037 25.0333 12.9503C25.1416 12.8636 25.3113 12.8095 25.5351 12.7878H25.5856C25.748 12.777 25.8816 12.7987 25.9863 12.8492C26.1054 12.9034 26.1956 12.9828 26.2606 13.0875C26.3147 13.1778 26.358 13.3005 26.3869 13.4594C26.4158 13.6183 26.4338 13.7483 26.4411 13.8566C26.4483 13.9649 26.4519 14.0407 26.4519 14.0804C26.4591 14.2032 26.4591 14.3188 26.4591 14.4235C26.4591 14.4271 26.4591 14.4307 26.4591 14.4343C26.4591 14.5246 26.4591 14.6365 26.4519 14.7665C26.4447 14.8965 26.4266 15.0228 26.3941 15.1384C26.3616 15.2575 26.3111 15.3442 26.2389 15.402C26.1451 15.467 26.044 15.5103 25.9393 15.5283C25.8347 15.55 25.748 15.5608 25.6831 15.5644C25.6 15.568 25.517 15.5644 25.434 15.5536C25.2824 15.5319 25.1561 15.4814 25.055 15.3947C24.9972 15.3406 24.9467 15.2178 24.9034 15.0301C24.8601 14.8423 24.8276 14.6582 24.8095 14.4704C24.7915 14.2863 24.7807 14.131 24.7735 14.0082C24.7698 13.9071 24.7662 13.8096 24.7662 13.7158C24.7662 13.5027 24.7843 13.3475 24.8168 13.2464ZM25.9032 13.2608C25.8816 13.2319 25.8455 13.2139 25.7986 13.2103C25.7516 13.2067 25.7155 13.203 25.6903 13.203C25.647 13.203 25.6073 13.2103 25.5639 13.2211C25.4954 13.2392 25.4412 13.2753 25.4015 13.3258C25.3582 13.4052 25.3365 13.5316 25.3365 13.7013C25.3365 13.871 25.3365 14.0046 25.3438 14.1021C25.351 14.2465 25.3618 14.391 25.3799 14.5318C25.4087 14.7737 25.4448 14.9398 25.4918 15.0228C25.5315 15.0806 25.5784 15.1131 25.6325 15.1203C25.6867 15.1275 25.73 15.1312 25.7589 15.1312C25.8094 15.1312 25.8599 15.1167 25.9068 15.0987C25.9826 15.0698 26.026 15.0192 26.044 14.9506C26.0584 14.8676 26.0693 14.7412 26.0729 14.5679C26.0729 14.3946 26.0729 14.2465 26.0693 14.1238C26.0657 14.0118 26.0548 13.8999 26.044 13.7844C26.0187 13.5461 25.9718 13.3691 25.9068 13.2608H25.9032Z" fill="#003334"/>
<path d="M28.2278 12.943C28.2314 12.9106 28.253 12.8889 28.2855 12.8817C28.318 12.8744 28.3541 12.8708 28.3974 12.8744C28.4407 12.8744 28.4768 12.8817 28.5165 12.8889C28.531 12.8889 28.5418 12.8925 28.5526 12.8961C28.596 12.9033 28.6176 12.925 28.6176 12.9611C28.6176 12.9972 28.6176 13.0297 28.6176 13.0586C28.6176 13.0947 28.6104 13.1344 28.6032 13.1814C28.596 13.2211 28.5923 13.2644 28.5851 13.3113C28.5454 13.6435 28.5129 13.9757 28.4841 14.3043C28.4588 14.5895 28.4299 14.8784 28.3974 15.1672C28.3938 15.2142 28.3866 15.2539 28.383 15.2936L28.3758 15.3803C28.3686 15.4705 28.3577 15.5355 28.3469 15.5752C28.3325 15.6186 28.2964 15.6402 28.2422 15.6366C28.2386 15.6366 28.2206 15.6366 28.1953 15.6366C28.17 15.6366 28.1375 15.6366 28.1051 15.6366C28.0726 15.6366 28.0401 15.6366 28.0148 15.6366C27.9896 15.6366 27.9715 15.6366 27.9643 15.6366H27.9462C27.8813 15.6294 27.8343 15.6005 27.8055 15.55C27.773 15.4922 27.7513 15.4344 27.7405 15.373C27.7405 15.3586 27.7333 15.3442 27.7297 15.3297C27.6791 15.1059 27.6286 14.8964 27.5781 14.7015C27.5275 14.5065 27.4626 14.2826 27.3832 14.0335C27.3579 13.954 27.3398 13.9107 27.329 13.8999C27.3182 13.8927 27.311 13.889 27.3074 13.889C27.2965 13.889 27.2893 13.8999 27.2785 13.9215C27.2676 13.9504 27.2604 13.9901 27.2532 14.0335C27.2316 14.1815 27.2171 14.3223 27.2027 14.4668C27.1918 14.5823 27.1846 14.7015 27.181 14.8134C27.1738 14.9325 27.1666 15.0553 27.1594 15.1817C27.1594 15.2106 27.1558 15.2431 27.1521 15.2756C27.1521 15.3044 27.1521 15.3297 27.1521 15.3586C27.1521 15.3983 27.1449 15.4344 27.1341 15.4669C27.1233 15.5211 27.0944 15.55 27.0547 15.55C27.0439 15.55 27.033 15.55 27.0222 15.55C26.9789 15.55 26.9356 15.55 26.8995 15.55C26.8417 15.5464 26.7876 15.5355 26.7479 15.5211C26.6757 15.4994 26.6396 15.4416 26.6396 15.3514C26.6396 15.3189 26.6432 15.2828 26.6468 15.2503C26.6468 15.2142 26.6504 15.1853 26.654 15.16V15.1347C26.6685 14.9759 26.6793 14.8134 26.6937 14.6545C26.737 14.1382 26.7948 13.6219 26.8634 13.1055V13.0947C26.867 13.0658 26.8742 13.0261 26.8886 12.9792C26.8995 12.9322 26.9211 12.8853 26.95 12.8492C26.9789 12.8095 27.0222 12.7878 27.08 12.7842L27.2604 12.7914H27.2676C27.3687 12.8022 27.4337 12.8347 27.4662 12.8889C27.4987 12.9467 27.5203 13.008 27.5311 13.0766C27.5348 13.1019 27.542 13.1272 27.5492 13.1489L28.0401 14.9073C28.0473 14.9289 28.0545 14.9398 28.0617 14.9398C28.0617 14.9398 28.0762 14.9289 28.0798 14.9109C28.087 14.8928 28.0906 14.8748 28.0906 14.8567C28.0906 14.8387 28.0942 14.8278 28.0942 14.8206C28.1159 14.5534 28.1375 14.2862 28.152 14.019C28.1664 13.7699 28.1845 13.5208 28.2061 13.2716V13.2463C28.2133 13.185 28.217 13.1308 28.2206 13.0911C28.2206 13.0514 28.2278 13.008 28.2278 12.9611V12.943Z" fill="#003334"/>
<defs>
<radialGradient id="paint0_radial_62_2105" cx="0" cy="0" r="1" gradientUnits="userSpaceOnUse" gradientTransform="translate(30.02 30.0072) scale(22.4982 22.5054)">
<stop offset="0.22" stop-color="#DEBB77"/>
<stop offset="1" stop-color="#AB9C5B"/>
</radialGradient>
</defs>
</svg>
