<svg width="28" height="42" viewBox="0 0 28 42" fill="none" xmlns="http://www.w3.org/2000/svg">
<path d="M3.80762 22.1924L6.18695 35.8459C6.24997 36.2075 6.37028 36.5617 6.61686 36.8336C7.49303 37.7998 9.61457 39.1541 13.2938 39.1541H13.7063C17.3855 39.1541 19.507 37.7998 20.3832 36.8336C20.6298 36.5617 20.7501 36.2075 20.8131 35.8459L23.1925 22.1924" stroke="#038601"/>
<path d="M11.8847 17.3892C6.85259 17.6581 3 19.1639 3 20.9811C3 22.9884 7.70106 24.6157 13.5001 24.6157C19.2992 24.6157 24.0002 22.9884 24.0002 20.9811C24.0002 19.1639 20.1477 17.6581 15.1155 17.3892" stroke="#038601" stroke-linecap="round"/>
<path d="M11.885 18.9951C7.74941 19.1678 4.61572 19.9912 4.61572 20.9811C4.61572 22.0963 8.59355 23.0003 13.5004 23.0003C18.4073 23.0003 22.3852 22.0963 22.3852 20.9811C22.3852 19.9912 19.2515 19.1678 15.1158 18.9951" stroke="#038601" stroke-linecap="round"/>
<path d="M12.8188 12.2982C11.8344 10.7725 10.5925 6.57698 13.5003 2C16.6806 7.49237 14.7875 10.3911 14.1818 12.2982M15.5448 12.2982C16.832 11.9931 19.6792 10.6505 20.7696 7.72122C18.9523 7.72122 16.9078 8.86546 16.2263 9.55201M14.8633 13.2136C15.9234 13.6713 18.3616 14.3121 19.6338 13.2136C19.1794 12.7559 18.4222 12.6033 18.2708 12.527M11.4558 14.8155C12.0616 14.663 13.3185 14.129 13.5003 13.2136M13.5003 13.2136C13.682 13.9459 14.939 14.5867 15.5448 14.8155M13.5003 13.2136V20.5771M11.4558 12.2982C10.1685 11.9931 7.32135 10.6505 6.23096 7.72122C8.04829 7.72122 10.0928 8.86546 10.7743 9.55201M12.1373 13.2136C11.0772 13.6713 8.63892 14.3121 7.36679 13.2136C7.82112 12.7559 8.57834 12.6033 8.72978 12.527" stroke="#038601" stroke-linecap="round"/>
</svg>
