<svg width="40" height="40" viewBox="0 0 40 40" fill="none" xmlns="http://www.w3.org/2000/svg">
<rect width="40" height="40" rx="20" fill="#9E4B4B"/>
<path d="M17.6001 23.6L17.6001 20" stroke="#0B1213" stroke-width="2" stroke-linecap="round"/>
<path d="M22.3999 23.6L22.3999 20" stroke="#0B1213" stroke-width="2" stroke-linecap="round"/>
<path d="M9.2002 14H30.8002V14C29.3003 14 28.5504 14 28.0246 14.382C27.8548 14.5053 27.7055 14.6546 27.5822 14.8244C27.2002 15.3502 27.2002 16.1001 27.2002 17.6V25.6C27.2002 27.4856 27.2002 28.4284 26.6144 29.0142C26.0286 29.6 25.0858 29.6 23.2002 29.6H16.8002C14.9146 29.6 13.9718 29.6 13.386 29.0142C12.8002 28.4284 12.8002 27.4856 12.8002 25.6V17.6C12.8002 16.1001 12.8002 15.3502 12.4182 14.8244C12.2949 14.6546 12.1456 14.5053 11.9758 14.382C11.45 14 10.7001 14 9.2002 14V14Z" stroke="#0B1213" stroke-width="2" stroke-linecap="round"/>
<path d="M17.6817 9.64472C17.8184 9.51714 18.1197 9.40441 18.5389 9.324C18.958 9.24359 19.4716 9.20001 19.9999 9.20001C20.5282 9.20001 21.0418 9.24359 21.4609 9.324C21.8801 9.40441 22.1814 9.51714 22.3181 9.64472" stroke="#0B1213" stroke-width="2" stroke-linecap="round"/>
</svg>
