<svg width="30" height="30" viewBox="0 0 30 30" fill="none" xmlns="http://www.w3.org/2000/svg">
<path d="M15 6.54169L15 4.12502" stroke="#0B1213" stroke-width="2" stroke-linecap="round"/>
<path fill-rule="evenodd" clip-rule="evenodd" d="M27.0834 10.1667H2.91675V13.7917C3.68876 13.7917 4.07476 13.7917 4.4004 13.9077C4.82352 14.0585 5.18357 14.3473 5.42254 14.7277C5.60645 15.0204 5.69019 15.3972 5.85766 16.1508L7.05402 21.5344C7.38772 23.036 7.55456 23.7869 8.10297 24.2268C8.65138 24.6667 9.42051 24.6667 10.9588 24.6667H19.0414C20.5797 24.6667 21.3488 24.6667 21.8972 24.2268C22.4456 23.7869 22.6124 23.036 22.9461 21.5344L24.1425 16.1508C24.31 15.3972 24.3937 15.0204 24.5776 14.7277C24.8166 14.3473 25.1766 14.0585 25.5998 13.9077C25.9254 13.7917 26.3114 13.7917 27.0834 13.7917V10.1667ZM11.7573 16.044C11.6665 15.4992 11.1513 15.1312 10.6065 15.222C10.0617 15.3128 9.69373 15.828 9.78452 16.3728L10.3887 19.9978C10.4795 20.5425 10.9947 20.9105 11.5395 20.8197C12.0843 20.729 12.4523 20.2137 12.3615 19.669L11.7573 16.044ZM20.2155 16.3728C20.3063 15.828 19.9383 15.3128 19.3935 15.222C18.8488 15.1312 18.3335 15.4992 18.2427 16.044L17.6386 19.669C17.5478 20.2137 17.9158 20.729 18.4606 20.8197C19.0053 20.9105 19.5206 20.5425 19.6114 19.9978L20.2155 16.3728Z" fill="#0B1213"/>
</svg>
