<svg width="157" height="157" viewBox="0 0 157 157" fill="none" xmlns="http://www.w3.org/2000/svg">
<path d="M108.106 49.5951L91.1162 36.4464C83.6587 30.671 73.2014 30.6991 65.7719 36.5024L48.9785 49.5951" stroke="#476516" stroke-width="2" stroke-linecap="round" stroke-linejoin="round"/>
<path d="M55.875 44.1843C55.875 44.1843 59.1271 74.8274 78.5279 74.8274C97.9286 74.8274 101.125 44.1843 101.125 44.1843" stroke="#476516" stroke-width="2" stroke-linecap="round" stroke-linejoin="round"/>
<path d="M115.507 154.168H41.4929L36.4464 100.003C36.138 96.7232 38.7173 93.8635 42.0255 93.8635H114.974C118.283 93.8635 120.862 96.6951 120.554 100.003L115.507 154.168Z" stroke="#476516" stroke-width="2" stroke-linecap="round" stroke-linejoin="round"/>
<path d="M78.4157 130.646C81.8066 130.646 84.5555 127.897 84.5555 124.507C84.5555 121.116 81.8066 118.367 78.4157 118.367C75.0248 118.367 72.2759 121.116 72.2759 124.507C72.2759 127.897 75.0248 130.646 78.4157 130.646Z" stroke="#476516" stroke-width="2" stroke-linecap="round" stroke-linejoin="round"/>
<path d="M59.4356 84.4997C59.4356 84.4997 40.6797 72.5005 40.6797 48.9785C40.6797 33.3626 53.3799 18.1392 61.9027 9.64438C66.3324 5.24278 72.2759 2.77563 78.4999 2.77563C84.7238 2.77563 90.6954 8.04635 95.097 12.448C103.62 20.9428 116.32 33.3626 116.32 48.9785C116.32 72.4724 97.5641 84.4997 97.5641 84.4997" stroke="#476516" stroke-width="2" stroke-linecap="round" stroke-linejoin="round"/>
<path d="M23.9145 145.141C14.3543 141.776 10.0649 136.842 8.18647 133.534C7.12112 131.712 6.92487 129.581 7.59772 127.59C10.4013 118.983 19.7092 90.7515 23.5781 80.4904C27.2508 70.762 38.5491 64.7063 42.9508 62.6877" stroke="#476516" stroke-width="2" stroke-linecap="round" stroke-linejoin="round"/>
<path d="M114.077 62.6877C118.451 64.7063 129.777 70.762 133.45 80.4904C137.347 90.7515 146.627 118.983 149.458 127.59C150.103 129.581 149.907 131.712 148.869 133.534C146.963 136.842 142.674 141.776 133.141 145.141" stroke="#476516" stroke-width="2" stroke-linecap="round" stroke-linejoin="round"/>
<path d="M2.80371 154.197H154.197" stroke="#476516" stroke-width="2" stroke-linecap="round" stroke-linejoin="round"/>
<path d="M86.2661 84.5557L89.0697 92.9103" stroke="#476516" stroke-width="2" stroke-linecap="round" stroke-linejoin="round"/>
<path d="M70.7621 84.5557L67.9585 92.9103" stroke="#476516" stroke-width="2" stroke-linecap="round" stroke-linejoin="round"/>
</svg>
