<svg width="24" height="24" viewBox="0 0 24 24" fill="none" xmlns="http://www.w3.org/2000/svg">
<g clip-path="url(#clip0_3_697)">
<path d="M17.4108 1.17169L17.3565 1.14455L17.2973 1.13118C13.9082 0.365893 10.3046 0.36664 6.81294 1.13045L6.78693 1.13614L6.76167 1.14456L6.46472 1.24354C4.35963 1.72168 2.73837 3.36 2.15995 5.4423L2.15987 5.44228L2.15757 5.45118C1.28076 8.84883 1.28145 12.4617 2.15582 15.9615C2.6062 17.8697 4.10671 19.3247 5.83765 19.9647L6.32061 22.6694L6.32107 22.6719C6.34471 22.8005 6.3859 22.9784 6.49475 23.1391C6.6189 23.3224 6.79619 23.4353 7.00183 23.4916C7.35085 23.587 7.75258 23.5142 8.00915 23.2685L10.7362 20.8444C12.8459 20.9362 15.0692 20.8189 17.2015 20.2858L17.2201 20.2811L17.2383 20.2751L17.5353 20.1761C19.6404 19.6979 21.2616 18.0596 21.84 15.9773L21.8401 15.9773L21.8424 15.9684C22.7195 12.5697 22.7186 8.95563 21.8434 5.45485L21.8435 5.45481L21.84 5.4423C21.2649 3.37176 19.6587 1.74021 17.5709 1.25176L17.4108 1.17169Z" fill="#C4C02F" stroke="#0B1213"/>
<path fill-rule="evenodd" clip-rule="evenodd" d="M7.88232 5.47002C7.66842 5.47002 7.45452 5.47002 7.34756 5.57698C6.8128 5.79088 6.49195 6.11174 6.17109 6.43259C5.95719 6.75345 5.74329 7.0743 5.74329 7.39516C5.74329 7.60906 5.74329 7.71601 5.74329 7.92992C6.06414 8.78553 6.385 9.64115 6.91976 10.3898C7.56147 11.4593 8.20318 12.4219 9.05879 13.3845C9.91441 14.2401 10.9839 14.9887 12.0534 15.5235C13.3369 16.1652 14.0855 16.4861 14.5133 16.593C14.6203 16.593 14.7272 16.7 14.8342 16.7C15.262 16.7 15.5829 16.4861 15.9037 16.2722C16.2246 15.9513 16.5454 15.6305 16.7593 15.2026C16.9732 14.7748 16.8663 14.454 16.5454 14.1331C15.9037 13.5984 15.262 13.0636 14.5133 12.7428C14.0855 12.5288 13.5508 12.6358 13.3369 12.9567L12.9091 13.4914C12.6952 13.7053 12.2674 13.7053 12.2674 13.7053C9.37965 12.9567 8.52403 9.962 8.52403 9.962C8.52403 9.962 8.52404 9.53419 8.73794 9.32029L9.2727 8.89248C9.4866 8.67858 9.70051 8.25077 9.37965 7.71601C9.37965 7.0743 8.84489 6.32564 8.31013 5.79088C8.20318 5.57698 7.98928 5.47002 7.88232 5.47002Z" fill="#0B1213"/>
<path fill-rule="evenodd" clip-rule="evenodd" d="M12.8021 4.18575C12.4812 4.18575 12.2673 4.39965 12.2673 4.7205C12.2673 5.04136 12.4812 5.25526 12.8021 5.25526C14.1925 5.25526 15.262 5.68307 16.1176 6.53869C16.5454 6.96649 16.9732 7.50125 17.1871 8.14296C17.401 8.78468 17.508 9.42639 17.508 10.0681C17.508 10.389 17.7219 10.6029 18.0427 10.6029C18.3636 10.6029 18.5775 10.389 18.5775 10.0681C18.5775 9.31943 18.4705 8.46382 18.1497 7.71516C17.8288 6.96649 17.401 6.32478 16.8663 5.68307C15.7967 4.7205 14.4064 4.18575 12.8021 4.18575Z" fill="#0B1213"/>
<path fill-rule="evenodd" clip-rule="evenodd" d="M12.6952 5.89699C12.4813 5.89699 12.1604 6.21785 12.1604 6.43175C12.1604 6.64565 12.4813 6.96651 12.6952 6.96651C13.6577 7.07346 14.4064 7.39432 14.8342 7.92908C15.369 8.46384 15.5829 9.2125 15.5829 9.96116C15.5829 10.282 15.7968 10.4959 16.1176 10.4959C16.4385 10.4959 16.6524 10.282 16.6524 9.96116C16.6524 8.89164 16.3315 7.92908 15.5829 7.18041C15.0481 6.43175 13.9786 6.00394 12.6952 5.89699Z" fill="#0B1213"/>
<path fill-rule="evenodd" clip-rule="evenodd" d="M12.6952 7.71514C12.3743 7.71514 12.1604 7.92904 12.1604 8.24989C12.1604 8.57075 12.3743 8.78465 12.6952 8.78465C13.123 8.78465 13.4438 8.89161 13.6577 9.10551C13.7647 9.31941 13.8716 9.64027 13.8716 10.0681C13.8716 10.3889 14.1925 10.6028 14.4064 10.6028C14.7272 10.6028 14.9411 10.282 14.9411 10.0681C14.9411 9.42637 14.7272 8.89161 14.2994 8.4638C13.9786 7.92904 13.3369 7.82209 12.6952 7.71514Z" fill="#0B1213"/>
</g>
<defs>
<clipPath id="clip0_3_697">
<rect width="24" height="24" fill="white"/>
</clipPath>
</defs>
</svg>
