<svg width="22" height="22" viewBox="0 0 22 22" fill="none" xmlns="http://www.w3.org/2000/svg">
<g clip-path="url(#clip0_3_692)">
<path d="M18.8117 3.1625C16.7191 1.14297 13.9691 0 11.043 0C2.63398 0 -2.64258 9.10508 1.55547 16.3496L0 22L5.80508 20.4875C8.33594 21.8539 10.407 21.7336 11.043 21.8152C20.7883 21.8152 25.6437 10.0246 18.7945 3.20117L18.8117 3.1625Z" fill="#0B1213"/>
<path d="M11.0602 19.9375H11.0559H11.043C8.12539 19.9375 6.26055 18.5582 6.08008 18.4766L2.64258 19.3703L3.56211 16.0273L3.34297 15.6836C2.43633 14.2398 1.95508 12.5769 1.95508 10.8625C1.95078 2.80155 11.8035 -1.22892 17.5012 4.46874C23.1859 10.1062 19.1941 19.9375 11.0602 19.9375Z" fill="#C4C02F"/>
<path d="M16.0488 13.1141L16.0402 13.1828C15.7652 13.0453 14.4203 12.3879 14.1711 12.2977C13.6082 12.0914 13.7672 12.2633 12.6887 13.5008C12.5297 13.6813 12.3707 13.6941 12.0957 13.5695C11.8207 13.432 10.9398 13.1441 9.8914 12.2074C9.07929 11.477 8.52929 10.5832 8.37031 10.3082C8.0996 9.84414 8.66249 9.77969 9.17382 8.80859C9.26406 8.61524 9.21679 8.46484 9.15234 8.32734C9.08359 8.18984 8.53789 6.84062 8.30585 6.30351C8.08671 5.775 7.86328 5.84375 7.6914 5.84375C7.16288 5.79648 6.77617 5.80508 6.43671 6.15742C4.95859 7.78164 5.33242 9.46172 6.5957 11.2449C9.08359 14.502 10.407 15.0992 12.8348 15.9328C13.4879 16.1391 14.0852 16.1133 14.5578 16.0445C15.082 15.9629 16.1777 15.3828 16.4055 14.7383C16.6375 14.0938 16.6375 13.5566 16.5687 13.432C16.5043 13.3074 16.3238 13.2387 16.0488 13.1141Z" fill="#0B1213"/>
</g>
<defs>
<clipPath id="clip0_3_692">
<rect width="22" height="22" fill="white"/>
</clipPath>
</defs>
</svg>
