<svg width="29" height="29" viewBox="0 0 29 29" fill="none" xmlns="http://www.w3.org/2000/svg">
<path d="M14.5 6.04167L14.5 3.625" stroke="#C4C02F" stroke-width="2" stroke-linecap="round"/>
<path fill-rule="evenodd" clip-rule="evenodd" d="M26.5833 9.66667H2.41663V13.2917C3.18864 13.2917 3.57464 13.2917 3.90028 13.4077C4.3234 13.5585 4.68345 13.8473 4.92242 14.2276C5.10633 14.5203 5.19007 14.8972 5.35754 15.6508L6.5539 21.0344C6.88759 22.536 7.05444 23.2868 7.60285 23.7268C8.15125 24.1667 8.92039 24.1667 10.4586 24.1667H18.5413C20.0795 24.1667 20.8487 24.1667 21.3971 23.7268C21.9455 23.2868 22.1123 22.536 22.446 21.0344L23.6424 15.6508C23.8099 14.8972 23.8936 14.5203 24.0775 14.2276C24.3165 13.8473 24.6765 13.5585 25.0996 13.4077C25.4253 13.2917 25.8113 13.2917 26.5833 13.2917V9.66667ZM11.2572 15.5439C11.1664 14.9992 10.6512 14.6311 10.1064 14.7219C9.56162 14.8127 9.1936 15.328 9.2844 15.8727L9.88857 19.4977C9.97936 20.0425 10.4946 20.4105 11.0394 20.3197C11.5841 20.2289 11.9521 19.7137 11.8614 19.1689L11.2572 15.5439ZM19.7154 15.8727C19.8062 15.328 19.4382 14.8127 18.8934 14.7219C18.3486 14.6311 17.8334 14.9992 17.7426 15.5439L17.1384 19.1689C17.0477 19.7137 17.4157 20.2289 17.9604 20.3197C18.5052 20.4105 19.0204 20.0425 19.1112 19.4977L19.7154 15.8727Z" fill="#C4C02F"/>
</svg>
