<svg width="30" height="30" viewBox="0 0 30 30" fill="none" xmlns="http://www.w3.org/2000/svg">
<path d="M15 6.54163L15 4.12496" stroke="#0B1213" stroke-width="2" stroke-linecap="round"/>
<path fill-rule="evenodd" clip-rule="evenodd" d="M27.0834 10.1666H2.91669V13.7916C3.6887 13.7916 4.0747 13.7916 4.40034 13.9077C4.82346 14.0584 5.18351 14.3473 5.42248 14.7276C5.60639 15.0203 5.69013 15.3971 5.8576 16.1507L7.05396 21.5343C7.38765 23.036 7.5545 23.7868 8.10291 24.2267C8.65132 24.6666 9.42045 24.6666 10.9587 24.6666H19.0413C20.5796 24.6666 21.3487 24.6666 21.8971 24.2267C22.4455 23.7868 22.6124 23.036 22.9461 21.5343L24.1424 16.1507C24.3099 15.3971 24.3936 15.0203 24.5776 14.7276C24.8165 14.3473 25.1766 14.0584 25.5997 13.9077C25.9253 13.7916 26.3113 13.7916 27.0834 13.7916V10.1666ZM11.7572 16.0439C11.6665 15.4991 11.1512 15.1311 10.6065 15.2219C10.0617 15.3127 9.69366 15.8279 9.78446 16.3727L10.3886 19.9977C10.4794 20.5425 10.9946 20.9105 11.5394 20.8197C12.0842 20.7289 12.4522 20.2137 12.3614 19.6689L11.7572 16.0439ZM20.2155 16.3727C20.3063 15.8279 19.9382 15.3127 19.3935 15.2219C18.8487 15.1311 18.3335 15.4991 18.2427 16.0439L17.6385 19.6689C17.5477 20.2137 17.9157 20.7289 18.4605 20.8197C19.0053 20.9105 19.5205 20.5425 19.6113 19.9977L20.2155 16.3727Z" fill="#0B1213"/>
</svg>
