<svg width="35" height="36" viewBox="0 0 35 36" fill="none" xmlns="http://www.w3.org/2000/svg">
<path d="M17.5025 0.5L17.2536 0.644361L13.4405 2.84462H8.75124L6.40663 6.90663L2.34462 9.25124V13.9405L0 18.0025L2.34462 22.0645V26.7537L6.40663 29.0984L8.75124 33.1604H13.4405L17.5025 35.505L21.5645 33.1604H26.2537L28.5984 29.0984L32.6604 26.7537V22.0645L35.005 18.0025L32.6604 13.9405V9.25124L28.5984 6.90663L26.2537 2.84462H21.5645L17.5025 0.5ZM17.5025 1.64991L21.2957 3.84021H25.6763L27.8666 7.63341L31.6598 9.82371V14.2043L33.8501 17.9975L31.6598 21.7907V26.1713L27.8666 28.3616L25.6763 32.1548H21.2957L17.5025 34.3451L13.7093 32.1548H9.32869L7.13839 28.3616L3.34519 26.1713V21.7907L1.15489 17.9975L3.34519 14.2043V9.82371L7.13839 7.63341L9.32869 3.84021H13.7093L17.5025 1.64991ZM17.5025 3.06365C17.2287 3.06365 17.0047 3.28765 17.0047 3.56144C17.0047 3.83523 17.2287 4.05924 17.5025 4.05924C17.7763 4.05924 18.0003 3.83523 18.0003 3.56144C18.0003 3.28765 17.7763 3.06365 17.5025 3.06365ZM10.2745 5.00007C10.1899 5.00007 10.1102 5.02496 10.0356 5.06478C9.79662 5.20417 9.71697 5.50782 9.85137 5.74676C9.91609 5.86126 10.0256 5.9409 10.155 5.97575C10.2795 6.0106 10.4189 5.99068 10.5334 5.92597C10.7723 5.78659 10.8519 5.48293 10.7126 5.24897C10.623 5.08967 10.4537 4.99509 10.2695 5.00007H10.2745ZM24.7006 5.00007C24.5314 5.01003 24.377 5.09963 24.2924 5.24897C24.153 5.48791 24.2377 5.79157 24.4766 5.92597C24.7155 6.06535 25.0192 5.98073 25.1536 5.74676C25.2233 5.63227 25.2382 5.49787 25.2034 5.36844C25.1685 5.23901 25.0889 5.1295 24.9744 5.06478C24.8948 5.01501 24.7952 4.99509 24.7006 5.00007ZM17.5075 6.05042C17.2337 6.05042 17.0097 6.27443 17.0097 6.54821C17.0097 6.822 17.2337 7.04601 17.5075 7.04601C17.7813 7.04601 18.0053 6.822 18.0053 6.54821C18.0053 6.27443 17.7813 6.05042 17.5075 6.05042ZM15.2773 6.26945C15.2425 6.26945 15.2126 6.26945 15.1778 6.27941C14.909 6.33416 14.7347 6.59302 14.7845 6.8668C14.8393 7.13561 15.1031 7.30984 15.3719 7.26006C15.6407 7.20531 15.815 6.94645 15.7652 6.67266C15.7204 6.44368 15.5163 6.27443 15.2773 6.27443V6.26945ZM19.7575 6.26945C19.5136 6.26447 19.3045 6.43372 19.2547 6.66769C19.2 6.9365 19.3742 7.20033 19.648 7.25508C19.9218 7.30984 20.1806 7.13561 20.2354 6.86183C20.2901 6.58804 20.1159 6.32919 19.8421 6.27443C19.8172 6.26945 19.7874 6.26447 19.7575 6.26447V6.26945ZM21.903 6.92156C21.6989 6.91658 21.5097 7.03606 21.4301 7.22522C21.3803 7.34967 21.3803 7.48407 21.4301 7.60852C21.4799 7.72799 21.5794 7.82755 21.6989 7.87733C21.9528 7.98187 22.2415 7.8624 22.346 7.60852C22.4506 7.35464 22.3311 7.06592 22.0772 6.96139C22.0225 6.9365 21.9627 6.92654 21.898 6.92654L21.903 6.92156ZM13.1318 6.92156C13.0671 6.92156 13.0024 6.93152 12.9377 6.96139C12.6838 7.06592 12.5644 7.35464 12.6689 7.60852C12.7734 7.8624 13.0622 7.98187 13.316 7.87733C13.4405 7.82755 13.5351 7.73297 13.5848 7.60852C13.6346 7.48407 13.6346 7.34967 13.5848 7.22522C13.5052 7.04103 13.326 6.92156 13.1269 6.91658L13.1318 6.92156ZM11.1556 7.97689C11.056 7.97689 10.9565 8.00178 10.8719 8.06151C10.6429 8.21583 10.5782 8.52446 10.7325 8.75345C10.8818 8.98244 11.1954 9.04217 11.4244 8.89283C11.5339 8.81816 11.6136 8.70367 11.6385 8.57424C11.6633 8.44482 11.6385 8.31041 11.5638 8.2009C11.4742 8.06649 11.3199 7.98187 11.1556 7.98187V7.97689ZM23.8792 7.97689C23.71 7.97689 23.5507 8.05654 23.4561 8.19592C23.3018 8.4249 23.3665 8.73354 23.5905 8.88785C23.8195 9.04217 24.1281 8.97746 24.2825 8.75345C24.4368 8.52446 24.3721 8.21583 24.1431 8.06151C24.0634 8.00676 23.9738 7.98187 23.8743 7.97689H23.8792ZM9.41829 9.40058C9.28389 9.40058 9.15446 9.45036 9.05988 9.54992C8.86574 9.74406 8.86574 10.0577 9.05988 10.2518C9.25402 10.446 9.56763 10.446 9.76177 10.2518C9.95591 10.0577 9.95591 9.74406 9.76177 9.54992C9.67217 9.45534 9.54772 9.40556 9.41829 9.40058ZM25.6116 9.40058C25.4772 9.40058 25.3477 9.45534 25.2532 9.54992C25.059 9.74406 25.059 10.0577 25.2532 10.2518C25.4473 10.446 25.7609 10.446 25.9551 10.2518C26.1492 10.0577 26.1492 9.74406 25.9551 9.54992C25.8655 9.45534 25.741 9.40556 25.6116 9.40058ZM29.9972 10.2817C29.9125 10.2817 29.8329 10.3066 29.7582 10.3464C29.6437 10.4111 29.5591 10.5206 29.5292 10.6501C29.4944 10.7745 29.5093 10.9139 29.579 11.0284C29.7134 11.2673 30.022 11.347 30.256 11.2076C30.495 11.0732 30.5746 10.7645 30.4402 10.5306C30.3506 10.3713 30.1813 10.2767 29.9972 10.2817ZM4.98293 10.2817C4.81368 10.2916 4.65937 10.3862 4.57474 10.5306C4.43536 10.7695 4.51998 11.0732 4.75892 11.2076C4.87342 11.2773 5.00782 11.2922 5.13725 11.2574C5.26668 11.2225 5.37619 11.1429 5.44091 11.0284C5.58029 10.7894 5.49566 10.4858 5.2617 10.3514C5.17707 10.3016 5.08249 10.2817 4.98791 10.2817H4.98293ZM27.0353 11.1379C26.9357 11.1379 26.8362 11.1678 26.7515 11.2225C26.5225 11.3719 26.4628 11.6855 26.6171 11.9145C26.7714 12.1434 27.0801 12.2032 27.3091 12.0489C27.538 11.8945 27.5978 11.5859 27.4435 11.3569C27.3539 11.2225 27.1995 11.1379 27.0353 11.1329V11.1379ZM7.99957 11.1379C7.83032 11.1379 7.67103 11.2175 7.57645 11.3619C7.42213 11.5909 7.48684 11.8995 7.71583 12.0489C7.94482 12.2032 8.25345 12.1385 8.40279 11.9145C8.47746 11.8049 8.50235 11.6705 8.47746 11.5411C8.45257 11.4117 8.3779 11.2972 8.26341 11.2225C8.18376 11.1678 8.09415 11.1379 7.9946 11.1379H7.99957ZM14.1772 12.1086C12.7137 12.1086 11.7032 13.2436 11.7032 14.8763C11.7032 16.5091 12.7237 17.6441 14.1772 17.6441C15.6308 17.6441 16.6513 16.5091 16.6513 14.8763C16.6513 13.2436 15.6407 12.1086 14.1772 12.1086ZM20.6884 12.3326L16.9549 17.6939L12.6838 23.5579H14.3863L18.0401 18.2763L22.3809 12.3326H20.6834H20.6884ZM6.94425 13.1191C6.74015 13.1141 6.55099 13.2336 6.47632 13.4228C6.37178 13.6766 6.49125 13.9703 6.74513 14.0749C6.999 14.1794 7.28773 14.0599 7.39226 13.8061C7.4968 13.5522 7.37733 13.2635 7.12345 13.1589C7.0687 13.134 7.00398 13.1241 6.94425 13.1241V13.1191ZM28.0906 13.1191C28.0259 13.1191 27.9612 13.1291 27.8965 13.154C27.6426 13.2585 27.5231 13.5522 27.6276 13.8011C27.7322 14.055 28.0209 14.1744 28.2748 14.0699C28.5287 13.9654 28.6481 13.6717 28.5436 13.4178C28.4689 13.2336 28.2847 13.1141 28.0856 13.1141L28.0906 13.1191ZM14.1772 13.3232C14.8343 13.3232 15.2325 13.9056 15.2325 14.8714C15.2325 15.8371 14.8144 16.4344 14.1772 16.4344C13.54 16.4344 13.1219 15.8221 13.1219 14.8714C13.1219 13.9206 13.5351 13.3232 14.1772 13.3232ZM6.29711 15.2696C6.05319 15.2596 5.84412 15.4289 5.79434 15.6678C5.73958 15.9366 5.91381 16.2005 6.1876 16.2552C6.45641 16.31 6.72024 16.1308 6.775 15.862C6.79989 15.7325 6.775 15.5981 6.70033 15.4886C6.62566 15.3791 6.51116 15.2995 6.38174 15.2746C6.35685 15.2696 6.32698 15.2646 6.29711 15.2646V15.2696ZM28.7427 15.2696C28.7079 15.2696 28.678 15.2696 28.6432 15.2795C28.5137 15.3044 28.3992 15.3791 28.3246 15.4936C28.2549 15.6031 28.225 15.7375 28.2499 15.8669C28.2748 15.9964 28.3495 16.1109 28.4639 16.1855C28.5735 16.2602 28.7079 16.2851 28.8373 16.2602C28.9667 16.2353 29.0812 16.1557 29.1559 16.0462C29.2306 15.9366 29.2554 15.8022 29.2306 15.6728C29.1858 15.4438 28.9817 15.2746 28.7427 15.2746V15.2696ZM3.06642 17.5047C2.79263 17.5047 2.56862 17.7287 2.56862 18.0025C2.56862 18.2763 2.79263 18.5003 3.06642 18.5003C3.34021 18.5003 3.56422 18.2763 3.56422 18.0025C3.56422 17.7287 3.34021 17.5047 3.06642 17.5047ZM6.05319 17.5047C5.77941 17.5047 5.5554 17.7287 5.5554 18.0025C5.5554 18.2763 5.77941 18.5003 6.05319 18.5003C6.32698 18.5003 6.55099 18.2763 6.55099 18.0025C6.55099 17.7287 6.32698 17.5047 6.05319 17.5047ZM28.9518 17.5047C28.678 17.5047 28.454 17.7287 28.454 18.0025C28.454 18.2763 28.678 18.5003 28.9518 18.5003C29.2256 18.5003 29.4496 18.2763 29.4496 18.0025C29.4496 17.7287 29.2256 17.5047 28.9518 17.5047ZM31.9386 17.5047C31.6648 17.5047 31.4408 17.7287 31.4408 18.0025C31.4408 18.2763 31.6648 18.5003 31.9386 18.5003C32.2123 18.5003 32.4364 18.2763 32.4364 18.0025C32.4364 17.7287 32.2123 17.5047 31.9386 17.5047ZM20.8327 18.2514C19.3742 18.2514 18.3537 19.3814 18.3537 21.0142C18.3537 22.6469 19.3742 23.7919 20.8327 23.7919C22.2913 23.7919 23.3068 22.6569 23.3068 21.0142C23.3068 19.3714 22.2963 18.2514 20.8327 18.2514ZM20.8327 19.466C21.4799 19.466 21.8831 20.0484 21.8831 21.0142C21.8831 21.9799 21.4699 22.5772 20.8327 22.5772C20.1956 22.5772 19.7774 21.9649 19.7774 21.0142C19.7774 20.0634 20.1906 19.466 20.8327 19.466ZM28.7427 19.7398C28.5038 19.7348 28.2897 19.9041 28.2449 20.143C28.1902 20.4118 28.3644 20.6757 28.6382 20.7304C28.907 20.7852 29.1708 20.606 29.2256 20.3371C29.2803 20.0683 29.1061 19.8045 28.8323 19.7498C28.8074 19.7498 28.7776 19.7398 28.7477 19.7398H28.7427ZM6.2772 19.7398C6.24236 19.7398 6.20751 19.7398 6.17764 19.7498C6.04822 19.7746 5.93372 19.8543 5.85905 19.9638C5.78936 20.0733 5.75949 20.2077 5.78438 20.3371C5.80927 20.4666 5.88394 20.5811 5.99844 20.6557C6.10795 20.7254 6.24236 20.7553 6.37178 20.7304C6.50121 20.7055 6.6157 20.6308 6.69037 20.5164C6.76504 20.4068 6.78993 20.2724 6.76504 20.143C6.72024 19.914 6.51614 19.7448 6.28218 19.7448L6.2772 19.7398ZM6.92931 21.8853C6.85962 21.8853 6.79491 21.8953 6.73517 21.9201C6.4813 22.0247 6.36183 22.3184 6.46636 22.5723C6.5709 22.8261 6.8646 22.9456 7.11848 22.8411C7.37235 22.7365 7.49182 22.4478 7.38729 22.1939C7.31262 22.0097 7.12843 21.8903 6.93429 21.8853H6.92931ZM28.0906 21.8853C27.8865 21.8853 27.6973 21.9998 27.6227 22.1939C27.5181 22.4478 27.6376 22.7365 27.8915 22.8411C28.0159 22.8908 28.1503 22.8908 28.2748 22.8411C28.3992 22.7913 28.4938 22.6917 28.5436 22.5723C28.6481 22.3184 28.5287 22.0247 28.2748 21.9201C28.22 21.8953 28.1553 21.8853 28.0956 21.8853H28.0906ZM27.0303 23.8665C26.861 23.8665 26.7017 23.9462 26.6072 24.0856C26.4529 24.3145 26.5176 24.6232 26.7416 24.7775C26.8511 24.8472 26.9855 24.877 27.1149 24.8522C27.2443 24.8273 27.3588 24.7476 27.4335 24.6381C27.5828 24.4091 27.5231 24.1005 27.2941 23.9462C27.2145 23.8914 27.1249 23.8665 27.0253 23.8665H27.0303ZM7.98962 23.8665C7.89006 23.8665 7.7905 23.8914 7.70587 23.9511C7.47689 24.1055 7.41217 24.4141 7.56649 24.6431C7.71583 24.8721 8.02944 24.9318 8.25843 24.7825C8.36794 24.7078 8.44759 24.5933 8.47248 24.4639C8.49737 24.3344 8.47248 24.2 8.39781 24.0905C8.30821 23.9561 8.15389 23.8715 7.98962 23.8715V23.8665ZM4.98791 24.7227C4.90826 24.7227 4.82364 24.7476 4.75395 24.7874C4.51501 24.9268 4.43536 25.2305 4.56976 25.4694C4.70915 25.7084 5.0128 25.788 5.25174 25.6486C5.36624 25.5839 5.44588 25.4744 5.48073 25.345C5.51557 25.2155 5.49566 25.0811 5.43095 24.9667C5.34135 24.8074 5.1721 24.7128 4.98791 24.7178V24.7227ZM29.9822 24.7227C29.813 24.7327 29.6587 24.8273 29.574 24.9716C29.4346 25.2106 29.5193 25.5142 29.7532 25.6536C29.9872 25.793 30.2958 25.7084 30.4352 25.4694C30.4999 25.3549 30.5198 25.2205 30.485 25.0911C30.4502 24.9617 30.3705 24.8522 30.256 24.7874C30.1764 24.7377 30.0768 24.7178 29.9822 24.7178V24.7227ZM9.41331 25.5988C9.27891 25.5988 9.14948 25.6486 9.0549 25.7432C8.86076 25.9373 8.86076 26.251 9.0549 26.4451C9.24904 26.6392 9.56265 26.6392 9.75679 26.4451C9.95093 26.251 9.95093 25.9373 9.75679 25.7432C9.66719 25.6536 9.54274 25.5988 9.41331 25.5988ZM25.6066 25.5988C25.4722 25.5988 25.3428 25.6486 25.2482 25.7432C25.054 25.9373 25.054 26.251 25.2482 26.4451C25.4423 26.6392 25.7559 26.6392 25.9501 26.4451C26.1442 26.251 26.1442 25.9373 25.9501 25.7432C25.8605 25.6486 25.736 25.5988 25.6066 25.5988ZM23.8743 27.0225C23.7747 27.0225 23.6752 27.0524 23.5905 27.1072C23.3615 27.2565 23.3018 27.5701 23.4561 27.7941C23.6104 28.0231 23.9191 28.0878 24.1481 27.9335C24.377 27.7792 24.4368 27.4706 24.2825 27.2416C24.1929 27.1072 24.0385 27.0225 23.8743 27.0176V27.0225ZM11.1556 27.0225C10.9863 27.0225 10.8271 27.1022 10.7325 27.2416C10.5831 27.4706 10.6429 27.7792 10.8719 27.9335C11.1008 28.0878 11.4095 28.0231 11.5638 27.7941C11.7181 27.5651 11.6534 27.2565 11.4294 27.1072C11.3497 27.0524 11.2552 27.0225 11.1606 27.0225H11.1556ZM13.1368 28.0779C12.9327 28.0729 12.7436 28.1924 12.6689 28.3815C12.5644 28.6354 12.6838 28.9291 12.9377 29.0336C13.1916 29.1382 13.4803 29.0187 13.5898 28.7648C13.6944 28.511 13.5749 28.2222 13.321 28.1177C13.2662 28.0928 13.2015 28.0828 13.1418 28.0828L13.1368 28.0779ZM21.893 28.0779C21.8234 28.0779 21.7586 28.0878 21.6989 28.1127C21.445 28.2173 21.3256 28.511 21.4301 28.7598C21.5346 29.0137 21.8283 29.1332 22.0822 29.0287C22.3361 28.9241 22.4556 28.6304 22.351 28.3765C22.2763 28.1924 22.0922 28.0729 21.898 28.0729L21.893 28.0779ZM15.2873 28.73C15.0434 28.725 14.8343 28.8943 14.7845 29.1282C14.7596 29.2576 14.7845 29.392 14.8592 29.5016C14.9339 29.6111 15.0484 29.6907 15.1778 29.7156C15.4466 29.7704 15.7104 29.5961 15.7652 29.3224C15.7901 29.1929 15.7652 29.0585 15.6905 28.949C15.6158 28.8395 15.5014 28.7599 15.3719 28.735C15.347 28.73 15.3172 28.725 15.2923 28.725L15.2873 28.73ZM19.7426 28.73C19.7077 28.73 19.6779 28.73 19.643 28.7399C19.3742 28.7947 19.2 29.0535 19.2498 29.3273C19.2995 29.6011 19.5634 29.7704 19.8371 29.7206C20.1109 29.6708 20.2802 29.407 20.2304 29.1332C20.1856 28.9042 19.9815 28.735 19.7426 28.735V28.73ZM17.5075 28.949C17.2337 28.949 17.0097 29.173 17.0097 29.4468C17.0097 29.7206 17.2337 29.9446 17.5075 29.9446C17.7813 29.9446 18.0053 29.7206 18.0053 29.4468C18.0053 29.173 17.7813 28.949 17.5075 28.949ZM24.7106 29.9994C24.6309 29.9994 24.5463 30.0243 24.4766 30.0691C24.2377 30.2035 24.158 30.5121 24.2924 30.7461C24.4268 30.98 24.7355 31.0646 24.9744 30.9302C25.2133 30.7909 25.293 30.4872 25.1536 30.2483C25.064 30.089 24.8948 29.9944 24.7106 29.9994ZM10.2645 29.9994C10.0953 30.0093 9.94098 30.0989 9.85635 30.2483C9.79164 30.3628 9.77173 30.4972 9.80657 30.6266C9.84142 30.756 9.92604 30.8655 10.0405 30.9302C10.2795 31.0646 10.5831 30.985 10.7175 30.7461C10.8569 30.5071 10.7723 30.2035 10.5383 30.0691C10.4537 30.0193 10.3591 29.9994 10.2645 30.0043V29.9994ZM17.5075 31.9308C17.2337 31.9308 17.0097 32.1548 17.0097 32.4286C17.0097 32.7024 17.2337 32.9264 17.5075 32.9264C17.7813 32.9264 18.0053 32.7024 18.0053 32.4286C18.0053 32.1548 17.7813 31.9308 17.5075 31.9308Z" fill="#038601"/>
</svg>
